<svg width="100%" height="100%" viewBox="0 0 24 24" fill="none" xmlns="http://www.w3.org/2000/svg" id="egg" shape-rendering="crispEdges">
  <g class="border">
    <path fill-rule="evenodd" clip-rule="evenodd" d="M10 4H11V5H12V10H13V11H12H11V10V6H10H9V5H10V4ZM9 10V6H8V10H9ZM10 11V10H9V11V12H8V14H7V19H8V20H9V21H15V20H16V19H17V14H16V12H15V11H16V10H17V9H18V5H17V6H15V7H14V8H13V10H14V8H15V7H17V9H16V10H15V11H14V12H15V14H16V19H15V20H9V19H8V14H9V12H10V11Z" fill="black"/>
  </g>
  <g id="rare" class="inside">
    <path fill-rule="evenodd" clip-rule="evenodd" d="M11 13H13V14H14V15H13V16H11V15H10V14H11V13Z" fill="#DB00FF"/>
    <path fill-rule="evenodd" clip-rule="evenodd" d="M11 13H12H13V14H12H11V13ZM11 14V15H9.99999V14H11Z" fill="white" fill-opacity="0.59"/>
    <path fill-rule="evenodd" clip-rule="evenodd" d="M13 14H14V15H13V16H11V15H13V14Z" fill="black" fill-opacity="0.17"/>
  </g>
  <g id="pikachu" class="body">
    <path fill-rule="evenodd" clip-rule="evenodd" d="M9 6H11V10V11H13V10H14V9V8H15V7H17V8V9H16V10H15V11H14V12H15V14H16V19H15V20H14H10H9V19H8V14H9V12H10V11V10H9V6Z" fill="#FDFE00"/>
    <path fill-rule="evenodd" clip-rule="evenodd" d="M15 12H14V13H15V12ZM16 14H15V15H16V14ZM15 18H16V19H15V18ZM15 19V20H14V19H15Z" fill="black" fill-opacity="0.5"/>
    <path fill-rule="evenodd" clip-rule="evenodd" d="M16 8H17V9H16V8ZM15 10V9H16V10H15ZM14 11V10H15V11H14ZM14 13V12V11H13V12H12V14H13V15H14V17H13V18H12V19H10V20H12H15V19H16V15V14H15V13H14Z" fill="black" fill-opacity="0.15"/>
  </g>
  <g id="a6" class="mouth">
    <path d="M11 18H12V19H11V18Z" fill="black"/>
  </g>
  <g id="a9" class="eyes">
    <path fill-rule="evenodd" clip-rule="evenodd" d="M11 15H10V17H11V15ZM14 15H13V17H14V15Z" fill="white"/>
    <path fill-rule="evenodd" clip-rule="evenodd" d="M10 15H9V17H10V15ZM13 15H12V17H13V15Z" fill="black"/>
    <path fill-rule="evenodd" clip-rule="evenodd" d="M11 15H9V16H11V15ZM14 15H12V16H14V15Z" fill="black" fill-opacity="0.15"/>
  </g>
  <g id="blush" class="face">
  <path fill-rule="evenodd" clip-rule="evenodd" d="M15 17H14V18H15V17ZM9 17H8V18H9V17Z" fill="#E80E0F"/>
  </g>
  <g id="poke-ball" class="accessory">
    <path fill-rule="evenodd" clip-rule="evenodd" d="M17 17H14V18H17V17ZM17 21V18H18V21H17ZM14 21V22H17V21H14ZM14 21H13V18H14V21Z" fill="black"/>
    <path fill-rule="evenodd" clip-rule="evenodd" d="M14 18H17V19V20H16V19H15V20H14V19V18Z" fill="#E80E0F"/>
    <rect x="14" y="20" width="3" height="1" fill="#E9E9E9"/>
    <rect x="15" y="19" width="1" height="1" fill="white"/>
    <path fill-rule="evenodd" clip-rule="evenodd" d="M16 19H17V20H16V21H15V20H14V19H15V20H16V19Z" fill="black" fill-opacity="0.15"/>
    <rect x="16" y="18" width="1" height="3" fill="black" fill-opacity="0.28"/>
  </g>
  <style>
    <![CDATA[
      #egg:active{transform:scaleX(-1);}
    ]]>
  </style>
</svg>
