<svg width="24" height="24" viewBox="0 0 24 24" fill="none" xmlns="http://www.w3.org/2000/svg">
<g id="Group 133">
<rect width="24" height="24" fill="#C3EAB5"/>
<g id="inside-rare">
<path id="border" fill-rule="evenodd" clip-rule="evenodd" d="M12 14H13V15H12H11V14H12ZM10 16V15H11V16H10ZM10 18H9V16H10V18ZM14 18V19H13H11H10V18H11H13H14ZM14 16H15V18H14V16ZM14 16V15H13V16H14Z" fill="black"/>
<path id="fill" fill-rule="evenodd" clip-rule="evenodd" d="M11 15H12H13V16H14V18H13H10V17V16H11V15Z" fill="#FF00FF"/>
<path id="shadow" fill-rule="evenodd" clip-rule="evenodd" d="M13 16H14V17V18H13H12V17H13V16Z" fill="black" fill-opacity="0.25"/>
<path id="shine" fill-rule="evenodd" clip-rule="evenodd" d="M12 15H11V16H10V17H11V16H12V15Z" fill="white" fill-opacity="0.6"/>
</g>
<g id="body-bot">
<g id="border_2">
<path id="static-border" fill-rule="evenodd" clip-rule="evenodd" d="M15 12H9V13H8V14H7V20H8V21H16V20H17V14H16V13H15V12ZM15 13V14H16V20H8V14H9V13H15Z" fill="black"/>
</g>
<g id="body">
<path id="fill-body" fill-rule="evenodd" clip-rule="evenodd" d="M9 13H15V14H16V20H15H9H8V14H9V13Z" fill="#F6E9E5"/>
<path id="Union" fill-rule="evenodd" clip-rule="evenodd" d="M10 13H9V14H8V20H9H10H11H12V19H11H10H9V14H10H15V19H14V20H15H16V14H15V13H10Z" fill="#C18BF3"/>
</g>
<g id="static-feet">
<path id="feet" fill-rule="evenodd" clip-rule="evenodd" d="M11 21H9V22H11V21ZM15 21H13V22H15V21Z" fill="#F6E9E5"/>
</g>
</g>
<g id="mouth-smile">
<rect id="Rectangle 1242" x="11" y="19" width="4" height="1" fill="black"/>
<rect id="Rectangle 1244" x="10" y="18" width="1" height="1" fill="black"/>
</g>
<g id="eyes-happy">
<path id="Union_2" fill-rule="evenodd" clip-rule="evenodd" d="M10 15H11V16H10V15ZM10 16V17H9V16H10ZM11 16V17H12V16H11Z" fill="black"/>
<path id="Union_3" fill-rule="evenodd" clip-rule="evenodd" d="M15 15H14V16H13V17H14V16H15V17H16V16H15V15Z" fill="black"/>
</g>
<g id="ears-bot">
<g id="Group 144">
<path id="Union_4" fill-rule="evenodd" clip-rule="evenodd" d="M8 11H9V12H8V11ZM8 12V13H7V12H8ZM9 12V13H10V12H9Z" fill="black"/>
<rect id="Rectangle 2819" x="8" y="12" width="1" height="1" fill="#F6E9E5"/>
</g>
<g id="Group 145">
<rect id="Rectangle 2820" x="15" y="12" width="1" height="1" fill="#F6E9E5"/>
<path id="Union_5" fill-rule="evenodd" clip-rule="evenodd" d="M15 11H16V12H15V11ZM15 12V13H14V12H15ZM16 12V13H17V12H16Z" fill="black"/>
</g>
</g>
</g>
</svg>
