<svg width="24" height="24" viewBox="0 0 24 24" fill="none" xmlns="http://www.w3.org/2000/svg">
<g id="panda">
<rect width="24" height="24" fill="#FF00FF"/>
<g id="inside-rare">
<path id="fill-meat" fill-rule="evenodd" clip-rule="evenodd" d="M13 13H11V14H10V15H11V16H13V15H14V14H13V13Z" fill="#DB00FF"/>
<path id="static-shine" fill-rule="evenodd" clip-rule="evenodd" d="M13 13H12H11V14H12H13V13ZM13 14V15H14V14H13Z" fill="white" fill-opacity="0.59"/>
<path id="static-shadow" fill-rule="evenodd" clip-rule="evenodd" d="M11 14H10V15H11V16H13V15H11V14Z" fill="black" fill-opacity="0.17"/>
</g>
<g id="body-a1">
<path id="Union" fill-rule="evenodd" clip-rule="evenodd" d="M10 10H14V11H15V12H16V14H17V19H16V20H15V21H9V20H8V19H7V14H8V12H9V11H10V10ZM10 11V12H9V14H8V19H9V20H15V19H16V14H15V12H14V11H10Z" fill="black"/>
<path id="fill-color" fill-rule="evenodd" clip-rule="evenodd" d="M14 11H10V12H9V14H8V19H9V20H10H14H15V19H16V14H15V12H14V11Z" fill="#EEEEEE"/>
<path id="static-shadow_2" fill-rule="evenodd" clip-rule="evenodd" d="M11 11H10V12H11V11ZM10 12H9V13H10V12ZM8 14H9V15H8V14ZM9 18H8V19H9V18ZM9 19V20H10V19H9ZM15 19H14V20H15V19ZM15 19H16V18H15V19Z" fill="black" fill-opacity="0.5"/>
<path id="static-shadow-big" fill-rule="evenodd" clip-rule="evenodd" d="M11 11H13V12H12V13H11V15H10V17H11V18H12V19H14V20H12H9V19H8V15V14H9V13H10V12H11V11Z" fill="black" fill-opacity="0.29"/>
</g>
<g id="face-blush">
<path id="Union_2" fill-rule="evenodd" clip-rule="evenodd" d="M11 16H9V17H11V16ZM16 16H14V17H16V16Z" fill="#EB8183" fill-opacity="0.68"/>
</g>
<g id="mouth-a5">
<path id="Union_3" fill-rule="evenodd" clip-rule="evenodd" d="M10 17H9V18H10V19H12H13H14V18H13H12H10V17Z" fill="black"/>
</g>
<g id="hat-panda_ears">
<path id="hair-panda_ears" fill-rule="evenodd" clip-rule="evenodd" d="M8 9H9H10V10V11H9V12H8V13H7V12V11V10H8V9ZM16 13V12H15V11H14V10V9H15H16V10H17V11V12V13H16Z" fill="black"/>
</g>
<g id="eyes-regular">
<path id="Union_4" fill-rule="evenodd" clip-rule="evenodd" d="M12 15H11V17H12V15ZM15 15H14V17H15V15Z" fill="black"/>
<path id="Union_5" fill-rule="evenodd" clip-rule="evenodd" d="M10 15H11V17H10V15ZM13 15H14V16V17H13V16V15Z" fill="white"/>
<path id="static-lids" fill-rule="evenodd" clip-rule="evenodd" d="M13 15H15V16H13V15ZM10 15H12V16H10V15Z" fill="black" fill-opacity="0.15"/>
</g>
<g id="nose-panda">
<rect id="face-nose" x="12" y="17" width="1" height="1" fill="#444444"/>
</g>
<g id="accessory-bamboo_leaf">
<path id="Union_6" fill-rule="evenodd" clip-rule="evenodd" d="M6 17H7V18H6V17ZM7 18V19V20H8V21H9H10V20V19H9V18H7Z" fill="#748B2A"/>
<path id="Union_7" fill-rule="evenodd" clip-rule="evenodd" d="M8 19H7V20H8V21H9H10V20H9H8V19Z" fill="black" fill-opacity="0.2"/>
<path id="Union_8" fill-rule="evenodd" clip-rule="evenodd" d="M6 19H7V20H6V19ZM8 21H7V20H8V21ZM8 21H10V22H8V21Z" fill="black" fill-opacity="0.5"/>
<g id="Rectangle 2489" style="mix-blend-mode:overlay">
<path d="M10 20H9V21H10V20Z" fill="white" fill-opacity="0.45"/>
</g>
<g id="Rectangle 2490" style="mix-blend-mode:overlay">
<path d="M10 19H9V20H10V19Z" fill="white" fill-opacity="0.45"/>
</g>
<g id="Rectangle 2491" style="mix-blend-mode:overlay">
<path d="M9 18H8V19H9V18Z" fill="white" fill-opacity="0.45"/>
</g>
</g>
</g>
</svg>
