<svg width="24" height="24" viewBox="0 0 24 24" fill="none" xmlns="http://www.w3.org/2000/svg">
<g id="Frame 75">
<rect width="24" height="24" fill="#C4ED9A"/>
<g id="inside-rare">
<path id="border" fill-rule="evenodd" clip-rule="evenodd" d="M12 11H14V12H12V11ZM11 13H12V12H11V13ZM10 14V13H11V14H10ZM10 16H9V15V14H10V15V16ZM13 16V17H10V16H13ZM14 15V16H13V15H14ZM14 15H15V13V12H14V13V15Z" fill="black"/>
<path id="fill" fill-rule="evenodd" clip-rule="evenodd" d="M13 12H12V13H11V14H10V16H11H12H13V15H14V12H13Z" fill="#FF00FF"/>
<path id="shadow" fill-rule="evenodd" clip-rule="evenodd" d="M13 13H12V14H11V15H12V14H13V13Z" fill="black" fill-opacity="0.25"/>
<rect id="dark-shadow" x="11" y="13" width="1" height="1" fill="black" fill-opacity="0.4"/>
<rect id="shine" x="12" y="12" width="2" height="1" fill="white" fill-opacity="0.5"/>
</g>
<g id="body-general">
<path id="fill-root" fill-rule="evenodd" clip-rule="evenodd" d="M10 10H8V11H7V12H9V13H7V15H9V16V19H10V20H15V19H16V16V15H18V13H16V12H18V11H17V10H15V11H14V10H11V11H10V10Z" fill="#3F4F91"/>
<path id="hair" fill-rule="evenodd" clip-rule="evenodd" d="M10 10H8V11H7V12H9V13H7V15H9V16H10V15H11V14H14V15H15V16H16V15H18V13H16V12H18V11H17V10H15V11H14V10H11V11H10V10Z" fill="#3F4F91"/>
<path id="border_2" fill-rule="evenodd" clip-rule="evenodd" d="M8 9H9H10V10H9H8V9ZM7 11V10H8V11H7ZM7 12H6V11H7V12ZM7 13V12H9V13H7ZM7 15H6V13H7V15ZM9 19H8V16H7V15H9V16V19ZM10 20H9V19H10V20ZM15 20V21H10V20H15ZM16 19V20H15V19H16ZM18 15V16H17V19H16V16V15H18ZM18 13H19V15H18V13ZM18 12V13H16V12H18ZM18 11H19V12H18V11ZM17 10H18V11H17V10ZM15 10V9H16H17V10H16H15ZM14 10H15V11H14V10ZM11 10V9H12H13H14V10H13H12H11ZM11 10H10V11H11V10ZM11 14V13H13H14V14H13H11ZM11 14V15H10V14H11ZM14 14V15H15V14H14Z" fill="#1E2B5C"/>
<path id="static-shadow" fill-rule="evenodd" clip-rule="evenodd" d="M8 10H9V11H8V10ZM8 11V12H7V11H8ZM11 11H10V12H9V13H7V14H9V13H10V14H11V13H10V12H11V11ZM15 11H14V12H15V13H14V14H15V13H16V14H18V13H16V12H15V11ZM17 11H18V12H17V11ZM17 11H16V10H17V11ZM12 10H13V11H12V10ZM13 12H12V13H13V12Z" fill="black" fill-opacity="0.3"/>
</g>
<g id="eyes-small_pupils">
<path id="static-sclera" fill-rule="evenodd" clip-rule="evenodd" d="M13 16H15V18H13V16ZM10 16H12V18H10V16Z" fill="white"/>
<path id="static-pupils" fill-rule="evenodd" clip-rule="evenodd" d="M14 16H15V17H14V16ZM11 16H12V17H11V16Z" fill="black"/>
<path id="static-lids" fill-rule="evenodd" clip-rule="evenodd" d="M13 16H15V17H13V16ZM10 16H12V17H10V16Z" fill="black" fill-opacity="0.15"/>
</g>
<g id="mouth-ehh">
<rect id="Rectangle 188" x="11" y="19" width="4" height="1" fill="black"/>
</g>
<g id="clothes-full_dress_uniform">
<rect id="Rectangle 2973" x="11" y="20" width="3" height="1" fill="#E040FB"/>
<path id="Union" fill-rule="evenodd" clip-rule="evenodd" d="M11 20H8V21H11V20ZM17 20H14V21H17V20Z" fill="#FFEB3B"/>
<path id="Union_2" fill-rule="evenodd" clip-rule="evenodd" d="M10 19H9V20H8V21H9V20H10V21H11V20H10V19ZM16 19H15V20H14V21H15V20H16V21H17V20H16V19Z" fill="#FFC107"/>
<path id="Union_3" fill-rule="evenodd" clip-rule="evenodd" d="M9 19H10V20H9V19ZM11 20H12V21H11V20ZM16 19H15V20H16V19Z" fill="black" fill-opacity="0.25"/>
</g>
</g>
</svg>
