<svg width="24" height="24" viewBox="0 0 24 24" fill="none" xmlns="http://www.w3.org/2000/svg">
<g id="Frame 69">
<rect width="24" height="24" fill="#25CF86"/>
<g id="inside-rare">
<path id="border" fill-rule="evenodd" clip-rule="evenodd" d="M12 11H14V12H12V11ZM11 13H12V12H11V13ZM10 14V13H11V14H10ZM10 16H9V15V14H10V15V16ZM13 16V17H10V16H13ZM14 15V16H13V15H14ZM14 15H15V13V12H14V13V15Z" fill="black"/>
<path id="fill" fill-rule="evenodd" clip-rule="evenodd" d="M13 12H12V13H11V14H10V16H11H12H13V15H14V12H13Z" fill="#FF00FF"/>
<path id="shadow" fill-rule="evenodd" clip-rule="evenodd" d="M13 13H12V14H11V15H12V14H13V13Z" fill="black" fill-opacity="0.25"/>
<rect id="dark-shadow" x="11" y="13" width="1" height="1" fill="black" fill-opacity="0.4"/>
<rect id="shine" x="12" y="12" width="2" height="1" fill="white" fill-opacity="0.5"/>
</g>
<g id="body-donkey">
<path id="fill-root" fill-rule="evenodd" clip-rule="evenodd" d="M10 10H8V11H7V12H9V13H7V15H9V16V19H10V20H15V19H16V16V15H18V13H16V12H18V11H17V10H15V11H14V10H11V11H10V10Z" fill="#FCE65D"/>
<path id="border_2" fill-rule="evenodd" clip-rule="evenodd" d="M8 9H9H10V10H9H8V9ZM7 11V10H8V11H7ZM7 12H6V11H7V12ZM7 13V12H9V13H7ZM7 15H6V13H7V15ZM9 19H8V16H7V15H9V16V19ZM10 20H9V19H10V20ZM15 20V21H10V20H15ZM16 19V20H15V19H16ZM18 15V16H17V19H16V16V15H18ZM18 13H19V15H18V13ZM18 12V13H16V12H18ZM18 11H19V12H18V11ZM17 10H18V11H17V10ZM15 10V9H16H17V10H16H15ZM14 10H15V11H14V10ZM11 10V9H12H13H14V10H13H12H11ZM11 10H10V11H11V10ZM11 14V13H13H14V14H13H11ZM11 14V15H10V14H11ZM14 14V15H15V14H14Z" fill="black"/>
<path id="Union" fill-rule="evenodd" clip-rule="evenodd" d="M11 14H14V15V16V17H11V16V15V14Z" fill="#F7E3B2"/>
<path id="static-shadow" fill-rule="evenodd" clip-rule="evenodd" d="M8 10H9V11H8V10ZM8 11V12H7V11H8ZM11 11H10V12H9V13H7V14H9V13H10V14H11V13H10V12H11V11ZM15 11H14V12H15V13H14V14H15V13H16V14H18V13H16V12H15V11ZM17 11H18V12H17V11ZM17 11H16V10H17V11ZM12 10H13V11H12V10ZM13 12H12V13H13V12Z" fill="black" fill-opacity="0.3"/>
<path id="Union_2" fill-rule="evenodd" clip-rule="evenodd" d="M14 17H11V18H10V19V20H11H14H15V19V18H14V17Z" fill="#FFF1E6"/>
<path id="Union_3" fill-rule="evenodd" clip-rule="evenodd" d="M9 11H8V12H9V13H10V12H9V11ZM15 12H16V13H15V12ZM16 12V11H17V12H16Z" fill="#F78255"/>
<path id="static-shadow_2" fill-rule="evenodd" clip-rule="evenodd" d="M8 10H9H10V11H11V12H10V13V15H11V18V20H10V19H9V16V15H8H7V13H8H9V12H8H7V11H8V10ZM11 11V10H12H13H14V11H13H12H11ZM15 18H16V19H15V18ZM15 19V20H14V19H15Z" fill="black" fill-opacity="0.25"/>
</g>
<g id="mouth-woah">
<path id="Union_4" fill-rule="evenodd" clip-rule="evenodd" d="M12 19H11V20H12H14V19H12Z" fill="black"/>
</g>
<g id="eyes-puppy">
<path id="Union_5" fill-rule="evenodd" clip-rule="evenodd" d="M11 16H10V18H11H12V17H11V16ZM14 16H13V18H14H15V17H14V16Z" fill="black"/>
<path id="Union_6" fill-rule="evenodd" clip-rule="evenodd" d="M12 16H11V17H12V16ZM15 16H14V17H15V16Z" fill="white"/>
</g>
<g id="accessory-carrot">
<path id="base" fill-rule="evenodd" clip-rule="evenodd" d="M16 18H17V19V20V21H16H16H15V20V19H16V18ZM18 19H17V20H18V19Z" fill="#F4850C"/>
<path id="green" fill-rule="evenodd" clip-rule="evenodd" d="M17 16H18V17H19V18V19H18H18H17V18V17V16ZM20 18H19V19H20V18Z" fill="#018E52"/>
<path id="shine_2" fill-rule="evenodd" clip-rule="evenodd" d="M17 18H16V19H15V20H16V19H17V18Z" fill="white" fill-opacity="0.29"/>
<path id="shadow_2" fill-rule="evenodd" clip-rule="evenodd" d="M18 19H17V20H18V19ZM17 20H16V21H17V20Z" fill="#020405" fill-opacity="0.25"/>
<path id="shine_3" d="M17 16H18V18H17V16Z" fill="white" fill-opacity="0.39"/>
<path id="shadow_3" fill-rule="evenodd" clip-rule="evenodd" d="M18 18H17V19H18V18ZM20 18H19V19H20V18Z" fill="black" fill-opacity="0.17"/>
</g>
</g>
</svg>
