<svg width="24" height="24" viewBox="0 0 24 24" fill="none" xmlns="http://www.w3.org/2000/svg">
<g id="Frame 66">
<rect width="24" height="24" fill="#636363"/>
<g id="inside-rare">
<path id="border" fill-rule="evenodd" clip-rule="evenodd" d="M12 11H14V12H12V11ZM11 13H12V12H11V13ZM10 14V13H11V14H10ZM10 16H9V15V14H10V15V16ZM13 16V17H10V16H13ZM14 15V16H13V15H14ZM14 15H15V13V12H14V13V15Z" fill="black"/>
<path id="fill" fill-rule="evenodd" clip-rule="evenodd" d="M13 12H12V13H11V14H10V16H11H12H13V15H14V12H13Z" fill="#FF00FF"/>
<path id="shadow" fill-rule="evenodd" clip-rule="evenodd" d="M13 13H12V14H11V15H12V14H13V13Z" fill="black" fill-opacity="0.25"/>
<rect id="dark-shadow" x="11" y="13" width="1" height="1" fill="black" fill-opacity="0.4"/>
<rect id="shine" x="12" y="12" width="2" height="1" fill="white" fill-opacity="0.5"/>
</g>
<g id="base-shroom">
<path id="Union" fill-rule="evenodd" clip-rule="evenodd" d="M9 19H8V20H7V21H8V22H10V23H16V22H17V21H18V20V19H17V20H16V21H10V20H9V19Z" fill="#009561"/>
<path id="Union_2" fill-rule="evenodd" clip-rule="evenodd" d="M8 19H9V20H10V21H13V22H12V23H10V22H9H8V21H7V20H8V19Z" fill="black" fill-opacity="0.2"/>
<path id="Union_3" fill-rule="evenodd" clip-rule="evenodd" d="M7 20H9V21H10V22H8V21H7V20ZM10 22H11V23H10V22Z" fill="black" fill-opacity="0.35"/>
<path id="Union_4" fill-rule="evenodd" clip-rule="evenodd" d="M8 20H7V21H8V22H9V21H8V20ZM10 22H11V23H10V22ZM16 22H15V23H16V22ZM17 21V22H16V21H17ZM17 21V20H18V21H17Z" fill="#004E30"/>
</g>
<g id="body-toad">
<path id="fill-root" fill-rule="evenodd" clip-rule="evenodd" d="M10 10H8V11H7V12H9V13H7V15H9V16V19H10V20H15V19H16V16V15H18V13H16V12H18V11H17V10H15V11H14V10H11V11H10V10Z" fill="#00A0F0"/>
<path id="hair" fill-rule="evenodd" clip-rule="evenodd" d="M10 10H8V11H7V12H9V13H7V15H9V16H10V15V13H11V14H14V13H15V15V16H16V15H18V13H16V12H18V11H17V10H15V11H14V10H11V11H10V10Z" fill="black" fill-opacity="0.4"/>
<path id="border_2" fill-rule="evenodd" clip-rule="evenodd" d="M9 9H8V10H7V11H6V12H7V13H6V15H7V16H8V19H9V20H10V21H15V20H16V19H17V16H18V15H19V13H18V12H19V11H18V10H17V9H16H15V10H14V9H13H12H11V10H10V9H9ZM10 10V11H11V10H12H13H14V11H15V10H16H17V11H18V12H16V13H18V15H16V14H15V13H14H13V14H12V13H11H10V14H9V15H7V13H9V12H7V11H8V10H9H10ZM9 15H10V14H11H12V15H13V14H14H15V15H16V16V19H15V20H10V19H9V16V15Z" fill="black"/>
<path id="static-shadow" fill-rule="evenodd" clip-rule="evenodd" d="M8 10H9H10V11H11V12H10V13V15H9H8H7V13H8H9V12H8H7V11H8V10ZM11 11V10H12H13H14V11H13H12H11ZM9 16H10H11V18V20H10V19H9V16ZM15 18H16V19H15V18ZM15 19V20H14V19H15Z" fill="black" fill-opacity="0.3"/>
<path id="static-shadow_2" fill-rule="evenodd" clip-rule="evenodd" d="M8 10H9V11H8V10ZM8 11V12H7V11H8ZM11 11H10V12H9V13H7V14H9V13H10V14H11V13H10V12H11V11ZM15 11H14V12H15V13H14V14H15V13H16V14H18V13H16V12H15V11ZM17 11H18V12H17V11ZM17 11H16V10H17V11ZM12 10H13V11H12V10ZM13 12H12V13H13V12Z" fill="black" fill-opacity="0.3"/>
<rect id="shirt" x="11" y="20" width="3" height="1" fill="#373334"/>
</g>
<g id="eyes-regular">
<path id="static-sclera" fill-rule="evenodd" clip-rule="evenodd" d="M13 17H15V18H13V17ZM10 17H12V18H10V17Z" fill="#FFD5D5"/>
<path id="static-pupils" fill-rule="evenodd" clip-rule="evenodd" d="M14 17H15V18H14V17ZM11 17H12V18H11V17Z" fill="black"/>
<path id="static-lids" fill-rule="evenodd" clip-rule="evenodd" d="M13 16H15V17H13V16ZM10 16H12V17H10V16Z" fill="black" fill-opacity="0.25"/>
</g>
<g id="mouth-smirk">
<rect id="Rectangle 188" x="11" y="19" width="3" height="1" fill="#A01C1C"/>
<rect id="Rectangle 189" x="10" y="18" width="1" height="1" fill="#A01C1C"/>
<path id="Union_5" fill-rule="evenodd" clip-rule="evenodd" d="M11 18H10V19H11V20H12V19H11V18ZM13 19H14V20H13V19Z" fill="black" fill-opacity="0.25"/>
</g>
<g id="acessory-light_saber">
<path id="Union_6" fill-rule="evenodd" clip-rule="evenodd" d="M18 19H17V20H16V21H17V20H18V19Z" fill="#578F9C"/>
<path id="Union_7" fill-rule="evenodd" clip-rule="evenodd" d="M20 14H21V15H20V14ZM20 16V15H19V16H18V17H17V18H18V19H19V18H20V17H21V16H22V15H21V16H20ZM19 17V16H20V17H19ZM19 17V18H18V17H19Z" fill="#00C9F9"/>
<path id="Union_8" fill-rule="evenodd" clip-rule="evenodd" d="M22 14H21V15H20V16H19V17H18V18H17V19H18V18H19V17H20V16H21V15H22V14Z" fill="#DDF7F9"/>
<path id="Union_9" fill-rule="evenodd" clip-rule="evenodd" d="M17 19H16V20H15V21H16V20H17V19Z" fill="#868686"/>
<path id="Union_10" fill-rule="evenodd" clip-rule="evenodd" d="M17 19H16V20H15V21H16V20H17V19Z" fill="#3D5156"/>
<path id="shine_2" fill-rule="evenodd" clip-rule="evenodd" d="M17 11H18V12H17V11ZM17 13V12H16V11H15V12H16V13H17ZM16 15V14H17V13H18V14V15H16ZM14 15H13V16H15V17V18H13V19H14V20H15V19H16V18V17V16V15H15V14H14V15ZM13 12H14V13H13V12Z" fill="#00FFFF" fill-opacity="0.44"/>
</g>
</g>
</svg>
