<svg width="24" height="24" viewBox="0 0 24 24" fill="none" xmlns="http://www.w3.org/2000/svg">
<g id="smolsweep">
<rect width="24" height="24" fill="white"/>
<g id="inside-rare">
<path id="fill-meat" fill-rule="evenodd" clip-rule="evenodd" d="M13 13H11V14H10V15H11V16H13V15H14V14H13V13Z" fill="#DB00FF"/>
<path id="static-shine" fill-rule="evenodd" clip-rule="evenodd" d="M13 13H12H11V14H12H13V13ZM13 14V15H14V14H13Z" fill="white" fill-opacity="0.59"/>
<path id="static-shadow" fill-rule="evenodd" clip-rule="evenodd" d="M11 14H10V15H11V16H13V15H11V14Z" fill="black" fill-opacity="0.17"/>
</g>
<g id="body-a1">
<path id="Union" fill-rule="evenodd" clip-rule="evenodd" d="M10 10H14V11H15V12H16V14H17V19H16V20H15V21H9V20H8V19H7V14H8V12H9V11H10V10ZM10 11V12H9V14H8V19H9V20H15V19H16V14H15V12H14V11H10Z" fill="black"/>
<path id="fill-color" fill-rule="evenodd" clip-rule="evenodd" d="M14 11H10V12H9V14H8V19H9V20H10H14H15V19H16V14H15V12H14V11Z" fill="#E6E6E6"/>
<path id="static-shadow_2" fill-rule="evenodd" clip-rule="evenodd" d="M11 11H10V12H11V11ZM10 12H9V13H10V12ZM8 14H9V15H8V14ZM9 18H8V19H9V18ZM9 19V20H10V19H9ZM15 19H14V20H15V19ZM15 19H16V18H15V19Z" fill="black" fill-opacity="0.5"/>
<path id="static-shadow-big" fill-rule="evenodd" clip-rule="evenodd" d="M11 11H13V12H12V13H11V15H10V17H11V18H12V19H14V20H12H9V19H8V15V14H9V13H10V12H11V11Z" fill="black" fill-opacity="0.29"/>
</g>
<g id="mouth-a5">
<path id="static-mouth" fill-rule="evenodd" clip-rule="evenodd" d="M9 17H10V18H12H13H14V19H13H12H10V18H9V17Z" fill="black"/>
</g>
<g id="eyes-a9">
<path id="static-sclera" fill-rule="evenodd" clip-rule="evenodd" d="M13 15H14V17H13V15ZM10 15H11V17H10V15Z" fill="white"/>
<path id="static-pupils" fill-rule="evenodd" clip-rule="evenodd" d="M14 15H15V17H14V15ZM11 15H12V17H11V15Z" fill="black"/>
<path id="static-lids" fill-rule="evenodd" clip-rule="evenodd" d="M13 15H15V16H13V15ZM10 15H12V16H10V15Z" fill="black" fill-opacity="0.15"/>
</g>
<g id="accessory-broom">
<g id="broom">
<path id="Union_2" fill-rule="evenodd" clip-rule="evenodd" d="M10 9H9V10H8V12V13H7V15H6V18H7V17H8V15V14H9V13V12H10V10V9Z" fill="#DBAA61"/>
<path id="Union_3" fill-rule="evenodd" clip-rule="evenodd" d="M5 17H6V18H7V17H8V18V19V20H9V21H8V22H6V23H4V22H2V21H3V20H4V19V18H5V17Z" fill="#9C6F2C"/>
<path id="Union_4" fill-rule="evenodd" clip-rule="evenodd" d="M8 18H7V19V20H6V21H5V22H4V23H6V22H8V21H9V20H8V19V18Z" fill="black" fill-opacity="0.28"/>
<path id="Union_5" fill-rule="evenodd" clip-rule="evenodd" d="M7 18H6V19H5V20H4H3V21H4H5V20H6V19H7V18Z" fill="#705020"/>
<path id="Union_6" fill-rule="evenodd" clip-rule="evenodd" d="M10 11H9V12H10V11ZM8 13H9V14H8V13ZM7 16H8V17H7V16Z" fill="black" fill-opacity="0.24"/>
</g>
<path id="dust" fill-rule="evenodd" clip-rule="evenodd" d="M19 17H20V18H19H18V17H19ZM21 20V19V18H20V19H19V20H18V21H17H16V20H17V19H16V18H15V19H16V20H12V21H8V22H14H17H19H20V21H21V20ZM10 19H7V20H10V19Z" fill="#D9D9D9" fill-opacity="0.65"/>
</g>
</g>
</svg>
