<svg width="100%" height="100%" id="scene" viewBox="0 0 24 24" fill="none" shape-rendering="crispEdges" image-rendering="pixelated" xmlns="http://www.w3.org/2000/svg"><g class="egg entity"><g id="yolk" class="inside">
<path d="M10 14H11V15H13V16H11V15H10V14Z" fill="#F2BC2F" class="eo"></path>
<path d="M13 13H12H11V14H12H13V13ZM13 14V15H14V14H13Z" fill="#FFE76B" class="eo"></path>
<path d="M13 14H11V15H13V14Z" fill="#FFD600"></path>
</g><g id="a1" class="body">
<path d="M10 10H14V11H15V12H16V14H17V19H16V20H15V21H9V20H8V19H7V14H8V12H9V11H10V10ZM10 11V12H9V14H8V19H9V20H15V19H16V14H15V12H14V11H10Z" fill="black" class="eo"></path>
<path d="M14 11H10V12H9V14H8V19H9V20H10H14H15V19H16V14H15V12H14V11Z" fill="#0000FF" class="fill eo"></path>
<path d="M11 11H10V12H11V11ZM10 12H9V13H10V12ZM8 14H9V15H8V14ZM9 18H8V19H9V18ZM9 19V20H10V19H9ZM15 19H14V20H15V19ZM15 19H16V18H15V19Z" fill="black" fill-opacity="0.5" class="eo"></path>
<path d="M11 11H13V12H12V13H11V15H10V17H11V18H12V19H14V20H12H9V19H8V15V14H9V13H10V12H11V11Z" fill="black" fill-opacity="0.29" class="eo"></path>
</g><g id="a2" class="body">
<path d="M10 10H14V11H15V12H16V14H17V19H16V20H15V21H9V20H8V19H7V14H8V12H9V11H10V10ZM10 11V12H9V14H8V19H9V20H15V19H16V14H15V12H14V11H10Z" fill="black" class="eo"></path>
<path d="M11 11H13V12H12V13H11V15H10V17H11V18H12V19H14V20H12H9V19H8V15V14H9V13H10V12H11V11Z" fill="black" fill-opacity="0.29" class="eo"></path>
<path d="M13 11H14V12H15V14H16V16H15V15H14V14H13V13H12V12H10V11H12H13Z" fill="white" fill-opacity="0.78" class="eo"></path>
</g><g id="a3" class="body">
<path d="M10 10H14V11H15V12H16V14H17V19H16V20H15V21H9V20H8V19H7V14H8V12H9V11H10V10ZM10 11V12H9V14H8V19H9V20H15V19H16V14H15V12H14V11H10Z" fill="black" class="eo"></path>
<path d="M14 11H13V20H14V11Z" fill="#FFFF00"></path>
<path d="M13 11H12V20H13V11Z" fill="#88FF00"></path>
<path d="M12 11H11V20H12V11Z" fill="#00FF88"></path>
<path d="M11 11H10V20H11V11Z" fill="#00FFFF"></path>
<path d="M10 12H9V20H10V12Z" fill="#0088FF"></path>
<path d="M9 14H8V19H9V14Z" fill="#0000FF"></path>
<path d="M16 14H15V19H16V14Z" fill="#FF0000"></path>
<path d="M15 12H14V20H15V12Z" fill="#FF8800"></path>
<path d="M11 11H10V12H11V11ZM10 12H9V13H10V12ZM8 14H9V15H8V14ZM9 18H8V19H9V18ZM9 19V20H10V19H9ZM15 19H14V20H15V19ZM15 19H16V18H15V19Z" fill="black" fill-opacity="0.5" class="eo"></path>
<path d="M11 11H13V12H12V13H11V15H10V17H11V18H12V19H14V20H12H9V19H8V15V14H9V13H10V12H11V11Z" fill="black" fill-opacity="0.29" class="eo"></path>
<path d="M13 11H14V12H15V14H16V16H15V15H14V14H13V13H12V12H10V11H12H13Z" fill="white" fill-opacity="0.78" class="eo"></path>
</g><g id="a4" class="body">
<path d="M10 10H14V11H15V12H16V14H17V19H16V20H15V21H9V20H8V19H7V14H8V12H9V11H10V10ZM10 11V12H9V14H8V19H9V20H15V19H16V14H15V12H14V11H10Z" fill="black" class="eo"></path>
<path d="M14 11H10V12H9V14H8V19H9V20H10H14H15V19H16V14H15V12H14V11Z" fill="#1C712F" class="eo"></path>
<path d="M12 11H13V12H12V11ZM10 11H11V12H10V11ZM15 13H14V14H15V13ZM12 13H13V14H12V13ZM11 13H10V14H11V13ZM8 15H9V16H8V15ZM11 15H10V16H11V15ZM12 15H13V16H12V15ZM15 15H14V16H15V15ZM14 17H15V18H14V17ZM11 17H10V18H11V17ZM10 19H11V20H10V19Z" fill="#00FF00" class="eo"></path>
<path d="M11 11H13V12H12V13H11V15H10V17H11V18H12V19H14V20H12H9V19H8V15V14H9V13H10V12H11V11Z" fill="#03A360" fill-opacity="0.36" class="eo"></path>
<path d="M13 11H14V12H15V14H16V16H15V15H14V14H13V13H12V12H10V11H12H13Z" fill="#00FF38" fill-opacity="0.4" class="eo"></path>
<path d="M11 11H10V12H11V11ZM10 12H9V13H10V12ZM8 14H9V15H8V14ZM9 18H8V19H9V18ZM9 19V20H10V19H9ZM15 19H14V20H15V19ZM15 19H16V18H15V19Z" fill="black" fill-opacity="0.5" class="eo"></path>
</g><path id="a5" d="M9 17H10V18H14V19H10V18H9V17Z" fill="black" class="mouth eo"></path><path id="a6" d="M13 18H12V19H13V18Z" fill="black" class="mouth"></path><path id="a7" d="M14 18H11V20H14V18Z" fill="black" class="mouth"></path><g id="a8" class="hat">
<path d="M11 10H9V11H8V12H7V14H10H18V13H16V12V11H15V10H11Z" fill="#686868" class="fill eo"></path>
<path d="M18 13H10V14H18V13Z" fill="white" fill-opacity="0.4"></path>
<path d="M9 10H11V11H10V12V14H7V12H8V11H9V10Z" fill="black" fill-opacity="0.19" class="eo"></path>
</g><g id="a9" class="eyes">
<path d="M13 15H14V17H13V15ZM10 15H11V17H10V15Z" fill="white" class="eo"></path>
<path d="M14 15H15V17H14V15ZM11 15H12V17H11V15Z" fill="black" class="eo"></path>
<path d="M13 15H15V16H13V15ZM10 15H12V16H10V15Z" fill="black" fill-opacity="0.15" class="eo"></path>
</g><g id="a10" class="eyes">
<path d="M13 16H14V17H13V16ZM10 16H11V17H10V16Z" fill="#FF0000" class="eo"></path>
<path d="M14 16H15V17H14V16ZM11 16H12V17H11V16Z" fill="black" class="eo"></path>
</g><path id="a11" d="M15 15H13H12H10V17H12V16H13V17H15V15Z" fill="black" class="glasses eo"></path><g id="a12" class="accessory">
<path d="M19 16H18V17H17V18V19H16V20H8V19H7V20V21H8V22H10V23H14V22H16V21H17V20H18V19H19V18V17V16Z" fill="#FF00FF" class="fill eo"></path>
<path d="M20 18H19V19H20V18Z" fill="black"></path>
<path d="M18 17H19V18H18V17ZM9 20H15V21H9V20Z" fill="white" fill-opacity="0.5" class="eo"></path>
<path d="M17 20H16V21H17V20ZM14 22V21H16V22H14ZM10 22V23H14V22H10ZM8 21V22H10V21H8ZM8 21H7V20H8V21Z" fill="black" fill-opacity="0.36" class="eo"></path>
</g><g id="a13" class="accessory">
<path d="M17 18H13V19H17V18Z" fill="#F0F0F0"></path>
<path d="M17 18H16V19H17V18Z" fill="#FFA800"></path>
<path d="M18 12H19V16H18V12ZM17 17H18V18H17V17Z" fill="#C4C4C4" fill-opacity="0.5" class="eo"></path>
</g><g id="a14" class="accessory">
<path d="M8 16H7V17H8V16Z" fill="#F2BC2F" class="fill"></path>
<path d="M7 15H8V16H9V17H8V18H7V17H6V16H7V15ZM7 16V17H8V16H7Z" fill="black" class="eo"></path>
</g><g id="a15" class="accessory">
<path d="M9 16H8V17H9V16ZM9 20H10V18V17H9V18V20ZM6 20V21H9V20H6ZM6 18V20H5V18V17H6V16H7V17H6V18Z" fill="#3E62FE" class="eo"></path>
<path d="M8 15H7V17H6V20H7H8H9V17H8V15Z" fill="#113EFF" class="eo"></path>
<path d="M9 17H6V18H9V17Z" fill="#FB512A"></path>
<path d="M10 18H9V19H10V18ZM6 19V20H9V19H6ZM6 19H5V18H6V19Z" fill="#F1FF0E" class="eo"></path>
<path d="M8 17H9V18H8V17ZM6 17H7V18H6V17ZM9 19H8V20H9V19ZM6 19H7V20H6V19Z" fill="black" fill-opacity="0.18" class="eo"></path>
<path d="M7 15H8V16H7V15ZM9 17H10V20H9V21H6V20H5V17H6V20H9V17Z" fill="black" fill-opacity="0.35" class="eo"></path>
</g><g id="a16" class="accessory">
<path d="M11 19H8V20H7V22V23H8V24H10H12H14H15H17V23H18V20H17H16H15V19H14V20H12H11V19Z" fill="white" class="eo"></path>
<path d="M15 19H14V20H15V19ZM17 21H16V20H15V21V22H17V21ZM17 21H18V20H17V21ZM10 19H11V20H10V19ZM10 22V23H12V22V21H11V22H10ZM12 21H13V20H12V21ZM8 23H9V24H8V23ZM8 21H7V22H8V21ZM14 24V23H16V24H14Z" fill="black" fill-opacity="0.11" class="eo"></path>
<path d="M15 20H14V21H15V20ZM8 21H9V22H8V23H11V24H8V23H7V22H8V21ZM14 23H12V24H14V23ZM17 21H18V22H17V21ZM15 22H16V23H15V22Z" fill="black" fill-opacity="0.3" class="eo"></path>
</g><g id="a17" class="accessory">
<path d="M18 19H15V20H18V19Z" fill="#FFE794"></path>
<path d="M18 19H22V20H21V21H18V20V19Z" fill="#EDEDED" class="eo"></path>
<path d="M21 20H18V21H21V20Z" fill="black" fill-opacity="0.13"></path>
<path d="M21 20H20V21H21V20Z" fill="white" fill-opacity="0.38"></path>
</g><g id="a18" class="accessory">
<path d="M19 15H18V21H19V15Z" fill="white"></path>
<path d="M20 10H17V11H16V14H17V15H20V14H21V11H20V10Z" fill="#FF0000" class="fill eo"></path>
<path d="M20 11H17V12H20V11Z" fill="white" fill-opacity="0.58"></path>
<path d="M17 12H18V13H19V14H18H17V12Z" fill="white" fill-opacity="0.39" class="eo"></path>
<path d="M17 10H18V11H17V12H16V11H17V10ZM17 13H16V14H17V13ZM18 15H17V14H18V15ZM19 15V16H18V15H19ZM20 14H19V15H20V14ZM20 14H21V13H20V14ZM21 11H20V12H21V11ZM20 11V10H19V11H20Z" fill="black" fill-opacity="0.15" class="eo"></path>
</g><g id="a19" class="accessory">
<path d="M10 17H9V18H10V17ZM8 20H7V21H8V20Z" fill="#FFC107" class="eo"></path>
<path d="M8 16H9V17H8V16Z" fill="#F44336" class="fill"></path>
<path d="M5 17H6V18H5V17ZM8 18H7H6V19V20H9V19V18V17H8V18Z" fill="white" class="eo"></path>
<path d="M6 17H5V18H6V19H8V18H6V17Z" fill="black" fill-opacity="0.06" class="eo"></path>
</g><g id="a20" class="accessory">
<path d="M10 18V21H8V18H10Z" fill="#FF0000"></path>
<path d="M5 19H8V21H5V19Z" fill="#00FFFF"></path>
<path d="M8 18H9V21H8H5V20H8V18Z" fill="black" fill-opacity="0.28" class="eo"></path>
<path d="M9 18H10V19H9V18ZM5 19H6V20H5V19Z" fill="white" fill-opacity="0.71" class="eo"></path>
</g><g id="a21" class="accessory">
<path d="M16 18H15V19H14V20V21H15H16V20H17V19H16V18Z" fill="#EDC715" class="eo"></path>
<path d="M19 12H18V13V14V15H17V17H16V18V19H17H18V18H19V17H20V16H21V14H20V13H19V12Z" fill="#3F7DA4" class="eo"></path>
<path d="M21 14H20V16H21V14ZM19 17H20V16H19V17ZM18 18H19V17H18V18ZM18 18H17V19H18V18ZM15 19H16V20H15V19Z" fill="black" fill-opacity="0.23" class="eo"></path>
<path d="M19 12H18V13H19V12ZM19 13V14H20V13H19ZM15 18H16V19H17V20H16V19H15V20H14V19H15V18Z" fill="white" fill-opacity="0.38" class="eo"></path>
</g><g id="placeholder" class="visible placeholder">
<path d="M10 10H14V11H15V12H16V14H17V19H16V20H15V21H9V20H8V19H7V14H8V12H9V11H10V10Z" fill="black" class="eo"></path>
<path d="M13 13H11V14H10V15H9V17H10V18H11V19H13V18H14V17H15V15H14V14H13V13ZM13 15V14H11V15H10V17H11V18H13V17H14V15H13ZM12 16V15H13V16H12ZM12 16H11V17H12V16Z" fill="#6D6D6D" class="eo"></path>
</g></g><style id="user-style"></style><style><![CDATA[
  #scene:active { transform: scaleX(-1); }
  .eo { fill-rule: evenodd; clip-rule: evenodd; }
  :root > .entity > [id^=a] { display: none; }
  .visible { display: initial; }
  ]]></style><script type="application/json" id="meta"><![CDATA[{"customizerId":"egg","attributeMeta":{"valueMask":"traitValues-traitFills"},"colors":[{"id":1,"value":"#FF0000","name":"red"},{"id":2,"value":"#FF8800","name":"orange"},{"id":3,"value":"#FFFF00","name":"yellow"},{"id":4,"value":"#00FF00","name":"green"},{"id":5,"value":"#00FFFF","name":"cyan"},{"id":6,"value":"#FF00FF","name":"magenta"},{"id":7,"value":"#0000FF","name":"blue"},{"id":8,"value":"#F9E8CF","name":"creme"},{"id":9,"value":"#CEAB97","name":"dark-creme"},{"id":10,"value":"#D1D1D1","name":"gray"},{"id":11,"value":"#393939","name":"dark-gray"}],"categories":[{"id":1,"displayName":"Body","renderOrder":1},{"id":2,"displayName":"Mouth","renderOrder":2,"removable":true},{"id":3,"displayName":"Hat","renderOrder":3,"removable":true},{"id":4,"displayName":"Eyes","renderOrder":4},{"id":5,"displayName":"Glasses","renderOrder":5,"removable":true},{"id":6,"displayName":"Accessory","renderOrder":6,"removable":true}],"assets":[{"id":1,"categoryId":1,"displayName":"Regular","fill":true},{"id":2,"categoryId":1,"displayName":"Transparent"},{"id":3,"categoryId":1,"displayName":"Rainbow"},{"id":4,"categoryId":1,"displayName":"EGGTRIX"},{"id":5,"categoryId":2,"displayName":"Smile"},{"id":6,"categoryId":2,"displayName":"OOO"},{"id":7,"categoryId":2,"displayName":"EGG"},{"id":8,"categoryId":3,"displayName":"Cap","fill":true},{"id":9,"categoryId":4,"displayName":"Regular"},{"id":10,"categoryId":4,"displayName":"High AF"},{"id":11,"categoryId":5,"displayName":"Sunglasses"},{"id":12,"categoryId":6,"displayName":"Bathing Ring","fill":true},{"id":13,"categoryId":6,"displayName":"Cigarette"},{"id":14,"categoryId":6,"displayName":"Earring","fill":true},{"id":15,"categoryId":6,"displayName":"Easter EGG"},{"id":16,"categoryId":6,"displayName":"Jindujun"},{"id":17,"categoryId":6,"displayName":"Knife"},{"id":18,"categoryId":6,"displayName":"Lollipop","fill":true},{"id":19,"categoryId":6,"displayName":"Chikin","fill":true},{"id":20,"categoryId":6,"displayName":"Pills"},{"id":21,"categoryId":6,"displayName":"Rune Scimitar"}]}]]></script><script type="application/javascript"><![CDATA[const fillValues=["","#FF0000","#FF8800","#FFFF00","#00FF00","#00FFFF","#FF00FF","#0000FF","#F9E8CF","#CEAB97","#D1D1D1","#393939"],getParams=a=>""==a?null:a.slice(1).split("&").map(a=>a.split("=")).map(([a,b])=>[a,+b]),hideElem=a=>a.style.display="none",showElem=a=>a.style.display="initial",showAttribute=(a,b,c=!0)=>{const d=document.querySelector(":root > .entity > #a"+a);if(null!=d&&(c?showElem(d):hideElem(d),null!=b)){const a=d.querySelectorAll(".fill");for(const c of a)c.style.fill=fillValues[b]}},hideCategory=a=>{const b=[...document.getElementsByClassName(a)];b.forEach(hideElem)},renderAttribute=(a,b)=>{if(showElem(a),null!=b){const c=a.querySelectorAll(".fill");for(const a of c)a.style.fill=fillValues[b]}},setAttributes=a=>{const b=document.querySelectorAll(":root > .entity > [id^=a]");try{const c=a&&0<a?.length;if(showPlaceholder(!c),!c)return;for(const c of b){const b=c.id.slice(1),d=a.find(([a,c])=>a==b);d?.[0]==b?renderAttribute(c,d[1]):hideElem(c)}}catch(a){b.forEach(hideElem),showPlaceholder(!0)}},addStyle=(()=>{const a=document.querySelector("#user-style"),b=document.createCDATASection("");return a.appendChild(b),document.documentElement.appendChild(a),a=>b.textContent=a})(),parseJSON=a=>{try{return JSON.parse(a)}catch(a){return null}},registerCrossFrameListener=()=>{window&&window.parent&&(window.parent.postMessage({action:"LOADED"},"*"),window.addEventListener("message",function(a){const b=a.data;switch(b.action){case"SET_CSS":return addStyle(b.payload);case"SET_ATTRS":return setAttributes(b.payload);case"SHOW_ATTR":const c=b.payload;return showAttribute(c.attrId,c.fillId,c.show);case"RESET_ATTRS":return loadQueryAttrs();case"GET_META":return a.source.postMessage({from:"",action:"META",values:JSON.parse(document.querySelector("#meta").textContent)},"*");case"GET_HTML":return a.source.postMessage({from:"",action:"HTML",values:document.documentElement.outerHTML},"*");default:console.log("unsupported.",b.action);}},!1))},loadQueryAttrs=()=>{const a=document?.location?.search,b=getParams(a);setAttributes(b)},showPlaceholder=a=>{const b=document.querySelectorAll(".placeholder");b.forEach(b=>b.style.display=a?"initial":"none")};function inIframe(){try{return window.self!==window.top}catch(a){return!0}}const run=()=>{loadQueryAttrs(),inIframe()&&registerCrossFrameListener()};run();]]></script></svg>