<svg width="24" height="24" viewBox="0 0 24 24" fill="none" xmlns="http://www.w3.org/2000/svg">
<g id="yolkstools">
<g id="border">
<path id="Union" fill-rule="evenodd" clip-rule="evenodd" d="M10 10H14V11H15V12H16V14H17V19H16V20H15V21H9V20H8V19H7V14H8V12H9V11H10V10ZM10 11V12H9V14H8V19H9V20H15V19H16V14H15V12H14V11H10Z" fill="black"/>
</g>
<g id="inside-rare">
<path id="fill-meat" fill-rule="evenodd" clip-rule="evenodd" d="M13 13H11V14H10V15H11V16H13V15H14V14H13V13Z" fill="#DB00FF"/>
<path id="static-shine" fill-rule="evenodd" clip-rule="evenodd" d="M13 13H12H11V14H12H13V13ZM13 14V15H14V14H13Z" fill="white" fill-opacity="0.59"/>
<path id="static-shadow" fill-rule="evenodd" clip-rule="evenodd" d="M11 14H10V15H11V16H13V15H11V14Z" fill="black" fill-opacity="0.17"/>
</g>
<g id="body-toad">
<path id="fill-color" fill-rule="evenodd" clip-rule="evenodd" d="M14 11H10V12H9V14H8V19H9V20H10H14H15V19H16V14H15V12H14V11Z" fill="#57A201"/>
<path id="static-shadow_2" fill-rule="evenodd" clip-rule="evenodd" d="M11 11H10V12H11V11ZM10 12H9V13H10V12ZM8 14H9V15H8V14Z" fill="black" fill-opacity="0.5"/>
<path id="static-shadow-big" fill-rule="evenodd" clip-rule="evenodd" d="M11 11H14V12H15V13H13V14H11V13H10V12H11V11ZM10 19V18H12V19H10ZM9 19V20H10V19H9ZM9 19H8V15H9V19Z" fill="black" fill-opacity="0.29"/>
<path id="Rectangle 2650" d="M13 20H11V21H13V20Z" fill="#8FCD2C"/>
</g>
<g id="mouth-a5">
<path id="static-mouth" fill-rule="evenodd" clip-rule="evenodd" d="M9 17H10V18H12H13H14V19H13H12H10V18H9V17Z" fill="black"/>
</g>
<g id="eyes-a9">
<path id="static-sclera" fill-rule="evenodd" clip-rule="evenodd" d="M13 15H14V17H13V15ZM10 15H11V17H10V15Z" fill="white"/>
<path id="static-pupils" fill-rule="evenodd" clip-rule="evenodd" d="M14 15H15V17H14V15ZM11 15H12V17H11V15Z" fill="black"/>
<path id="static-lids" fill-rule="evenodd" clip-rule="evenodd" d="M13 15H15V16H13V15ZM10 15H12V16H10V15Z" fill="black" fill-opacity="0.15"/>
</g>
<g id="base-shroom">
<path id="Union_2" fill-rule="evenodd" clip-rule="evenodd" d="M8 19H7V20H6V21H7V22H9V23H15V22H17V21H18V20H17V19H16V20H15V21H9V20H8V19Z" fill="#FF2929"/>
<path id="Union_3" fill-rule="evenodd" clip-rule="evenodd" d="M16 20H15V21H16V20ZM14 22H13V23H14V22ZM8 21H9V22H8V21Z" fill="white"/>
<path id="Union_4" fill-rule="evenodd" clip-rule="evenodd" d="M7 19H8V20H9V21H12V22H11V23H9V22H8H7V21H6V20H7V19Z" fill="black" fill-opacity="0.2"/>
<path id="Union_5" fill-rule="evenodd" clip-rule="evenodd" d="M6 20H8V21H9V22H7V21H6V20ZM9 22H10V23H9V22Z" fill="black" fill-opacity="0.35"/>
</g>
</g>
</svg>
