<svg width="100%" height="100%" viewBox="0 0 24 24" fill="none" xmlns="http://www.w3.org/2000/svg" id="egg" shape-rendering="crispEdges">
  <g class="border">
    <path fill-rule="evenodd" clip-rule="evenodd" d="M14 10H10V11H9V12H8V14H7V19H8V20H9V21H15V20H16V19H17V14H16V12H15V11H14V10ZM14 11V12H15V14H16V19H15V20H9V19H8V14H9V12H10V11H14Z" fill="black"/>
  </g>
  <g id="rare" class="inside">
    <path fill-rule="evenodd" clip-rule="evenodd" d="M11 13H13V14H14V15H13V16H11V15H10V14H11V13Z" fill="#DB00FF"/>
    <path fill-rule="evenodd" clip-rule="evenodd" d="M11 13H12H13V14H12H11V13ZM11 14V15H9.99999V14H11Z" fill="white" fill-opacity="0.59"/>
    <path fill-rule="evenodd" clip-rule="evenodd" d="M13 14H14V15H13V16H11V15H13V14Z" fill="black" fill-opacity="0.17"/>
  </g>
  <g id="a1" class="body">
    <path fill-rule="evenodd" clip-rule="evenodd" d="M10 11H14V12H15V14H16V19H15V20H14H10H9V19H8V14H9V12H10V11Z" fill="#414141"/>
    <path fill-rule="evenodd" clip-rule="evenodd" d="M13 11H14V12H13V11ZM14 12H15V13H14V12ZM16 14H15V15H16V14ZM15 18H16V19H15V18ZM15 19V20H14V19H15ZM9 19H10V20H9V19ZM9 19H8V18H9V19Z" fill="black" fill-opacity="0.5"/>
    <path fill-rule="evenodd" clip-rule="evenodd" d="M13 11H11V12H12V13H13V15H14V17H13V18H12V19H10V20H12H15V19H16V15V14H15V13H14V12H13V11Z" fill="black" fill-opacity="0.29"/>
  </g>
  <g id="a5" class="mouth">
    <path fill-rule="evenodd" clip-rule="evenodd" d="M15 17H14V18H12H11H10V19H11H12H14V18H15V17Z" fill="black"/>
  </g>
  <g id="numeraire" class="eyes">
    <g>
      <path fill-rule="evenodd" clip-rule="evenodd" d="M11 15H10V17H11V15ZM14 15H13V17H14V15Z" fill="#9A9A9A"/>
      <path fill-rule="evenodd" clip-rule="evenodd" d="M10 15H9V17H10V15ZM13 15H12V17H13V15Z" fill="black"/>
      <path fill-rule="evenodd" clip-rule="evenodd" d="M11 15H9V16H11V15ZM14 15H12V16H14V15Z" fill="black" fill-opacity="0.15"/>
    </g>
    <g>
      <path fill-rule="evenodd" clip-rule="evenodd" d="M11 13H10V14H11V13ZM14 13H13V14H14V13Z" fill="#9A9A9A"/>
      <path fill-rule="evenodd" clip-rule="evenodd" d="M10 13H9V14H10V13ZM13 13H12V14H13V13Z" fill="black"/>
    </g>
    <g>
      <path d="M11 11H12V12H11V11Z" fill="#9A9A9A"/>
      <path fill-rule="evenodd" clip-rule="evenodd" d="M11 11H10V12H11V11ZM14 11H13V12H14V11Z" fill="black"/>
    </g>
  </g>
  <g id="earpiece" class="accessory">
    <path fill-rule="evenodd" clip-rule="evenodd" d="M15 11H16V12H15V11ZM15 11H14V10H15V11ZM16 14H17V15V16H16V17H15V16V15H16V14Z" fill="#C4C4C4"/>
    <path fill-rule="evenodd" clip-rule="evenodd" d="M14 10H15V11H14V10ZM15 15H16V16H15V15Z" fill="black" fill-opacity="0.25"/>
  </g>
  <g id="drip" class="face">
    <path fill-rule="evenodd" clip-rule="evenodd" d="M14 12H15V13H14V12ZM15 14H14V15H15V14ZM10 14H9V15H10V14ZM13 17H14V18H15V19H14V18H13V17Z" fill="white" fill-opacity="0.25"/>
    <path fill-rule="evenodd" clip-rule="evenodd" d="M9 11H8V12H9V11ZM8 12H7V13V14H8V13V12ZM9 19H8H7V20V21H8V20H9V19ZM16 19H17V20H16V21V22H15V21V20H16V19Z" fill="#202020" fill-opacity="0.5"/>
    <path fill-rule="evenodd" clip-rule="evenodd" d="M7 13H8V14H7V13ZM8 20H7V21H8V20ZM16 21H15V22H16V21Z" fill="white" fill-opacity="0.25"/>
  </g>
  <style>
    <![CDATA[
      #egg:active{transform:scaleX(-1);}
    ]]>
  </style>
</svg>
