<svg width="24" height="24" viewBox="0 0 24 24" fill="none" xmlns="http://www.w3.org/2000/svg">
<g id="captain-santa">
<rect width="24" height="24" fill="#7F1416"/>
<g id="inside-rare">
<path id="fill-meat" fill-rule="evenodd" clip-rule="evenodd" d="M13 13H11V14H10V15H11V16H13V15H14V14H13V13Z" fill="#DB00FF"/>
<path id="static-shine" fill-rule="evenodd" clip-rule="evenodd" d="M13 13H12H11V14H12H13V13ZM13 14V15H14V14H13Z" fill="white" fill-opacity="0.59"/>
<path id="static-shadow" fill-rule="evenodd" clip-rule="evenodd" d="M11 14H10V15H11V16H13V15H11V14Z" fill="black" fill-opacity="0.17"/>
</g>
<g id="body-a1">
<path id="Union" fill-rule="evenodd" clip-rule="evenodd" d="M10 10H14V11H15V12H16V14H17V19H16V20H15V21H9V20H8V19H7V14H8V12H9V11H10V10ZM10 11V12H9V14H8V19H9V20H15V19H16V14H15V12H14V11H10Z" fill="black"/>
<path id="fill-color" fill-rule="evenodd" clip-rule="evenodd" d="M14 11H10V12H9V14H8V19H9V20H10H14H15V19H16V14H15V12H14V11Z" fill="#F9E8CF"/>
<path id="static-shadow_2" fill-rule="evenodd" clip-rule="evenodd" d="M11 11H10V12H11V11ZM10 12H9V13H10V12ZM8 14H9V15H8V14ZM9 18H8V19H9V18ZM9 19V20H10V19H9ZM15 19H14V20H15V19ZM15 19H16V18H15V19Z" fill="black" fill-opacity="0.5"/>
<path id="static-shadow-big" fill-rule="evenodd" clip-rule="evenodd" d="M11 11H13V12H12V13H11V15H10V17H11V18H12V19H14V20H12H9V19H8V15V14H9V13H10V12H11V11Z" fill="black" fill-opacity="0.29"/>
</g>
<g id="mouth-flat">
<path id="static-mouth" d="M14 18H11V19H14V18Z" fill="#C73D30"/>
</g>
<g id="eyes-a9">
<path id="static-sclera" fill-rule="evenodd" clip-rule="evenodd" d="M13 15H14V17H13V15ZM10 15H11V17H10V15Z" fill="white"/>
<path id="static-pupils" fill-rule="evenodd" clip-rule="evenodd" d="M14 15H15V17H14V15ZM11 15H12V17H11V15Z" fill="black"/>
<path id="static-lids" fill-rule="evenodd" clip-rule="evenodd" d="M13 15H15V16H13V15ZM10 15H12V16H10V15Z" fill="black" fill-opacity="0.15"/>
</g>
<g id="clothes-santa_suit">
<path id="Union_2" fill-rule="evenodd" clip-rule="evenodd" d="M7 18H8H9V19H10V20H15V19H16V20V21H8V20H7V18Z" fill="#C14236"/>
<path id="Union_3" fill-rule="evenodd" clip-rule="evenodd" d="M7 18H8V19H7V18ZM9 19H8V20H9H10V19H9Z" fill="white" fill-opacity="0.1"/>
<path id="shadows" fill-rule="evenodd" clip-rule="evenodd" d="M9 18H8H7V19V20H8V21H9V20H10V21H11V20H10V19H9V18ZM8 19H9V20H8V19ZM15 19H16V20H15V19Z" fill="black" fill-opacity="0.6"/>
<rect id="Rectangle 4967" x="14" y="20" width="2" height="1" fill="black" fill-opacity="0.25"/>
</g>
<g id="beard-long">
<path id="Union_4" fill-rule="evenodd" clip-rule="evenodd" d="M8 16H9V17H8V16ZM15 17H13H11H9V18H8V19V20H9V21V22H10H11V21H13V20H15V19H16V18H15V17ZM15 17V16H16V17H15ZM11 19H14V18H13H11V19Z" fill="#EEEFF1"/>
<path id="Union_5" fill-rule="evenodd" clip-rule="evenodd" d="M11 18H10V19H11V20H12H13H14V19H13H12H11V18ZM9 19H8V20H9V21V22H10V21V20H9V19Z" fill="#D3D3D3"/>
</g>
<g id="accessory-eye_patch">
<path id="Union_6" fill-rule="evenodd" clip-rule="evenodd" d="M13 13H15V14H13V13ZM12 15V14H13V15H12ZM9 15H10H12V17H10V16H9V15ZM9 15H8V14H9V15ZM15 14V15H16V14H15Z" fill="black"/>
</g>
<g id="accessory-hook">
<g id="accessory-claw">
<g id="Group 199">
<path id="Union_7" fill-rule="evenodd" clip-rule="evenodd" d="M19 16H18V17H17V18H18V19V20H17V19H16V20H17V21H18V20H19V19V18H18V17H19V16ZM20 19V18V17H21V18V19H20Z" fill="#D9D9D9"/>
<path id="Union_8" fill-rule="evenodd" clip-rule="evenodd" d="M20 16H19V17H20V16ZM21 18H20V19V20H21V19V18ZM17 20H18V21H17V20Z" fill="white"/>
</g>
<rect id="Rectangle 4421" x="16" y="19" width="1" height="1" fill="black" fill-opacity="0.5"/>
<rect id="Rectangle 4423" x="17" y="20" width="1" height="1" fill="black" fill-opacity="0.5"/>
<path id="Union_9" fill-rule="evenodd" clip-rule="evenodd" d="M18 17H19H20V18H19H18V17ZM20 18V19H21V18H20ZM18 19H19V20H18H17V19H18Z" fill="#545454"/>
</g>
<path id="Union_10" fill-rule="evenodd" clip-rule="evenodd" d="M16 19H17H18V20V21H17V20H16V19Z" fill="#EEEFF1"/>
<path id="Union_11" fill-rule="evenodd" clip-rule="evenodd" d="M18 19H17V20H16V21H17V20H18V19Z" fill="#D3D3D3"/>
</g>
<g id="hair-long">
<path id="Union_12" fill-rule="evenodd" clip-rule="evenodd" d="M15 12H13V13H12V14H13V13H14V14H15V15H16V14H15V13V12Z" fill="#EEEFF1"/>
<path id="Union_13" fill-rule="evenodd" clip-rule="evenodd" d="M14 13H13V14H14V15H15V14H14V13Z" fill="#A6A6A6"/>
</g>
<g id="hat-santa_hat">
<path id="Union_14" fill-rule="evenodd" clip-rule="evenodd" d="M15 11H12V12H8V13H7V14H8V15H10V14H12V13H13V12H15V13V14H16V13V12H15V11Z" fill="white"/>
<path id="Union_15" fill-rule="evenodd" clip-rule="evenodd" d="M8 9H13V10H14V11H13V12H8V13H7V14H8V15V16H7V17V18V19H6V18V17H5V13V12H6V11V10H8V9Z" fill="#B43830"/>
<path id="Union_16" fill-rule="evenodd" clip-rule="evenodd" d="M6 17H5V18H4V19V20H5H6V19V18V17Z" fill="white"/>
<path id="Union_17" fill-rule="evenodd" clip-rule="evenodd" d="M10 9H8V10H6V11V12H5V13V14V16V17V19H6H7V17V16H8V14H7V13H8V12V11H9V10H10V9Z" fill="black" fill-opacity="0.21"/>
<path id="Union_18" fill-rule="evenodd" clip-rule="evenodd" d="M12 13H11H10V14H9V15H10V14H11H12H13V13H12Z" fill="black" fill-opacity="0.22"/>
</g>
</g>
</svg>
