<svg width="24" height="24" viewBox="0 0 24 24" fill="none" xmlns="http://www.w3.org/2000/svg">
<g id="Group 125">
<rect width="24" height="24" fill="#E98FBD"/>
<g id="inside-rare">
<path id="border" fill-rule="evenodd" clip-rule="evenodd" d="M12 14H13V15H12H11V14H12ZM10 16V15H11V16H10ZM10 18H9V16H10V18ZM14 18V19H13H11H10V18H11H13H14ZM14 16H15V18H14V16ZM14 16V15H13V16H14Z" fill="black"/>
<path id="fill" fill-rule="evenodd" clip-rule="evenodd" d="M11 15H12H13V16H14V18H13H10V17V16H11V15Z" fill="#FF00FF"/>
<path id="shadow" fill-rule="evenodd" clip-rule="evenodd" d="M13 16H14V17V18H13H12V17H13V16Z" fill="black" fill-opacity="0.25"/>
<path id="shine" fill-rule="evenodd" clip-rule="evenodd" d="M12 15H11V16H10V17H11V16H12V15Z" fill="white" fill-opacity="0.6"/>
</g>
<g id="body-furby">
<g id="border_2">
<path id="static-border" fill-rule="evenodd" clip-rule="evenodd" d="M14 12H10V13H14V12ZM9 13H8V14H7V20H8V21H16V20H17V14H16V13H15V14H16V20H8V14H9V13Z" fill="black"/>
</g>
<g id="body">
<path id="fill-body" fill-rule="evenodd" clip-rule="evenodd" d="M9 13H15V14H16V20H15H9H8V14H9V13Z" fill="#D9D9D9"/>
<path id="dots" fill-rule="evenodd" clip-rule="evenodd" d="M11 13H10V14H11V13ZM16 14H15V15H16V14ZM9 16H8V17H9V16ZM8 19H9V20H8V19Z" fill="black" fill-opacity="0.35"/>
<path id="stomach" fill-rule="evenodd" clip-rule="evenodd" d="M14 18H10V19V20H16V19H14V18Z" fill="white"/>
<path id="Union" fill-rule="evenodd" clip-rule="evenodd" d="M9 13H10H12V14H10V15H9V18H10V19H11V20H10H9H8V14H9V13Z" fill="black" fill-opacity="0.15"/>
</g>
<g id="static-feet">
<path id="feet" fill-rule="evenodd" clip-rule="evenodd" d="M11 21H9V22H11V21ZM15 21H13V22H15V21Z" fill="#F2CD60"/>
<path id="shadows" fill-rule="evenodd" clip-rule="evenodd" d="M11 21H10V22H11V21ZM15 21H14V22H15V21Z" fill="black" fill-opacity="0.15"/>
</g>
<g id="beak">
<path id="static-beak" fill-rule="evenodd" clip-rule="evenodd" d="M15 18H12V19V20H14V19H15V18Z" fill="#F2CD60"/>
<rect id="static-shadow" x="12" y="19" width="2" height="1" fill="black" fill-opacity="0.15"/>
<g id="static-shine" style="mix-blend-mode:overlay">
<rect x="12" y="18" width="3" height="1" fill="white" fill-opacity="0.2"/>
</g>
<g id="Rectangle 1239" style="mix-blend-mode:overlay">
<rect x="12" y="18" width="3" height="1" fill="white" fill-opacity="0.2"/>
</g>
</g>
<g id="ears">
<path id="Union_2" fill-rule="evenodd" clip-rule="evenodd" d="M9 9H8V10H7V11V12H8V13H9V12H8V11V10H9V11H10V12H11V11H10V10H9V9Z" fill="black"/>
<path id="Union_3" fill-rule="evenodd" clip-rule="evenodd" d="M15 9H16V10H15V9ZM14 11H15V10H14V11ZM14 11V12H13V11H14ZM16 12V11V10H17V11V12H16ZM16 12V13H15V12H16Z" fill="black"/>
<path id="Union_4" fill-rule="evenodd" clip-rule="evenodd" d="M9 10H8V12H9V13H10V11H9V10Z" fill="#EFB5D3"/>
<path id="Union_5" fill-rule="evenodd" clip-rule="evenodd" d="M15 10H16V12H15V13H14V11H15V10Z" fill="#EFB5D3"/>
<path id="shadow_2" fill-rule="evenodd" clip-rule="evenodd" d="M9 11H8V12H9V13H10V12H9V11ZM15 11H16V12H15V11ZM15 12V13H14V12H15Z" fill="black" fill-opacity="0.25"/>
<path id="Union_6" fill-rule="evenodd" clip-rule="evenodd" d="M10 10H9V11H10V10ZM9 12H8V13H9V12ZM13 11H14V12H13V11ZM17 10H16V11H17V10Z" fill="#D9D9D9"/>
</g>
</g>
<g id="eyes-regular">
<path id="static-sclera" fill-rule="evenodd" clip-rule="evenodd" d="M13 16H14V18H13V16ZM10 16H11V18H10V16Z" fill="#98CAED"/>
<path id="static-pupils" fill-rule="evenodd" clip-rule="evenodd" d="M14 16H15V18H14V16ZM11 16H12V18H11V16Z" fill="black"/>
<path id="static-lids" fill-rule="evenodd" clip-rule="evenodd" d="M13 16H15V17H13V16ZM10 16H12V17H10V16Z" fill="black" fill-opacity="0.15"/>
<g id="symbol">
<rect id="Rectangle 1304" x="12" y="15" width="1" height="1" fill="black" fill-opacity="0.5"/>
<path id="Union_7" opacity="0.25" fill-rule="evenodd" clip-rule="evenodd" d="M12 14H11V15H12V14ZM14 14H13V15H14V14Z" fill="black"/>
</g>
</g>
<g id="mouth-furby">
<rect id="tongue" x="12" y="19" width="1" height="1" fill="#D05A50"/>
</g>
</g>
</svg>
