<svg width="24" height="24" viewBox="0 0 24 24" fill="none" xmlns="http://www.w3.org/2000/svg">
<g id="fierceleaf">
<rect width="24" height="24" fill="#593F1C"/>
<g id="inside-rare">
<path id="fill-meat" fill-rule="evenodd" clip-rule="evenodd" d="M13 13H11V14H10V15H11V16H13V15H14V14H13V13Z" fill="#DB00FF"/>
<path id="static-shine" fill-rule="evenodd" clip-rule="evenodd" d="M13 13H12H11V14H12H13V13ZM13 14V15H14V14H13Z" fill="white" fill-opacity="0.59"/>
<path id="static-shadow" fill-rule="evenodd" clip-rule="evenodd" d="M11 14H10V15H11V16H13V15H11V14Z" fill="black" fill-opacity="0.17"/>
</g>
<g id="body-a1">
<path id="Union" fill-rule="evenodd" clip-rule="evenodd" d="M10 10H14V11H15V12H16V14H17V19H16V20H15V21H9V20H8V19H7V14H8V12H9V11H10V10ZM10 11V12H9V14H8V19H9V20H15V19H16V14H15V12H14V11H10Z" fill="black"/>
<path id="fill-color" fill-rule="evenodd" clip-rule="evenodd" d="M14 11H10V12H9V14H8V19H9V20H10H14H15V19H16V14H15V12H14V11Z" fill="#593F1C"/>
<path id="static-shadow_2" fill-rule="evenodd" clip-rule="evenodd" d="M11 11H10V12H11V11ZM10 12H9V13H10V12ZM8 14H9V15H8V14ZM9 18H8V19H9V18ZM9 19V20H10V19H9ZM15 19H14V20H15V19ZM15 19H16V18H15V19Z" fill="black" fill-opacity="0.5"/>
<path id="static-shadow-big" fill-rule="evenodd" clip-rule="evenodd" d="M11 11H13V12H12V13H11V15H10V17H11V18H12V19H14V20H12H9V19H8V15V14H9V13H10V12H11V11Z" fill="black" fill-opacity="0.29"/>
</g>
<g id="mouth-pete">
<rect id="Rectangle 88" width="3" height="1" transform="matrix(-1 0 0 1 14 18)" fill="black"/>
<rect id="Rectangle 89" width="3" height="1" transform="matrix(-1 0 0 1 14 19)" fill="black"/>
<g id="toungue">
<rect id="Rectangle 3233" x="11" y="19" width="3" height="1" fill="#A95357"/>
<path id="Union_2" fill-rule="evenodd" clip-rule="evenodd" d="M12 19H11V20H12V19ZM14 19H13V20H14V19Z" fill="black" fill-opacity="0.5"/>
</g>
</g>
<g id="eyes-draft">
<path id="static-sclera" fill-rule="evenodd" clip-rule="evenodd" d="M13 16H14V17H13V16ZM10 16H11V17H10V16Z" fill="#F9BDBE"/>
<path id="static-pupils" fill-rule="evenodd" clip-rule="evenodd" d="M14 16H15V17H14V16ZM11 16H12V17H11V16Z" fill="black"/>
<path id="static-lids" fill-rule="evenodd" clip-rule="evenodd" d="M13 15H15V16H13V15ZM10 15H12V16H10V15Z" fill="white" fill-opacity="0.2"/>
</g>
<g id="accessory-gm_smoke">
<path id="Union_3" fill-rule="evenodd" clip-rule="evenodd" d="M6 15H7V16H8V17H9V18H10V20H9V21H7V22H5V21H3V20V18H4V17V16H6V15Z" fill="#FFFEFC"/>
<path id="Union_4" fill-rule="evenodd" clip-rule="evenodd" d="M7 16H6V17H7V16ZM4 17H5V18H6V19V20H7H8H9V21H8H7V22H6H5V21H4H3V20V19H4V18V17ZM9 20V19H10V20H9Z" fill="black" fill-opacity="0.19"/>
<g id="GM">
<path d="M5.92318 19.2633C5.98123 19.5115 5.96777 19.7374 5.88279 19.9409C5.79822 20.1434 5.65602 20.2903 5.45621 20.3817C5.27416 20.465 5.11443 20.4768 4.97703 20.417C4.83928 20.3565 4.72386 20.2245 4.63076 20.021C4.54308 19.8293 4.498 19.6115 4.49553 19.3674C4.49345 19.1222 4.53485 18.9046 4.61973 18.7146C4.6762 18.5876 4.75735 18.4999 4.86317 18.4515C4.93052 18.4207 5.02948 18.4023 5.16006 18.3962C5.31912 18.3879 5.41338 18.4159 5.44283 18.4803C5.45671 18.5107 5.45797 18.5428 5.4466 18.5766C5.43523 18.6104 5.41401 18.6345 5.38293 18.6487C5.36665 18.6561 5.33947 18.6574 5.30141 18.6524C5.1567 18.6354 5.04549 18.6446 4.96778 18.6802C4.91228 18.7056 4.86739 18.761 4.83311 18.8465C4.81597 18.8892 4.79635 18.9618 4.77423 19.0641C4.70688 19.3687 4.7338 19.6535 4.855 19.9184C4.91864 20.0576 4.98462 20.1451 5.05293 20.1809C5.12732 20.2203 5.22704 20.2114 5.35211 20.1541C5.48458 20.0935 5.58053 19.9991 5.63996 19.8708C5.7022 19.7349 5.71592 19.5752 5.68113 19.3915C5.48088 19.4956 5.32323 19.6156 5.20818 19.7515C5.19489 19.7674 5.1801 19.7791 5.16382 19.7866C5.13126 19.8015 5.09849 19.8012 5.06552 19.7859C5.03504 19.7721 5.01286 19.75 4.99898 19.7197C4.98036 19.679 4.98508 19.6374 5.01313 19.5951C5.12829 19.4243 5.38161 19.2493 5.7731 19.0702C5.80492 19.0557 5.83647 19.0542 5.86775 19.0659C5.89903 19.0775 5.92211 19.0996 5.93701 19.1322C5.95902 19.1803 5.95441 19.224 5.92318 19.2633Z" fill="#593F1C"/>
<path d="M8.17854 19.1551C8.13858 19.1734 8.09617 19.1678 8.05131 19.1382C8.01285 19.1128 7.96579 19.0627 7.91011 18.988L7.78281 18.8153C7.6983 18.7108 7.53069 18.4716 7.27998 18.0976L7.36418 18.8686L7.39517 19.1095C7.40678 19.2053 7.41035 19.2864 7.40586 19.3529C7.40051 19.4234 7.37156 19.4706 7.31902 19.4946C7.27535 19.5146 7.23011 19.5067 7.18328 19.4708C7.15278 19.4472 7.11987 19.4144 7.08454 19.3724L6.99598 19.2639C6.80173 19.0368 6.6079 18.7872 6.41449 18.5151L6.46542 18.732L6.59035 19.3837C6.61591 19.4552 6.64396 19.5654 6.67449 19.7143C6.6787 19.7822 6.65527 19.8278 6.60421 19.8512C6.56794 19.8678 6.53316 19.868 6.49985 19.8519C6.47119 19.8382 6.44941 19.815 6.43452 19.7825C6.37798 19.6589 6.33411 19.4955 6.30291 19.2923L6.22037 18.7891L6.12479 18.41C6.08254 18.2315 6.06803 18.1089 6.08127 18.0419C6.09124 17.9855 6.11805 17.9473 6.16172 17.9273C6.20982 17.9053 6.25824 17.9162 6.30697 17.9602C6.36596 18.0128 6.45849 18.1329 6.58455 18.3205C6.73515 18.546 6.91673 18.7815 7.12927 19.027C7.10846 18.692 7.06743 18.3519 7.00618 18.0068L6.96535 17.8295C6.94888 17.7583 6.94223 17.6978 6.94541 17.648C6.94922 17.58 6.97629 17.5345 7.02661 17.5115C7.09025 17.4824 7.16682 17.5216 7.25632 17.6292C7.28746 17.666 7.34184 17.7467 7.41946 17.8714C7.61614 18.1859 7.80121 18.4467 7.97467 18.6537L8.11641 18.8198C8.19125 18.909 8.23408 18.9655 8.24492 18.9892C8.25947 19.021 8.25945 19.0532 8.24485 19.0859C8.23098 19.1182 8.20888 19.1413 8.17854 19.1551Z" fill="#593F1C"/>
</g>
</g>
</g>
</svg>
