<svg width="24" height="24" viewBox="0 0 24 24" fill="none" xmlns="http://www.w3.org/2000/svg">
<g id="Frame 91">
<g id="inside-rare">
<path id="border" fill-rule="evenodd" clip-rule="evenodd" d="M12 11H14V12H12V11ZM11 13H12V12H11V13ZM10 14V13H11V14H10ZM10 16H9V15V14H10V15V16ZM13 16V17H10V16H13ZM14 15V16H13V15H14ZM14 15H15V13V12H14V13V15Z" fill="black"/>
<path id="fill" fill-rule="evenodd" clip-rule="evenodd" d="M13 12H12V13H11V14H10V16H11H12H13V15H14V12H13Z" fill="#FF00FF"/>
<path id="shadow" fill-rule="evenodd" clip-rule="evenodd" d="M13 13H12V14H11V15H12V14H13V13Z" fill="black" fill-opacity="0.25"/>
<rect id="dark-shadow" x="11" y="13" width="1" height="1" fill="black" fill-opacity="0.4"/>
<rect id="shine" x="12" y="12" width="2" height="1" fill="white" fill-opacity="0.5"/>
</g>
<g id="body-regular">
<path id="fill-root" fill-rule="evenodd" clip-rule="evenodd" d="M10 10H8V11H7V12H9V13H7V15H9V16V19H10V20H15V19H16V16V15H18V13H16V12H18V11H17V10H15V11H14V10H11V11H10V10Z" fill="#F9E8CF"/>
<path id="hair" fill-rule="evenodd" clip-rule="evenodd" d="M10 10H8V11H7V12H9V13H7V15H9V16H10V15H11V14H14V15H15V16H16V15H18V13H16V12H18V11H17V10H15V11H14V10H11V11H10V10Z" fill="#FF8CDF"/>
<path id="border_2" fill-rule="evenodd" clip-rule="evenodd" d="M8 9H9H10V10H9H8V9ZM7 11V10H8V11H7ZM7 12H6V11H7V12ZM7 13V12H9V13H7ZM7 15H6V13H7V15ZM9 19H8V16H7V15H9V16V19ZM10 20H9V19H10V20ZM15 20V21H10V20H15ZM16 19V20H15V19H16ZM18 15V16H17V19H16V16V15H18ZM18 13H19V15H18V13ZM18 12V13H16V12H18ZM18 11H19V12H18V11ZM17 10H18V11H17V10ZM15 10V9H16H17V10H16H15ZM14 10H15V11H14V10ZM11 10V9H12H13H14V10H13H12H11ZM11 10H10V11H11V10ZM11 14V13H13H14V14H13H11ZM11 14V15H10V14H11ZM14 14V15H15V14H14Z" fill="black"/>
<path id="static-shadow" fill-rule="evenodd" clip-rule="evenodd" d="M8 10H9H10V11H11V12H10V13V15H11V18V20H10V19H9V16V15H8H7V13H8H9V12H8H7V11H8V10ZM11 11V10H12H13H14V11H13H12H11ZM15 18H16V19H15V18ZM15 19V20H14V19H15Z" fill="black" fill-opacity="0.3"/>
<path id="static-shadow_2" fill-rule="evenodd" clip-rule="evenodd" d="M8 10H9V11H8V10ZM8 11V12H7V11H8ZM11 11H10V12H9V13H7V14H9V13H10V14H11V13H10V12H11V11ZM15 11H14V12H15V13H14V14H15V13H16V14H18V13H16V12H15V11ZM17 11H18V12H17V11ZM17 11H16V10H17V11ZM12 10H13V11H12V10ZM13 12H12V13H13V12Z" fill="black" fill-opacity="0.3"/>
</g>
<g id="eyes-regular">
<path id="static-sclera" fill-rule="evenodd" clip-rule="evenodd" d="M13 16H15V18H13V16ZM10 16H12V18H10V16Z" fill="white"/>
<path id="static-pupils" fill-rule="evenodd" clip-rule="evenodd" d="M14 16H15V18H14V16ZM11 16H12V18H11V16Z" fill="black"/>
<path id="static-lids" fill-rule="evenodd" clip-rule="evenodd" d="M13 16H15V17H13V16ZM10 16H12V17H10V16Z" fill="black" fill-opacity="0.15"/>
</g>
<g id="mouth-woah">
<rect id="Rectangle 188" x="11" y="19" width="3" height="1" fill="black"/>
</g>
<g id="clothes-armor">
<path id="Union" fill-rule="evenodd" clip-rule="evenodd" d="M7 18H8H9V19H10V20H15V19H16V20H17V21H8V20H7V18Z" fill="#FF0304"/>
<path id="Union_2" fill-rule="evenodd" clip-rule="evenodd" d="M7 18H8V19H7V18ZM9 19H8V20H9H10V19H9Z" fill="white" fill-opacity="0.1"/>
<path id="shadows" fill-rule="evenodd" clip-rule="evenodd" d="M8 18H9V19H8V20H7V19V18H8ZM9 20V21H8V20H9ZM10 20H9V19H10V20ZM10 20H11V21H10V20ZM16 19H15V20H16V21H17V20H16V19Z" fill="black" fill-opacity="0.6"/>
</g>
<path id="face-bandit_mask" fill-rule="evenodd" clip-rule="evenodd" d="M9 16H10V18H9V16ZM12 16H13V18H12V16ZM16 16H15V18H16V16Z" fill="black" fill-opacity="0.75"/>
<g id="acessory-light_saber">
<path id="Union_3" fill-rule="evenodd" clip-rule="evenodd" d="M18 19H17V20H16V21H17V20H18V19Z" fill="#578F9C"/>
<path id="Union_4" fill-rule="evenodd" clip-rule="evenodd" d="M20 14H21V15H20V14ZM20 16V15H19V16H18V17H17V18H18V19H19V18H20V17H21V16H22V15H21V16H20ZM19 17V16H20V17H19ZM19 17V18H18V17H19Z" fill="#00C9F9"/>
<path id="Union_5" fill-rule="evenodd" clip-rule="evenodd" d="M22 14H21V15H20V16H19V17H18V18H17V19H18V18H19V17H20V16H21V15H22V14Z" fill="#DDF7F9"/>
<path id="Union_6" fill-rule="evenodd" clip-rule="evenodd" d="M17 19H16V20H15V21H16V20H17V19Z" fill="#868686"/>
<path id="Union_7" fill-rule="evenodd" clip-rule="evenodd" d="M17 19H16V20H15V21H16V20H17V19Z" fill="#3D5156"/>
<path id="shine_2" fill-rule="evenodd" clip-rule="evenodd" d="M17 11H18V12H17V11ZM17 13V12H16V11H15V12H16V13H17ZM16 15V14H17V13H18V14V15H16ZM14 15V16H15V17V18H13V19H14V20H15V19H16V18V17V16V15H15V14H14V15ZM13 12H14V13H13V12Z" fill="#00FFFF" fill-opacity="0.15"/>
</g>
<g id="hat-ice_cream">
<path id="Union_8" fill-rule="evenodd" clip-rule="evenodd" d="M11 7H12H13V8H12V9H11V8V7ZM10 10V9H11V10H10ZM10 12H9V11V10H10V11V12ZM15 12H10V13H15V12ZM15 11V12H16V11V10H15V9H14V8H13V9H14V10H15V11Z" fill="black"/>
<path id="Union_9" fill-rule="evenodd" clip-rule="evenodd" d="M13 8H12V9H11V10H10V12H15V10H14V9H13V8Z" fill="white"/>
<path id="Union_10" fill-rule="evenodd" clip-rule="evenodd" d="M14 9H13V10H14V9ZM11 10H10V11H11V10Z" fill="#FF00D0"/>
<rect id="Rectangle 3815" x="14" y="11" width="1" height="1" fill="#FF0003"/>
<path id="Union_11" fill-rule="evenodd" clip-rule="evenodd" d="M13 10H12V11H13V10ZM11 11H10V12H11V11Z" fill="#3DEB3A"/>
<path id="Union_12" fill-rule="evenodd" clip-rule="evenodd" d="M13 8H12V9H13V8ZM14 11H13V12H14V11Z" fill="#00A8FF"/>
<path id="Union_13" fill-rule="evenodd" clip-rule="evenodd" d="M12 9H11V10H10V11V12H11H12V11H11V10H12V9Z" fill="black" fill-opacity="0.31"/>
</g>
</g>
</svg>
