<svg width="24" height="24" viewBox="0 0 24 24" fill="none" xmlns="http://www.w3.org/2000/svg">
<g id="Frame 65">
<g id="inside-rare">
<path id="border" fill-rule="evenodd" clip-rule="evenodd" d="M12 11H14V12H12V11ZM11 13H12V12H11V13ZM10 14V13H11V14H10ZM10 16H9V15V14H10V15V16ZM13 16V17H10V16H13ZM14 15V16H13V15H14ZM14 15H15V13V12H14V13V15Z" fill="black"/>
<path id="fill" fill-rule="evenodd" clip-rule="evenodd" d="M13 12H12V13H11V14H10V16H11H12H13V15H14V12H13Z" fill="#FF00FF"/>
<path id="shadow" fill-rule="evenodd" clip-rule="evenodd" d="M13 13H12V14H11V15H12V14H13V13Z" fill="black" fill-opacity="0.25"/>
<rect id="dark-shadow" x="11" y="13" width="1" height="1" fill="black" fill-opacity="0.4"/>
<rect id="shine" x="12" y="12" width="2" height="1" fill="white" fill-opacity="0.5"/>
</g>
<g id="body-regular">
<path id="fill-root" fill-rule="evenodd" clip-rule="evenodd" d="M10 10H8V11H7V12H9V13H7V15H9V16V19H10V20H15V19H16V16V15H18V13H16V12H18V11H17V10H15V11H14V10H11V11H10V10Z" fill="#FCECD9"/>
<path id="hair" fill-rule="evenodd" clip-rule="evenodd" d="M10 10H8V11H7V12H9V13H7V15H9V16H10V15H11V14H14V15H15V16H16V15H18V13H16V12H18V11H17V10H15V11H14V10H11V11H10V10Z" fill="black" fill-opacity="0.4"/>
<path id="border_2" fill-rule="evenodd" clip-rule="evenodd" d="M8 9H9H10V10H9H8V9ZM7 11V10H8V11H7ZM7 12H6V11H7V12ZM7 13V12H9V13H7ZM7 15H6V13H7V15ZM9 19H8V16H7V15H9V16V19ZM10 20H9V19H10V20ZM15 20V21H10V20H15ZM16 19V20H15V19H16ZM18 15V16H17V19H16V16V15H18ZM18 13H19V15H18V13ZM18 12V13H16V12H18ZM18 11H19V12H18V11ZM17 10H18V11H17V10ZM15 10V9H16H17V10H16H15ZM14 10H15V11H14V10ZM11 10V9H12H13H14V10H13H12H11ZM11 10H10V11H11V10ZM11 14V13H13H14V14H13H11ZM11 14V15H10V14H11ZM14 14V15H15V14H14Z" fill="#3E352B"/>
<path id="static-shadow" fill-rule="evenodd" clip-rule="evenodd" d="M8 10H9H10V11H11V12H10V13V15H11V18V20H10V19H9V16V15H8H7V13H8H9V12H8H7V11H8V10ZM11 11V10H12H13H14V11H13H12H11ZM15 18H16V19H15V18ZM15 19V20H14V19H15Z" fill="black" fill-opacity="0.3"/>
<path id="static-shadow_2" fill-rule="evenodd" clip-rule="evenodd" d="M8 10H9V11H8V10ZM8 11V12H7V11H8ZM11 11H10V12H9V13H7V14H9V13H10V14H11V13H10V12H11V11ZM15 11H14V12H15V13H14V14H15V13H16V14H18V13H16V12H15V11ZM17 11H18V12H17V11ZM17 11H16V10H17V11ZM12 10H13V11H12V10ZM13 12H12V13H13V12Z" fill="black" fill-opacity="0.3"/>
</g>
<g id="hat-wizard">
<path id="Union" fill-rule="evenodd" clip-rule="evenodd" d="M8 6H12V7H14V8H15V9H16V11H17H18V12H19V13H18V14H17V15H8V14H7V13H6V12H7V11H8V10H9V9H8V8H7V7H8V6ZM8 7V8H10V9V10H9V11H8V12H7V13H9V14H16V13H18V12H17H16V11H15V9H13V8H12V7H8Z" fill="#393F50"/>
<path id="Union_2" fill-rule="evenodd" clip-rule="evenodd" d="M8 7H12V8H13V9H15V10V11H16V12H18V13H16V14H9V13H7V12H8V11H9V10H10V9V8H8V7Z" fill="#BACAFA"/>
<path id="Union_3" fill-rule="evenodd" clip-rule="evenodd" d="M8 7H9V8H8V7ZM11 8H10V9H11V8ZM11 10V11H9V12H8V11H9V10H11ZM14 12V11H16V12H14ZM13 8H12V9H13V8ZM13 9V10H15V9H13ZM18 12H17V13H18V12Z" fill="black" fill-opacity="0.25"/>
<path id="Union_4" fill-rule="evenodd" clip-rule="evenodd" d="M12 9H13V10H12V9ZM10 11H13V12H10V11Z" fill="white" fill-opacity="0.18"/>
<path id="fill-ribbon" fill-rule="evenodd" clip-rule="evenodd" d="M16 11H14V12H16V11ZM9 12H14V13H9V12ZM9 12V11H8V12H9Z" fill="#E4B8FA"/>
<path id="Union_5" fill-rule="evenodd" clip-rule="evenodd" d="M16 11H14V12H16V11ZM9 11H8V12H9V11ZM9 12V13H11V12H9Z" fill="black" fill-opacity="0.4"/>
<rect id="Rectangle 1772" x="12" y="11" width="1" height="2" fill="#FDEC60"/>
</g>
<g id="eyes-regular">
<path id="static-sclera" fill-rule="evenodd" clip-rule="evenodd" d="M13 16H15V18H13V16ZM10 16H12V18H10V16Z" fill="white"/>
<path id="static-pupils" fill-rule="evenodd" clip-rule="evenodd" d="M14 16H15V18H14V16ZM11 16H12V18H11V16Z" fill="black"/>
<path id="static-lids" fill-rule="evenodd" clip-rule="evenodd" d="M13 16H15V17H13V16ZM10 16H12V17H10V16Z" fill="black" fill-opacity="0.15"/>
</g>
<g id="mouth-ooo">
<rect id="Rectangle 188" x="12" y="19" width="1" height="1" fill="black"/>
</g>
<g id="clothes-wizard_robe">
<path id="Union_6" fill-rule="evenodd" clip-rule="evenodd" d="M8 18H9V19H10V20H15V21H8V20H7V19H8V18Z" fill="#BACAFB"/>
<path id="Union_7" fill-rule="evenodd" clip-rule="evenodd" d="M7 18H8V19H7V18ZM9 19H8V20H9H10V19H9Z" fill="#BACAFB"/>
<path id="shadows" fill-rule="evenodd" clip-rule="evenodd" d="M8 18H9V19H8V18ZM8 20H7V19H8V20ZM9 20H8V21H9V20ZM10 20V19H9V20H10ZM10 20H12V21H10V20Z" fill="#8595CA"/>
</g>
<g id="accessory-necklace">
<path id="Union_8" fill-rule="evenodd" clip-rule="evenodd" d="M11 19H10V20H11V21H15V20H11V19Z" fill="#FDEC60"/>
<rect id="Rectangle 1775" x="13" y="20" width="1" height="1" fill="#C3291C"/>
<path id="Union_9" fill-rule="evenodd" clip-rule="evenodd" d="M10 19H11V20H10V19ZM11 20H12V21H11V20ZM15 20H14V21H15V20Z" fill="black" fill-opacity="0.28"/>
</g>
</g>
</svg>
