<svg width="24" height="24" viewBox="0 0 24 24" fill="none" xmlns="http://www.w3.org/2000/svg">
<g id="brocamago">
<rect width="24" height="24" fill="#2E2E2D"/>
<g id="inside-rare">
<path id="border" fill-rule="evenodd" clip-rule="evenodd" d="M12 11H14V12H12V11ZM11 13H12V12H11V13ZM10 14V13H11V14H10ZM10 16H9V15V14H10V15V16ZM13 16V17H10V16H13ZM14 15V16H13V15H14ZM14 15H15V13V12H14V13V15Z" fill="black"/>
<path id="fill" fill-rule="evenodd" clip-rule="evenodd" d="M13 12H12V13H11V14H10V16H11H12H13V15H14V12H13Z" fill="#FF00FF"/>
<path id="shadow" fill-rule="evenodd" clip-rule="evenodd" d="M13 13H12V14H11V15H12V14H13V13Z" fill="black" fill-opacity="0.25"/>
<rect id="dark-shadow" x="11" y="13" width="1" height="1" fill="black" fill-opacity="0.4"/>
<rect id="shine" x="12" y="12" width="2" height="1" fill="white" fill-opacity="0.5"/>
</g>
<g id="body-power_plins">
<path id="fill-root" fill-rule="evenodd" clip-rule="evenodd" d="M10 10H8V11H7V12H9V13H7V15H9V16V19H10V20H15V19H16V16V15H18V13H16V12H18V11H17V10H15V11H14V10H11V11H10V10Z" fill="white"/>
<path id="hair" fill-rule="evenodd" clip-rule="evenodd" d="M10 10H8V11H7V12H9V13H7V15H9V16H10V15H11H14H15V16H16V15H18V13H16V12H18V11H17V10H15V11H14V10H11V11H10V10Z" fill="#E1E1E1"/>
<path id="border_2" fill-rule="evenodd" clip-rule="evenodd" d="M8 9H9H10V10H9H8V9ZM7 11V10H8V11H7ZM7 12H6V11H7V12ZM7 13V12H9V13H7ZM7 15H6V13H7V15ZM9 19H8V16H7V15H9V16V19ZM10 20H9V19H10V20ZM15 20V21H10V20H15ZM16 19V20H15V19H16ZM18 15V16H17V19H16V16V15H18ZM18 13H19V15H18V13ZM18 12V13H16V12H18ZM18 11H19V12H18V11ZM17 10H18V11H17V10ZM15 10V9H16H17V10H16H15ZM14 10V11H15V10H14ZM13 10H14V9H13H12H11V10H10V11H11V10H12H13Z" fill="black"/>
<path id="static-shadow" fill-rule="evenodd" clip-rule="evenodd" d="M8 10H9H10V11H11V12H10V13V15H11V18V20H10V19H9V16V15H8H7V13H8H9V12H8H7V11H8V10ZM11 11V10H12H13H14V11H13H12H11ZM15 18H16V19H15V18ZM15 19V20H14V19H15Z" fill="black" fill-opacity="0.3"/>
<path id="static-shadow_2" fill-rule="evenodd" clip-rule="evenodd" d="M8 10H9V11H8V10ZM8 11V12H7V11H8ZM11 11H10V12H9V13H7V14H9V13H10V14H11V13H10V12H11V11ZM15 11H14V12H15V13H14V14H15V13H16V14H18V13H16V12H15V11ZM17 11H18V12H17V11ZM17 11H16V10H17V11ZM12 10H13V11H12V10ZM13 12H12V13H13V12Z" fill="black" fill-opacity="0.3"/>
</g>
<g id="eyes-angry">
<path id="static-sclera" fill-rule="evenodd" clip-rule="evenodd" d="M13 16H15V18H13V16ZM10 16H12V18H10V16Z" fill="#CFCB5D"/>
<path id="static-pupils" fill-rule="evenodd" clip-rule="evenodd" d="M14 16H15V18H14V16ZM11 16H12V18H11V16Z" fill="black"/>
<path id="static-lids" fill-rule="evenodd" clip-rule="evenodd" d="M13 16H15V17H13V16ZM10 16H12V17H10V16Z" fill="black" fill-opacity="0.15"/>
<path id="Union" fill-rule="evenodd" clip-rule="evenodd" d="M10 14H11V15H10V14ZM11 15H12V16H11V15ZM13 15H14V16H13V15ZM14 15H15V14H14V15Z" fill="black"/>
</g>
<g id="mouth-smirk">
<rect id="Rectangle 188" x="11" y="19" width="3" height="1" fill="black"/>
<rect id="Rectangle 189" x="10" y="18" width="1" height="1" fill="black"/>
</g>
<g id="hat-yolk">
<rect id="Rectangle 2931" x="10" y="8" width="5" height="1" fill="black"/>
<g id="Group 153">
<path id="Union_2" fill-rule="evenodd" clip-rule="evenodd" d="M10 9H15V10H17V11H15V12H9V11H8V10H10V9Z" fill="#A8CF5D"/>
<path id="Union_3" fill-rule="evenodd" clip-rule="evenodd" d="M8 10H9V11H8V10ZM16 11H9V12H16V11ZM16 11V10H17V11H16Z" fill="#A5BF58"/>
<path id="Union_4" fill-rule="evenodd" clip-rule="evenodd" d="M12 9H10V10H9V11H10V10H12V9Z" fill="white" fill-opacity="0.7"/>
</g>
</g>
<g id="accessory-pan">
<path id="Union_5" fill-rule="evenodd" clip-rule="evenodd" d="M7 18H8V19H9V20H10V21H15V20H16V19H17V18H18V19V20H17V21H16V22H10H9V21H8V20H7V19V18Z" fill="#5D5D5C"/>
<path id="Union_6" fill-rule="evenodd" clip-rule="evenodd" d="M7 18H8V19V20H7V19V18ZM9 21V20H8V21H9ZM9 21V22H10V21H9ZM17 18H18V19V20H17V19V18ZM16 21V20H17V21H16ZM16 21V22H15V21H16Z" fill="black" fill-opacity="0.5"/>
<rect id="Rectangle 2951" x="18" y="18" width="1" height="1" fill="#9B9B9B"/>
<path id="Union_7" fill-rule="evenodd" clip-rule="evenodd" d="M20 18H19V19H20H21V18H20Z" fill="#5D5D5C"/>
<rect id="Rectangle 2952" x="20" y="18" width="1" height="1" fill="black" fill-opacity="0.5"/>
</g>
<g id="decoration">
<path id="Union_8" fill-rule="evenodd" clip-rule="evenodd" d="M4 1H1V2V4H2V2H4V1Z" fill="#F7CD37"/>
<path id="Union_9" fill-rule="evenodd" clip-rule="evenodd" d="M20 1H23V2V4H22V2H20V1Z" fill="#F7CD37"/>
<path id="Union_10" fill-rule="evenodd" clip-rule="evenodd" d="M20 23H23V22V20H22V22H20V23Z" fill="#F7CD37"/>
<path id="Union_11" fill-rule="evenodd" clip-rule="evenodd" d="M4 23H1V22V20H2V22H4V23Z" fill="#F7CD37"/>
<path id="BROCAMAGO" d="M4.98701 5.70779V5.41558H4.69481V5.70779H4.98701ZM4.98701 5.12338V4.83117H4.69481V5.12338H4.98701ZM4.11039 6V4.53896H5.27922V4.83117H5.57143V5.70779H5.27922V6H4.11039ZM6.74026 5.41558V4.83117H6.44805V5.41558H6.74026ZM5.86364 6V4.53896H7.32468V5.41558H7.03247V5.70779H7.32468V6H6.74026V5.70779H6.44805V6H5.86364ZM8.49351 5.70779V4.83117H8.2013V5.70779H8.49351ZM7.61688 6V4.53896H9.07792V6H7.61688ZM9.37013 6V4.53896H10.8312V4.83117H9.95455V5.70779H10.8312V6H9.37013ZM12 5.41558V4.83117H11.7078V5.41558H12ZM11.1234 6V4.53896H12.5844V6H12V5.70779H11.7078V6H11.1234ZM12.8766 6V4.53896H14.3377V6H14.0455V5.12338H13.7532V5.70779H13.461V5.12338H13.1688V6H12.8766ZM15.5065 5.41558V4.83117H15.2143V5.41558H15.5065ZM14.6299 6V4.53896H16.0909V6H15.5065V5.70779H15.2143V6H14.6299ZM16.3831 6V4.53896H17.8442V4.83117H16.9675V5.70779H17.2597V5.12338H17.8442V6H16.3831ZM19.013 5.70779V4.83117H18.7208V5.70779H19.013ZM18.1364 6V4.53896H19.5974V6H18.1364Z" fill="#F7CD37"/>
</g>
</g>
</svg>
