<svg width="24" height="24" viewBox="0 0 24 24" fill="none" xmlns="http://www.w3.org/2000/svg">
<g id="Frame 60">
<rect width="24" height="24" fill="#6DB6DC"/>
<g id="inside-rare">
<path id="border" fill-rule="evenodd" clip-rule="evenodd" d="M12 11H14V12H12V11ZM11 13H12V12H11V13ZM10 14V13H11V14H10ZM10 16H9V15V14H10V15V16ZM13 16V17H10V16H13ZM14 15V16H13V15H14ZM14 15H15V13V12H14V13V15Z" fill="black"/>
<path id="fill" fill-rule="evenodd" clip-rule="evenodd" d="M13 12H12V13H11V14H10V16H11H12H13V15H14V12H13Z" fill="#FF00FF"/>
<path id="shadow" fill-rule="evenodd" clip-rule="evenodd" d="M13 13H12V14H11V15H12V14H13V13Z" fill="black" fill-opacity="0.25"/>
<rect id="dark-shadow" x="11" y="13" width="1" height="1" fill="black" fill-opacity="0.4"/>
<rect id="shine" x="12" y="12" width="2" height="1" fill="white" fill-opacity="0.5"/>
</g>
<g id="body-venusaur">
<path id="fill-root" fill-rule="evenodd" clip-rule="evenodd" d="M10 10H8V11H7V12H9V13H7V15H9V16V19H10V20H15V19H16V16V15H18V13H16V12H18V11H17V10H15V11H14V10H11V11H10V10Z" fill="#5CA4A3"/>
<path id="border_2" fill-rule="evenodd" clip-rule="evenodd" d="M8 9H9H10V10H9H8V9ZM7 11V10H8V11H7ZM7 12H6V11H7V12ZM7 13V12H9V13H7ZM7 15H6V13H7V15ZM9 19H8V16H7V15H9V16V19ZM10 20H9V19H10V20ZM15 20V21H10V20H15ZM16 19V20H15V19H16ZM18 15V16H17V19H16V16V15H18ZM18 13H19V15H18V13ZM18 12V13H16V12H18ZM18 11H19V12H18V11ZM17 10H18V11H17V10ZM15 10V9H16H17V10H16H15ZM14 10H15V11H14V10ZM11 10V9H12H13H14V10H13H12H11ZM11 10H10V11H11V10ZM11 14V13H13H14V14H13H11ZM11 14V15H10V14H11ZM14 14V15H15V14H14Z" fill="black"/>
<path id="static-shadow" fill-rule="evenodd" clip-rule="evenodd" d="M8 10H9H10V11H11V12H10V13V15H11V18V20H10V19H9V16V15H8H7V13H8H9V12H8H7V11H8V10ZM11 11V10H12H13H14V11H13H12H11ZM15 18H16V19H15V18ZM15 19V20H14V19H15Z" fill="black" fill-opacity="0.3"/>
<path id="static-shadow_2" fill-rule="evenodd" clip-rule="evenodd" d="M8 10H9V11H8V10ZM8 11V12H7V11H8ZM11 11H10V12H9V13H7V14H9V13H10V14H11V13H10V12H11V11ZM15 11H14V12H15V13H14V14H15V13H16V14H18V13H16V12H15V11ZM17 11H18V12H17V11ZM17 11H16V10H17V11ZM12 10H13V11H12V10ZM13 12H12V13H13V12Z" fill="black" fill-opacity="0.3"/>
<g id="rafflesia">
<g id="flower">
<rect id="Rectangle 1439" x="12" y="12" width="1" height="1" fill="#FFE064"/>
<path id="Union" fill-rule="evenodd" clip-rule="evenodd" d="M10 10H8V11H7V12H9V13H7V14V15H9V16H10V15V14H11V13H12V12H13V13H14V14H15V15V16H16V15H18V14V13H16V12H18V11H17V10H15V11H14V10H11V11H10V10Z" fill="#F23854"/>
<path id="Union_2" fill-rule="evenodd" clip-rule="evenodd" d="M9 11H10V12H9V11ZM15 13H16V14H15V13ZM16 15V14H18V15H16ZM16 15V16H15V15H16ZM9 14H7V15H9V16H10V15H9V14ZM9 14V13H10V14H9ZM16 11H15V12H16V11Z" fill="white" fill-opacity="0.25"/>
<path id="Union_3" fill-rule="evenodd" clip-rule="evenodd" d="M8 10H9V11H8V10ZM8 11V12H7V11H8ZM12 12H9V13H12V12ZM8 13H7V14H8V13ZM11 10H12V11H11V10ZM14 10H13V11H14V10ZM16 10H17V11H16V10ZM17 11H18V12H17V11ZM16 13H17V14H16V13ZM16 13H13V12H16V13Z" fill="black" fill-opacity="0.3"/>
</g>
<g id="vines">
<path id="Union_4" fill-rule="evenodd" clip-rule="evenodd" d="M11 14H12V15H11V14ZM13 15V16H12V15H13ZM13 15V14H14V15H13ZM8 15H9V17H8V18H7V17H6V16H7V15H8ZM16 15H17H18V16H19V17H18V18H17V17H16V15Z" fill="#63B029"/>
<g id="Union_5" style="mix-blend-mode:overlay">
<path fill-rule="evenodd" clip-rule="evenodd" d="M7 15H8V16H7V15ZM7 17H6V16H7V17ZM7 17H8V18H7V17ZM12 15H13V16H12V15ZM18 15H17V16H18V17H17V18H18V17H19V16H18V15Z" fill="white" fill-opacity="0.6"/>
</g>
<path id="Union_6" fill-rule="evenodd" clip-rule="evenodd" d="M9 16H7V17H9V16ZM18 16H16V17H18V16Z" fill="black" fill-opacity="0.22"/>
</g>
<g id="stem">
<rect id="Rectangle 1440" x="12" y="13" width="1" height="2" fill="#8A5D4D"/>
<rect id="Rectangle 1485" x="12" y="14" width="1" height="1" fill="black" fill-opacity="0.25"/>
</g>
</g>
</g>
<g id="eyes-regular_red">
<path id="static-sclera" fill-rule="evenodd" clip-rule="evenodd" d="M13 16H15V18H13V16ZM10 16H12V18H10V16Z" fill="white"/>
<path id="static-pupils" fill-rule="evenodd" clip-rule="evenodd" d="M14 16H15V18H14V16ZM11 16H12V18H11V16Z" fill="#A8393F"/>
<path id="static-lids" fill-rule="evenodd" clip-rule="evenodd" d="M13 16H15V17H13V16ZM10 16H12V17H10V16Z" fill="black" fill-opacity="0.15"/>
</g>
<g id="mouth-woah">
<rect id="Rectangle 188" x="11" y="19" width="3" height="1" fill="black"/>
</g>
</g>
</svg>
