<svg width="24" height="24" viewBox="0 0 24 24" fill="none" xmlns="http://www.w3.org/2000/svg">
<g id="night-cap">
<g id="inside-rare">
<path id="fill-meat" fill-rule="evenodd" clip-rule="evenodd" d="M13 13H11V14H10V15H11V16H13V15H14V14H13V13Z" fill="#DB00FF"/>
<path id="static-shine" fill-rule="evenodd" clip-rule="evenodd" d="M13 13H12H11V14H12H13V13ZM13 14V15H14V14H13Z" fill="white" fill-opacity="0.59"/>
<path id="static-shadow" fill-rule="evenodd" clip-rule="evenodd" d="M11 14H10V15H11V16H13V15H11V14Z" fill="black" fill-opacity="0.17"/>
</g>
<g id="body-a1">
<path id="Union" fill-rule="evenodd" clip-rule="evenodd" d="M10 10H14V11H15V12H16V14H17V19H16V20H15V21H9V20H8V19H7V14H8V12H9V11H10V10ZM10 11V12H9V14H8V19H9V20H15V19H16V14H15V12H14V11H10Z" fill="black"/>
<path id="fill-color" fill-rule="evenodd" clip-rule="evenodd" d="M14 11H10V12H9V14H8V19H9V20H10H14H15V19H16V14H15V12H14V11Z" fill="#85582E"/>
<path id="static-shadow_2" fill-rule="evenodd" clip-rule="evenodd" d="M11 11H10V12H11V11ZM10 12H9V13H10V12ZM8 14H9V15H8V14ZM9 18H8V19H9V18ZM9 19V20H10V19H9ZM15 19H14V20H15V19ZM15 19H16V18H15V19Z" fill="black" fill-opacity="0.5"/>
<path id="static-shadow-big" fill-rule="evenodd" clip-rule="evenodd" d="M11 11H13V12H12V13H11V15H10V17H11V18H12V19H14V20H12H9V19H8V15V14H9V13H10V12H11V11Z" fill="black" fill-opacity="0.29"/>
</g>
<g id="mouth-snug">
<path id="static-mouth" fill-rule="evenodd" clip-rule="evenodd" d="M9 17H10V18H12V19H10V18H9V17Z" fill="black"/>
</g>
<g id="eyes-a9">
<path id="static-sclera" fill-rule="evenodd" clip-rule="evenodd" d="M13 15H14V17H13V15ZM10 15H11V17H10V15Z" fill="white"/>
<path id="static-pupils" fill-rule="evenodd" clip-rule="evenodd" d="M14 15H15V17H14V15ZM11 15H12V17H11V15Z" fill="black"/>
<path id="static-lids" fill-rule="evenodd" clip-rule="evenodd" d="M13 15H15V16H13V15ZM10 15H12V16H10V15Z" fill="black" fill-opacity="0.15"/>
</g>
<g id="hat-night_cap">
<path id="Union_2" fill-rule="evenodd" clip-rule="evenodd" d="M10 6H12V7H10V6ZM7 8V7H10V8H7ZM4 9V8H7V9H4ZM4 11H3V9H4V11ZM6 11H5H4V12H5V13V14H6V15H7H10V14H13V15H17V14H18V12H17V10H16V9H15V8H13V7H12V8H13V9H15V10H16V12H17V14H13V13H10V14H7H6V13V12V11ZM8 10V11H7H6V10H7H8ZM8 10V9H9V10H8Z" fill="#3F4C70"/>
<path id="Union_3" fill-rule="evenodd" clip-rule="evenodd" d="M10 14H13V15H10V14ZM10 15V16H7V15H10ZM13 15V16H17V15H13Z" fill="black" fill-opacity="0.2"/>
<path id="Union_4" fill-rule="evenodd" clip-rule="evenodd" d="M12 7H10V8H7V9H4V10V11H6V12V13V14H10V13H13V14H17V13V12H16V11V10H15V9H13V8H12V7ZM6 10V11H8V10H9V9H8V10H6Z" fill="#B9CAFC"/>
<path id="Union_5" fill-rule="evenodd" clip-rule="evenodd" d="M8 9H7V10H8V11H9V10H8V9ZM6 10H5V9H4V10V11H6V12V13V14H7H8H10V13H13V14H14V13H13V12H10V13H8V12H7V11H6V10Z" fill="black" fill-opacity="0.22"/>
</g>
</g>
</svg>
