<svg width="24" height="24" viewBox="0 0 24 24" fill="none" xmlns="http://www.w3.org/2000/svg">
<g id="smolbodies-man" clip-path="url(#clip0_838_57960)">
<rect width="24" height="24" fill="#324E8F"/>
<g id="decoration-background">
<path id="Union" fill-rule="evenodd" clip-rule="evenodd" d="M4 -2H6V-1H7V0H8V2H7V3H6V4H4V3H3V2H2V0H3V-1H4V-2Z" fill="#2C406E"/>
<path id="Union_2" fill-rule="evenodd" clip-rule="evenodd" d="M12 2H14V3H15V4H16V6H15V7H14V8H12V7H11V6H10V4H11V3H12V2Z" fill="#2C406E"/>
<path id="Union_3" fill-rule="evenodd" clip-rule="evenodd" d="M21 -1H23V0H24V1H25V3H24V4H23V5H21V4H20V3H19V1H20V0H21V-1Z" fill="#2C406E"/>
<path id="Union_4" fill-rule="evenodd" clip-rule="evenodd" d="M2 19H4V20H5V21H6V23H5V24H4V25H2V24H1V23H0V21H1V20H2V19Z" fill="#2C406E"/>
<path id="Union_5" fill-rule="evenodd" clip-rule="evenodd" d="M19 17H21V18H22V19H23V21H22V22H21V23H19V22H18V21H17V19H18V18H19V17Z" fill="#2C406E"/>
<path id="Union_6" fill-rule="evenodd" clip-rule="evenodd" d="M23 8H25V9H26V10H27V12H26V13H25V14H23V13H22V12H21V10H22V9H23V8Z" fill="#2C406E"/>
<path id="Union_7" fill-rule="evenodd" clip-rule="evenodd" d="M0 8H2V9H3V10H4V12H3V13H2V14H0V13H-1V12H-2V10H-1V9H0V8Z" fill="#2C406E"/>
<path id="Union_8" fill-rule="evenodd" clip-rule="evenodd" d="M5 14H7V15H8V16H9V18H8V19H7V20H5V19H4V18H3V16H4V15H5V14Z" fill="#2C406E"/>
</g>
<g id="inside-rare">
<path id="fill-meat" fill-rule="evenodd" clip-rule="evenodd" d="M13 13H11V14H10V15H11V16H13V15H14V14H13V13Z" fill="#DB00FF"/>
<path id="static-shine" fill-rule="evenodd" clip-rule="evenodd" d="M13 13H12H11V14H12H13V13ZM13 14V15H14V14H13Z" fill="white" fill-opacity="0.59"/>
<path id="static-shadow" fill-rule="evenodd" clip-rule="evenodd" d="M11 14H10V15H11V16H13V15H11V14Z" fill="black" fill-opacity="0.17"/>
</g>
<g id="body-swol">
<g id="border">
<path id="static-border" fill-rule="evenodd" clip-rule="evenodd" d="M10 10H14V11H15V12H16V14H17V19H16V20H15V21H9V20H8V19H7V14H8V12H9V11H10V10ZM10 11V12H9V14H8V19H9V20H15V19H16V14H15V12H14V11H10Z" fill="black"/>
</g>
<path id="fill-color" fill-rule="evenodd" clip-rule="evenodd" d="M14 11H10V12H9V14H8V19H9V20H10H14H15V19H16V14H15V12H14V11Z" fill="#F8D1A0"/>
<g id="arm">
<path id="fill" fill-rule="evenodd" clip-rule="evenodd" d="M6 11H4V12H3V13V16H4V17H5H6V18H7H8V17V16V15V14H7V15H6V14H4V13H5H6V12V11Z" fill="#F8D1A0"/>
<path id="border_2" fill-rule="evenodd" clip-rule="evenodd" d="M6 10H4V11H3V12H2V16H3V17H4V18H6V19H8V18H6V17H4V16H3V12H4V11H6V12V13H4V14H6V15H7V14H8V13H7V12V11H6V10ZM7 13H6V14H7V13Z" fill="black"/>
</g>
<g id="arm_2">
<path id="fill_2" fill-rule="evenodd" clip-rule="evenodd" d="M18 11H20V12H21V13V16H20V17H19H18V18H17H16V17V16V15V14H17V15H18V14H20V13H19H18V12V11Z" fill="#F8D1A0"/>
<path id="border_3" fill-rule="evenodd" clip-rule="evenodd" d="M18 10H20V11H21V12H22V16H21V17H20V18H18V19H16V18H18V17H20V16H21V12H20V11H18V12V13H20V14H18V15H17V14H16V13H17V12V11H18V10ZM17 13H18V14H17V13Z" fill="black"/>
</g>
<path id="static-shadow-big" fill-rule="evenodd" clip-rule="evenodd" d="M13 11H11V12H10V13H9V14H11V13H12V12H13V11ZM9 16H8V17H6V18H8V19H9V20H13H14V19H13H11V18H10H9V17V16ZM4 16V17H5H6V16H5H4ZM4 16V15H3V16H4ZM7 14H8V15H7V14ZM16 17V16H18H20V15H21V16H20V17H18V18H16H15V17H16ZM3 12H4V14H3V12ZM21 12H20V14H21V12ZM6 13H5V12H6V13ZM18 13H19V12H18V13ZM16 14H17V15H16V14Z" fill="#DF977B"/>
<path id="static-shadow_2" fill-rule="evenodd" clip-rule="evenodd" d="M11 11H10V12H11V11ZM10 12H9V13H10V12ZM8 18H9V19H10V20H9V19H8V18ZM14 19H15V18H16V17H18V18H16V19H15V20H14V19Z" fill="#A74741"/>
</g>
<g id="mouth-beard">
<path id="static-mouth" fill-rule="evenodd" clip-rule="evenodd" d="M12 18H13V19H12V18Z" fill="#A74741"/>
<g id="beard">
<path id="Union_9" fill-rule="evenodd" clip-rule="evenodd" d="M13 17H10V18H9V20H10H14H15V18H14V17H13ZM12 18H13V19H12V18Z" fill="#2D2D2D"/>
<path id="Union_10" fill-rule="evenodd" clip-rule="evenodd" d="M10 17H11V18V19H12V20H10H9V18H10V17ZM15 18H14V19V20H15V19V18Z" fill="black" fill-opacity="0.55"/>
</g>
</g>
<g id="eyes-brow">
<path id="static-sclera" fill-rule="evenodd" clip-rule="evenodd" d="M13 15H14V17H13V15ZM10 15H11V17H10V15Z" fill="white"/>
<path id="static-pupils" fill-rule="evenodd" clip-rule="evenodd" d="M14 15H15V17H14V15ZM11 15H12V17H11V15Z" fill="black"/>
<path id="static-lids" fill-rule="evenodd" clip-rule="evenodd" d="M13 15H15V16H13V15ZM10 15H12V16H10V15Z" fill="black" fill-opacity="0.15"/>
<rect id="brow" x="10" y="14" width="5" height="1" fill="#672824"/>
</g>
<g id="accessory-gloves">
<path id="Union_11" fill-rule="evenodd" clip-rule="evenodd" d="M4 11H6V12V13H4V14H5V15H4V16H3V15V14V13V12H4V11ZM20 11H18V12V13H20V14H19V15H20V16H21V15V14V13V12H20V11Z" fill="#EEEBE1" fill-opacity="0.85"/>
<path id="shadow" fill-rule="evenodd" clip-rule="evenodd" d="M6 12H5V13H6V12ZM18 12H19V13H18V12ZM3 15H4V16H3V15ZM4 15H5V14H4V15ZM20 15H21V16H20V15ZM20 15H19V14H20V15ZM3 12H4V13H3V12ZM20 12H21V13H20V12Z" fill="black" fill-opacity="0.2"/>
</g>
</g>
</svg>
