<svg width="100%" height="100%" viewBox="0 0 24 24" fill="none" xmlns="http://www.w3.org/2000/svg" id="egg" shape-rendering="crispEdges">
  <g class="border">
    <path fill-rule="evenodd" clip-rule="evenodd" d="M14 10H10V11H9V12H8V14H7V19H8V20H9V21H15V20H16V19H17V14H16V12H15V11H14V10ZM14 11V12H15V14H16V19H15V20H9V19H8V14H9V12H10V11H14Z" fill="black"/>
  </g>
  <g id="rare" class="inside">
    <path fill-rule="evenodd" clip-rule="evenodd" d="M11 13H13V14H14V15H13V16H11V15H10V14H11V13Z" fill="#DB00FF"/>
    <path fill-rule="evenodd" clip-rule="evenodd" d="M11 13H12H13V14H12H11V13ZM11 14V15H9.99999V14H11Z" fill="white" fill-opacity="0.59"/>
    <path fill-rule="evenodd" clip-rule="evenodd" d="M13 14H14V15H13V16H11V15H13V14Z" fill="black" fill-opacity="0.17"/>
  </g>
  <g id="a1" class="body">
    <path fill-rule="evenodd" clip-rule="evenodd" d="M10 11H14V12H15V14H16V19H15V20H14H10H9V19H8V14H9V12H10V11Z" fill="#F9E8CF"/>
    <path fill-rule="evenodd" clip-rule="evenodd" d="M13 11H14V12H13V11ZM14 12H15V13H14V12ZM16 14H15V15H16V14ZM15 18H16V19H15V18ZM15 19V20H14V19H15ZM9 19H10V20H9V19ZM9 19H8V18H9V19Z" fill="black" fill-opacity="0.5"/>
    <path fill-rule="evenodd" clip-rule="evenodd" d="M13 11H11V12H12V13H13V15H14V17H13V18H12V19H10V20H12H15V19H16V15V14H15V13H14V12H13V11Z" fill="black" fill-opacity="0.29"/>
  </g>
  <g id="a5" class="mouth">
    <path fill-rule="evenodd" clip-rule="evenodd" d="M15 17H14V18H12H11H10V19H11H12H14V18H15V17Z" fill="black"/>
  </g>
  <g id="a9" class="eyes">
    <path fill-rule="evenodd" clip-rule="evenodd" d="M11 15H10V17H11V15ZM14 15H13V17H14V15Z" fill="white"/>
    <path fill-rule="evenodd" clip-rule="evenodd" d="M10 15H9V17H10V15ZM13 15H12V17H13V15Z" fill="black"/>
    <path fill-rule="evenodd" clip-rule="evenodd" d="M11 15H9V16H11V15ZM14 15H12V16H14V15Z" fill="black" fill-opacity="0.15"/>
  </g>
  <g id="cletus" class="hair">
    <path fill-rule="evenodd" clip-rule="evenodd" d="M10 11H11H12H13H14V12H15V14H16V15H15V14H14H13V13H12H11V14H10V15H9H8V14H9V12H10V11Z" fill="#FF8A00"/>
    <path fill-rule="evenodd" clip-rule="evenodd" d="M10 11H11V12H12V13H11V12H10V13H9V12H10V11ZM15 14H16V15H15V14ZM15 12H14V13H15V12ZM14 12H13V11H14V12ZM8 14H9V15H8V14Z" fill="black" fill-opacity="0.25"/>
  </g>
  <g id="carnage" class="clothes">
    <g>
      <path fill-rule="evenodd" clip-rule="evenodd" d="M10 11H14V12H15V14H16V19H15V20H14H10H9V19H8V14H9V12H10V11Z" fill="#D50000"/>
      <path fill-rule="evenodd" clip-rule="evenodd" d="M13 11H14V12H13V11ZM14 12H15V13H14V12ZM16 14H15V15H16V14ZM15 18H16V19H15V18ZM15 19V20H14V19H15ZM9 19H10V20H9V19ZM9 19H8V18H9V19Z" fill="black" fill-opacity="0.5"/>
      <path fill-rule="evenodd" clip-rule="evenodd" d="M13 11H11V12H12V13H13V15H14V17H13V18H12V19H10V20H12H15V19H16V15V14H15V13H14V12H13V11Z" fill="black" fill-opacity="0.29"/>
      <path fill-rule="evenodd" clip-rule="evenodd" d="M12 11H11V12H12V11ZM11 12V13H10V12H11ZM14 12H13V13H12V14H11V15H10V14H9H8V19H9V20H10H11H12H13H14H15V19H16V14H15V13H14V12Z" fill="#170606" fill-opacity="0.64"/>
    </g>
    <g>
      <path fill-rule="evenodd" clip-rule="evenodd" d="M13 13H14V14H15V16H14V17H13H12V16H11V15H12V14H13V13ZM10 15H9V14H8V17H9V16H10V15Z" fill="white"/>
    </g>
    <g>
      <path fill-rule="evenodd" clip-rule="evenodd" d="M15 17H14V18H15V17ZM10 19H9V18H14V19H13V20H10V19Z" fill="#FAED89"/>
    </g>
    <g>
      <path fill-rule="evenodd" clip-rule="evenodd" d="M14 7H15V9H14V7ZM14 9V10H13V9H14ZM7 8H9V9H7V8ZM7 10H6V9H7V10ZM7 10H8V11H7V10ZM9 9H10V11H9V9ZM17 11H16V12H18V11V10H21V11H22V10H21V9H18V10H17V11ZM18 19H17V20H18V19ZM19 18V19H18V18H19ZM19 16V18H20V16H19ZM19 15V16H18V15H19ZM20 14H19V15H20V14ZM22 14H20V13H22V14ZM22 16V14H23V16H22ZM22 16H21V17H22V16ZM5 15H4V16H5V18H4V20H5V21H6V20H7V19H6V20H5V18H6V16H5V15Z" fill="#D50000"/>
      <path fill-rule="evenodd" clip-rule="evenodd" d="M9 8H8V9H9V10H10V9H9V8ZM7 9H6V10H7V9ZM15 8H14V9H15V8ZM16 11H17V12H16V11ZM17 11V10H18V11H17ZM19 9H20V10H19V9ZM22 13H20V14H22V15H23V14H22V13ZM22 16H21V17H22V16ZM18 15H19V16H18V15ZM19 18H18V19H17V20H18V19H19V18ZM6 20H5V21H6V20ZM5 17H6V18H5V17ZM5 15H4V16H5V15Z" fill="black" fill-opacity="0.58"/>
    </g>
  </g>
  <style>
    <![CDATA[
      #egg:active{transform:scaleX(-1);}
    ]]>
  </style>
</svg>
