<svg width="24" height="24" viewBox="0 0 24 24" fill="none" xmlns="http://www.w3.org/2000/svg">
<g id="chikineg">
<rect width="24" height="24" fill="#7F1416"/>
<g id="inside-rare">
<path id="border" fill-rule="evenodd" clip-rule="evenodd" d="M12 14H13V15H12H11V14H12ZM10 16V15H11V16H10ZM10 18H9V16H10V18ZM14 18V19H13H11H10V18H11H13H14ZM14 16H15V18H14V16ZM14 16V15H13V16H14Z" fill="black"/>
<path id="fill" fill-rule="evenodd" clip-rule="evenodd" d="M11 15H12H13V16H14V18H13H10V17V16H11V15Z" fill="#FF00FF"/>
<path id="shadow" fill-rule="evenodd" clip-rule="evenodd" d="M13 16H14V17V18H13H12V17H13V16Z" fill="black" fill-opacity="0.25"/>
<path id="shine" fill-rule="evenodd" clip-rule="evenodd" d="M12 15H11V16H10V17H11V16H12V15Z" fill="white" fill-opacity="0.6"/>
</g>
<g id="body-long">
<g id="border_2">
<path id="static-border" fill-rule="evenodd" clip-rule="evenodd" d="M16 12H8V13H7V20H8V21H16V20H17V13H16V12ZM16 13V20H8V13H16Z" fill="black"/>
</g>
<g id="body">
<path id="fill-body" fill-rule="evenodd" clip-rule="evenodd" d="M15 13H9H8V14V20H9H15H16V13H15Z" fill="white"/>
<path id="Union" fill-rule="evenodd" clip-rule="evenodd" d="M9 13H11V14H9V13ZM10 19V18H9V16H10V15H9V14H8V20H9H10H11V19H10Z" fill="#EAD7D8"/>
</g>
<g id="static-feet">
<path id="feet" fill-rule="evenodd" clip-rule="evenodd" d="M11 21H9V22H11V21ZM15 21H13V22H15V21Z" fill="#F2E5E5"/>
<path id="shadows" fill-rule="evenodd" clip-rule="evenodd" d="M11 21H10V22H11V21ZM15 21H14V22H15V21Z" fill="black" fill-opacity="0.15"/>
</g>
<g id="beak">
<rect id="Rectangle 1243" x="12" y="19" width="2" height="1" fill="#F1BF16"/>
<rect id="Rectangle 1242" x="12" y="18" width="3" height="1" fill="#FFEC16"/>
</g>
</g>
<g id="eyes-regular">
<path id="static-sclera" fill-rule="evenodd" clip-rule="evenodd" d="M13 16H14V18H13V16ZM10 16H11V18H10V16Z" fill="#FF9216"/>
<path id="static-pupils" fill-rule="evenodd" clip-rule="evenodd" d="M14 16H15V18H14V16ZM11 16H12V18H11V16Z" fill="black"/>
<path id="static-lids" fill-rule="evenodd" clip-rule="evenodd" d="M13 16H15V17H13V16ZM10 16H12V17H10V16Z" fill="black" fill-opacity="0.15"/>
</g>
<g id="decoration">
<path id="Union_2" fill-rule="evenodd" clip-rule="evenodd" d="M4 1H1V2V4H2V2H4V1Z" fill="#F7CD37"/>
<path id="Union_3" fill-rule="evenodd" clip-rule="evenodd" d="M20 1H23V2V4H22V2H20V1Z" fill="#F7CD37"/>
<path id="Union_4" fill-rule="evenodd" clip-rule="evenodd" d="M20 23H23V22V20H22V22H20V23Z" fill="#F7CD37"/>
<path id="Union_5" fill-rule="evenodd" clip-rule="evenodd" d="M4 23H1V22V20H2V22H4V23Z" fill="#F7CD37"/>
<path id="CHIKIN EG" d="M4.4026 6V4.53896H5.86364V4.83117H4.98701V5.70779H5.86364V6H4.4026ZM6.15584 6V4.53896H6.74026V5.41558H7.03247V4.53896H7.61688V6H7.03247V5.70779H6.74026V6H6.15584ZM7.90909 6V5.70779H8.2013V4.83117H7.90909V4.53896H9.37013V4.83117H9.07792V5.70779H9.37013V6H7.90909ZM9.66234 6V4.53896H10.2468V5.12338H10.539V4.53896H11.1234V5.12338H10.8312V5.41558H11.1234V6H10.539V5.70779H10.2468V6H9.66234ZM11.4156 6V5.70779H11.7078V4.83117H11.4156V4.53896H12.8766V4.83117H12.5844V5.70779H12.8766V6H11.4156ZM13.1688 6V4.53896H14.0455V5.41558H14.3377V4.53896H14.6299V6H13.7532V5.12338H13.461V6H13.1688ZM16.0909 6V4.53896H17.5519V4.83117H16.6753V5.12338H17.2597V5.41558H16.6753V5.70779H17.5519V6H16.0909ZM17.8442 6V4.53896H19.3052V4.83117H18.4286V5.70779H18.7208V5.12338H19.3052V6H17.8442Z" fill="#F7CD37"/>
</g>
<g id="hat-yolk">
<g id="Group 153">
<path id="Union_6" fill-rule="evenodd" clip-rule="evenodd" d="M10 11H14V12H16V13H15V14H9V13H8V12H10V11Z" fill="#FFEC16"/>
<path id="Union_7" fill-rule="evenodd" clip-rule="evenodd" d="M8 12H9V13H8V12ZM15 13H9V14H15V13ZM15 13V12H16V13H15Z" fill="#F1BF16"/>
<path id="Union_8" fill-rule="evenodd" clip-rule="evenodd" d="M12 11H10V12H9V13H10V12H12V11Z" fill="white" fill-opacity="0.7"/>
</g>
<path id="Union_9" fill-rule="evenodd" clip-rule="evenodd" d="M14 10H10V11H8V12H7V13V14H8V13V12H10V11H14V12H16V13V14H17V13V12H16V11H14V10Z" fill="black"/>
</g>
</g>
</svg>
