<svg width="100%" height="100%" viewBox="0 0 24 24" fill="none" xmlns="http://www.w3.org/2000/svg" id="egg" shape-rendering="crispEdges">
<g class="border">
<path fill-rule="evenodd" clip-rule="evenodd" d="M14 10H10V11H9V12H8V14H7V19H8V20H9V21H15V20H16V19H17V14H16V12H15V11H14V10ZM14 11V12H15V14H16V19H15V20H9V19H8V14H9V12H10V11H14Z" fill="black"></path>
</g><g class="inside rare">
<path fill-rule="evenodd" clip-rule="evenodd" d="M11 13H13V14H14V15H13V16H11V15H10V14H11V13Z" fill="#DB00FF"></path>
<path fill-rule="evenodd" clip-rule="evenodd" d="M11 13H12H13V14H12H11V13ZM11 14V15H9.99999V14H11Z" fill="white" fill-opacity="0.59"></path>
<path fill-rule="evenodd" clip-rule="evenodd" d="M13 14H14V15H13V16H11V15H13V14Z" fill="black" fill-opacity="0.17"></path>
</g><g class="body bot">
<path fill-rule="evenodd" clip-rule="evenodd" d="M10 11H14V12H15V14H16V19H15V20H14H10H9V19H8V14H9V12H10V11Z" fill="#F0F6E7"></path>
<rect x="11" y="20" width="2" height="1" fill="#E08FA5"></rect>
</g><g class="mouth smirk">
<path fill-rule="evenodd" clip-rule="evenodd" d="M15 17H14V18H11V19H14V18H15V17Z" fill="black"></path>
</g><g class="eyes bot">
<path fill-rule="evenodd" clip-rule="evenodd" d="M9 15H10V16H11V17H10H9V16V15ZM14 16H13V15H12V16V17H13H14V16Z" fill="black"></path>
</g>
<style><![CDATA[
      #egg:active{transform:scaleX(-1);}
    ]]></style></svg>