<svg width="24" height="24" viewBox="0 0 24 24" fill="none" xmlns="http://www.w3.org/2000/svg">
<g id="Frame 45">
<rect width="24" height="24" fill="#963141"/>
<g id="inside-rare">
<path id="border" fill-rule="evenodd" clip-rule="evenodd" d="M12 11H14V12H12V11ZM11 13H12V12H11V13ZM10 14V13H11V14H10ZM10 16H9V15V14H10V15V16ZM13 16V17H10V16H13ZM14 15V16H13V15H14ZM14 15H15V13V12H14V13V15Z" fill="black"/>
<path id="fill" fill-rule="evenodd" clip-rule="evenodd" d="M13 12H12V13H11V14H10V16H11H12H13V15H14V12H13Z" fill="#FF00FF"/>
<path id="shadow" fill-rule="evenodd" clip-rule="evenodd" d="M13 13H12V14H11V15H12V14H13V13Z" fill="black" fill-opacity="0.25"/>
<rect id="dark-shadow" x="11" y="13" width="1" height="1" fill="black" fill-opacity="0.4"/>
<rect id="shine" x="12" y="12" width="2" height="1" fill="white" fill-opacity="0.5"/>
</g>
<g id="body-clown">
<path id="fill-root" fill-rule="evenodd" clip-rule="evenodd" d="M10 10H8V11H7V12H9V13H7V15H9V16V19H10V20H15V19H16V16V15H18V13H16V12H18V11H17V10H15V11H14V10H11V11H10V10Z" fill="#DEDFE6"/>
<path id="hair" fill-rule="evenodd" clip-rule="evenodd" d="M10 10H8V11H7V12H10V11V10ZM7 13H10V15V16H9V15H7V13ZM15 13H18V15H16V16H15V15V13ZM14 11H15V10H17V11V12H14V11ZM14 11H11V10H14V11Z" fill="#740114"/>
<path id="border_2" fill-rule="evenodd" clip-rule="evenodd" d="M8 9H9H10V10H9H8V9ZM7 11H8V10H7V11ZM7 12V11H6V12H7ZM7 13H9V12H7V13ZM7 15V13H6V15H7ZM9 19V16V15H7V16H8V19H9ZM10 20V19H9V20H10ZM15 20H10V21H15V20ZM16 19H15V20H16V19ZM18 15H16V16V19H17V16H18V15ZM18 13V15H19V13H18ZM18 12H16V13H18V12ZM18 11V12H19V11H18ZM17 10V11H18V10H17ZM15 10H16H17V9H16H15V10ZM14 11H15V10H14V9H13H12H11V10H10V11H11V12H10V13H11V12H13H14V13H15V12H14V11ZM14 11H13H11V10H12H13H14V11Z" fill="black"/>
<path id="static-shadow" fill-rule="evenodd" clip-rule="evenodd" d="M9 10H8V11H7V12H8V11H9V10ZM10 11H11V12H10V11ZM9 13V12H10V13H9ZM9 13V14H7V13H9ZM14 11H15V12H14V11ZM16 13H15V12H16V13ZM16 13H18V14H16V13ZM18 11H17V10H16V11H17V12H18V11ZM13 10H12V11H13V10Z" fill="#9D2039"/>
<path id="static-shadow_2" fill-rule="evenodd" clip-rule="evenodd" d="M8 10H9H10V11H11V12H10V13V16H11V18V20H10V19H9V16V15H8H7V13H8H9V12H8H7V11H8V10ZM11 11V10H12H13H14V11H13H12H11ZM15 18H16V19H15V18ZM15 19V20H14V19H15Z" fill="black" fill-opacity="0.3"/>
</g>
<g id="eyes-mad">
<path id="static-sclera" fill-rule="evenodd" clip-rule="evenodd" d="M13 16H14V18H13V16ZM10 16H11V18H10V16Z" fill="#F7CCD5"/>
<path id="static-pupils" fill-rule="evenodd" clip-rule="evenodd" d="M14 16H15V18H14V16ZM11 16H12V18H11V16Z" fill="black"/>
<path id="static-lids" fill-rule="evenodd" clip-rule="evenodd" d="M13 16H15V17H13V16ZM10 16H12V17H10V16Z" fill="black" fill-opacity="0.15"/>
</g>
<g id="mouth-colored">
<path id="mouth" d="M11 19H14V20H11V19Z" fill="#89061F"/>
</g>
<g id="nose-clown">
<rect id="Rectangle 1244" x="12" y="18" width="1" height="1" fill="#C63451"/>
</g>
</g>
</svg>
