<svg width="24" height="24" viewBox="0 0 24 24" fill="none" xmlns="http://www.w3.org/2000/svg">
<g id="ape-castle-2">
<rect width="24" height="24" transform="matrix(-1 0 0 1 24 0)" fill="#FE5722"/>
<g id="border">
<path id="Union" fill-rule="evenodd" clip-rule="evenodd" d="M10 10H14V11H15V12H16V14H17V19H16V20H15V21H9V20H8V19H7V14H8V12H9V11H10V10ZM10 11V12H9V14H8V19H9V20H15V19H16V14H15V12H14V11H10Z" fill="black"/>
</g>
<g id="inside-rare">
<path id="fill-meat" fill-rule="evenodd" clip-rule="evenodd" d="M13 13H11V14H10V15H11V16H13V15H14V14H13V13Z" fill="#DB00FF"/>
<path id="static-shine" fill-rule="evenodd" clip-rule="evenodd" d="M13 13H12H11V14H12H13V13ZM13 14V15H14V14H13Z" fill="white" fill-opacity="0.59"/>
<path id="static-shadow" fill-rule="evenodd" clip-rule="evenodd" d="M11 14H10V15H11V16H13V15H11V14Z" fill="black" fill-opacity="0.17"/>
</g>
<g id="body-ape">
<path id="fill-color" fill-rule="evenodd" clip-rule="evenodd" d="M14 11H10V12H9V14H8V19H9V20H10H14H15V19H16V14H15V12H14V11Z" fill="#5E4035"/>
<path id="static-shadow_2" fill-rule="evenodd" clip-rule="evenodd" d="M11 11H10V12H11V11ZM10 12H9V13H10V12ZM8 14H9V15H8V14ZM9 18H8V19H9V18ZM9 19V20H10V19H9ZM15 19H14V20H15V19ZM15 19H16V18H15V19Z" fill="black" fill-opacity="0.5"/>
<path id="static-shadow-big" fill-rule="evenodd" clip-rule="evenodd" d="M11 11H13V12H12V13H11V15H10V17H11V18H12V19H14V20H12H9V19H8V15V14H9V13H10V12H11V11Z" fill="black" fill-opacity="0.29"/>
<path id="Union_2" fill-rule="evenodd" clip-rule="evenodd" d="M15 14H10V15H9V16V17V18H10V19H11V20H14V19H15V18V17H16V16V15H15V14ZM15 16V15H13V16V17H14H15V16ZM10 15H12V16V17H10V16V15Z" fill="#926E60"/>
</g>
<g id="mouth-flat">
<path id="static-mouth" d="M14 18H11V19H14V18Z" fill="black"/>
</g>
<g id="eyes-a9">
<path id="static-sclera" fill-rule="evenodd" clip-rule="evenodd" d="M13 15H14V17H13V15ZM10 15H11V17H10V15Z" fill="white"/>
<path id="static-pupils" fill-rule="evenodd" clip-rule="evenodd" d="M14 15H15V17H14V15ZM11 15H12V17H11V15Z" fill="black"/>
<path id="static-lids" fill-rule="evenodd" clip-rule="evenodd" d="M13 15H15V16H13V15ZM10 15H12V16H10V15Z" fill="black" fill-opacity="0.15"/>
</g>
<g id="hat-party_hat">
<path id="Union_3" fill-rule="evenodd" clip-rule="evenodd" d="M9 10H10H11H12H14H15V13H14V14H12H11H10V13H9V10Z" fill="#F8EE42"/>
<path id="Union_4" fill-rule="evenodd" clip-rule="evenodd" d="M11 11H10V12H11V11ZM14 11H13V12H14V11Z" fill="black" fill-opacity="0.3"/>
<path id="Union_5" fill-rule="evenodd" clip-rule="evenodd" d="M15 12H14V13H15V12ZM10 12H9V13H10V12ZM12 12H13V13H12H11V12H12Z" fill="#CBDB3B"/>
<path id="Union_6" fill-rule="evenodd" clip-rule="evenodd" d="M11 10H10V11H11V10ZM14 10H13V11H14V10Z" fill="black" fill-opacity="0.55"/>
<path id="Union_7" fill-rule="evenodd" clip-rule="evenodd" d="M14 9H15V10H14V9ZM15 13V11V10H16V11V13H15ZM9 13H10H13H15V14H13H10H9V13ZM8 11V13H9V11V10H10V9H9V10H8V11ZM13 9H11V10H13V9Z" fill="black"/>
</g>
</g>
</svg>
