<svg width="24" height="24" viewBox="0 0 24 24" fill="none" xmlns="http://www.w3.org/2000/svg">
<g id="Group 134">
<rect width="24" height="24" fill="#A1E9F7"/>
<g id="inside-rare">
<path id="border" fill-rule="evenodd" clip-rule="evenodd" d="M12 14H13V15H12H11V14H12ZM10 16V15H11V16H10ZM10 18H9V16H10V18ZM14 18V19H13H11H10V18H11H13H14ZM14 16H15V18H14V16ZM14 16V15H13V16H14Z" fill="black"/>
<path id="fill" fill-rule="evenodd" clip-rule="evenodd" d="M11 15H12H13V16H14V18H13H10V17V16H11V15Z" fill="#FF00FF"/>
<path id="shadow" fill-rule="evenodd" clip-rule="evenodd" d="M13 16H14V17V18H13H12V17H13V16Z" fill="black" fill-opacity="0.25"/>
<path id="shine" fill-rule="evenodd" clip-rule="evenodd" d="M12 15H11V16H10V17H11V16H12V15Z" fill="white" fill-opacity="0.6"/>
</g>
<g id="body-donkey">
<g id="border_2">
<path id="static-border" fill-rule="evenodd" clip-rule="evenodd" d="M15 12H9V13H8V14H7V20H8V21H16V20H17V14H16V13H15V12ZM15 13V14H16V20H8V14H9V13H15Z" fill="black"/>
</g>
<g id="body">
<path id="fill-body" fill-rule="evenodd" clip-rule="evenodd" d="M9 13H15V14H16V20H15H9H8V14H9V13Z" fill="#2A2829"/>
<path id="Union" fill-rule="evenodd" clip-rule="evenodd" d="M14 13H11V14V15H10V16H9V19H10V20H12H15H16V16H15V15H14V14V13Z" fill="#EBEBEB"/>
<path id="Union_2" fill-rule="evenodd" clip-rule="evenodd" d="M11 18H10V20H11H16V19H15V18H12H11Z" fill="#C2C2C2"/>
<path id="Union_3" fill-rule="evenodd" clip-rule="evenodd" d="M9 13H10H12V14H10V15H9V18H10V19H11V20H10H9H8V14H9V13Z" fill="black" fill-opacity="0.5"/>
</g>
<g id="static-feet">
<path id="feet" fill-rule="evenodd" clip-rule="evenodd" d="M11 21H9V22H11V21ZM15 21H13V22H15V21Z" fill="#6B5256"/>
<path id="shadows" fill-rule="evenodd" clip-rule="evenodd" d="M11 21H10V22H11V21ZM15 21H14V22H15V21Z" fill="black" fill-opacity="0.15"/>
</g>
<g id="Group 148">
<path id="Union_4" fill-rule="evenodd" clip-rule="evenodd" d="M17 9H18V10H19V11H18V12H17H16V13H15V12H16V11H17H18V10H17H16H15V11H14V12V13H13V12V11H14V10H15V9H16H17ZM8 9H7V10H8H9H10V9H9H8ZM11 11H10V10H11V11ZM11 11V12V13H12V12V11H11ZM7 11V10H6V11H7ZM9 12V11H8H7V12H8H9ZM9 12V13H10V12H9Z" fill="black"/>
<path id="Union_5" fill-rule="evenodd" clip-rule="evenodd" d="M15 10H18V11H16V12H15V13H14V12V11H15V10ZM10 10H7V11H9V12H10V13H11V12V11H10V10Z" fill="#2C2829"/>
<path id="Union_6" fill-rule="evenodd" clip-rule="evenodd" d="M16 11H15V12H16V11ZM15 12H14V13H15V12ZM9 11H10V12H11V13H10V12H9V11Z" fill="#695356"/>
<path id="Union_7" fill-rule="evenodd" clip-rule="evenodd" d="M17 10H18V11H17V10ZM15 12V13H14V12V11H15V12ZM8 10H7V11H8V10ZM10 12V13H11V12V11H10V12Z" fill="black" fill-opacity="0.25"/>
</g>
</g>
<g id="nose-donkey">
<path id="Union_8" fill-rule="evenodd" clip-rule="evenodd" d="M13 19H12V20H13V19ZM15 19H14V20H15V19Z" fill="#434343"/>
</g>
<g id="eyes-puppy">
<path id="Union_9" fill-rule="evenodd" clip-rule="evenodd" d="M11 16H10V18H11H12V17H11V16ZM14 16H13V18H14H15V17H14V16Z" fill="black"/>
<path id="Union_10" fill-rule="evenodd" clip-rule="evenodd" d="M12 16H11V17H12V16ZM15 16H14V17H15V16Z" fill="white"/>
</g>
</g>
</svg>
