<svg width="24" height="24" viewBox="0 0 24 24" fill="none" xmlns="http://www.w3.org/2000/svg">
<g id="Frame 78">
<rect width="24" height="24" fill="#C0E8E9"/>
<g id="inside-rare">
<path id="border" fill-rule="evenodd" clip-rule="evenodd" d="M12 11H14V12H12V11ZM11 13H12V12H11V13ZM10 14V13H11V14H10ZM10 16H9V15V14H10V15V16ZM13 16V17H10V16H13ZM14 15V16H13V15H14ZM14 15H15V13V12H14V13V15Z" fill="black"/>
<path id="fill" fill-rule="evenodd" clip-rule="evenodd" d="M13 12H12V13H11V14H10V16H11H12H13V15H14V12H13Z" fill="#FF00FF"/>
<path id="shadow" fill-rule="evenodd" clip-rule="evenodd" d="M13 13H12V14H11V15H12V14H13V13Z" fill="black" fill-opacity="0.25"/>
<rect id="dark-shadow" x="11" y="13" width="1" height="1" fill="black" fill-opacity="0.4"/>
<rect id="shine" x="12" y="12" width="2" height="1" fill="white" fill-opacity="0.5"/>
</g>
<g id="body-bot">
<path id="fill-root" fill-rule="evenodd" clip-rule="evenodd" d="M10 10H8V11H7V12H9V13H7V15H9V16V19H10V20H15V19H16V16V15H18V13H16V12H18V11H17V10H15V11H14V10H11V11H10V10Z" fill="black"/>
<path id="border_2" fill-rule="evenodd" clip-rule="evenodd" d="M8 9H9H10V10H9H8V9ZM7 11V10H8V11H7ZM7 12H6V11H7V12ZM7 13V12H9V13H7ZM7 15H6V13H7V15ZM9 19H8V16H7V15H9V16V19ZM10 20H9V19H10V20ZM15 20V21H10V20H15ZM16 19V20H15V19H16ZM18 15V16H17V19H16V16V15H18ZM18 13H19V15H18V13ZM18 12V13H16V12H18ZM18 11H19V12H18V11ZM17 10H18V11H17V10ZM15 10V9H16H17V10H16H15ZM14 10H15V11H14V10ZM11 10V9H12H13H14V10H13H12H11ZM11 10H10V11H11V10ZM11 14V13H13H14V14H13H11ZM11 14V15H10V14H11ZM14 14V15H15V14H14Z" fill="black"/>
<path id="Union" fill-rule="evenodd" clip-rule="evenodd" d="M9 11H8V12H9V11ZM17 11H16V12H17V11Z" fill="white"/>
</g>
<g id="eyes-bot">
<path id="Union_2" fill-rule="evenodd" clip-rule="evenodd" d="M11 16H10V17V18H11V17H12V16H11ZM14 16H15V17H14V18H13V17V16H14Z" fill="white"/>
</g>
<g id="mouth-wahwah">
<rect id="Rectangle 2803" x="11" y="20" width="1" height="1" fill="white"/>
<rect id="Rectangle 2804" x="10" y="19" width="1" height="1" fill="white"/>
<rect id="Rectangle 2805" x="12" y="19" width="1" height="1" fill="white"/>
<rect id="Rectangle 2806" x="13" y="20" width="1" height="1" fill="white"/>
<rect id="Rectangle 2807" x="14" y="19" width="1" height="1" fill="white"/>
</g>
</g>
</svg>
