<svg width="24" height="24" viewBox="0 0 24 24" fill="none" xmlns="http://www.w3.org/2000/svg">
<g id="template">
<g id="hair-halo">
<path id="Union" fill-rule="evenodd" clip-rule="evenodd" d="M8 7H16V8H17V9H18V11H17V12H16V13H8V12H7V11H6V9H7V8H8V7ZM9 12V11H8V10V9H10V8H14V9H16V10V11H15V12H9Z" fill="#FFD84D"/>
<path id="Union_2" fill-rule="evenodd" clip-rule="evenodd" d="M7 9H8V11H9V12H15V11H16V9H17V10H18V11H17V12H16V13H8V12H7V11H6V10H7V9Z" fill="black" fill-opacity="0.25"/>
</g>
<g id="border">
<path id="Union_3" fill-rule="evenodd" clip-rule="evenodd" d="M14 10H10V11H9V12H8V14H7V19H8V20H9V21H15V20H16V19H17V14H16V12H15V11H14V10ZM14 11V12H15V14H16V19H15V20H9V19H8V14H9V12H10V11H14Z" fill="black"/>
</g>
<g id="inside-rare">
<path id="fill-meat" fill-rule="evenodd" clip-rule="evenodd" d="M11 13H13V14H14V15H13V16H11V15H10V14H11V13Z" fill="#DB00FF"/>
<path id="static-shine" fill-rule="evenodd" clip-rule="evenodd" d="M11 13H12H13V14H12H11V13ZM11 14V15H9.99999V14H11Z" fill="white" fill-opacity="0.59"/>
<path id="static-shadow" fill-rule="evenodd" clip-rule="evenodd" d="M13 14H14V15H13V16H11V15H13V14Z" fill="black" fill-opacity="0.17"/>
</g>
<g id="body-a1">
<path id="fill-color" fill-rule="evenodd" clip-rule="evenodd" d="M10 11H14V12H15V14H16V19H15V20H14H10H9V19H8V14H9V12H10V11Z" fill="#FFD84D" fill-opacity="0.9"/>
<path id="static-shadow_2" fill-rule="evenodd" clip-rule="evenodd" d="M13 11H14V12H13V11ZM14 12H15V13H14V12ZM16 14H15V15H16V14ZM15 18H16V19H15V18ZM15 19V20H14V19H15ZM9 19H10V20H9V19ZM9 19H8V18H9V19Z" fill="black" fill-opacity="0.5"/>
<path id="static-shadow-big" fill-rule="evenodd" clip-rule="evenodd" d="M13 11H11V12H12V13H13V15H14V17H13V18H12V19H10V20H12H15V19H16V15V14H15V13H14V12H13V11Z" fill="black" fill-opacity="0.29"/>
</g>
<g id="mouth-a5">
<path id="static-mouth" fill-rule="evenodd" clip-rule="evenodd" d="M15 17H14V18H12H11H10V19H11H12H14V18H15V17Z" fill="black"/>
</g>
<g id="eyes-a9">
<path id="static-sclera" fill-rule="evenodd" clip-rule="evenodd" d="M11 15H10V17H11V15ZM14 15H13V17H14V15Z" fill="white"/>
<path id="static-pupils" fill-rule="evenodd" clip-rule="evenodd" d="M10 15H9V17H10V15ZM13 15H12V17H13V15Z" fill="black"/>
<path id="static-lids" fill-rule="evenodd" clip-rule="evenodd" d="M11 15H9V16H11V15ZM14 15H12V16H14V15Z" fill="black" fill-opacity="0.15"/>
</g>
<path id="Union_4" opacity="0.5" fill-rule="evenodd" clip-rule="evenodd" d="M10 8H11V9H12H13V8H14V9H13V10H12H11V9H10V8ZM16 9H15V10H16V9ZM15 11V10H14V11H15ZM15 11V12H16H17V11H16H15ZM9 10H10V11H9V12H8H7V11H8H9V10ZM9 10V9H8V10H9ZM8 14V13H6V14H8ZM7 16V15H5V16H7ZM7 17V18H5V17H7ZM8 19H7V20H8V19ZM8 21H9V20H8V21ZM7 21V22H8V21H7ZM7 21H6V20H7V21ZM16 20H15V21H16V20ZM17 20V19H16V20H17ZM17 21H18V20H17V21ZM17 21V22H16V21H17ZM19 17H17V18H19V17ZM17 15H19V16H17V15ZM11 21H10V22H11V21ZM10 22H9V23H10V22ZM14 21H13V22H14V21ZM14 22V23H15V22H14ZM18 13H16V14H18V13Z" fill="#FFE76B"/>
<path id="Union_5" opacity="0.15" fill-rule="evenodd" clip-rule="evenodd" d="M16 9H15V10H16V9ZM8 11H7V12H8V11ZM9 12H8V13H7V14H9V13V12ZM9 12H10V11H9V12ZM8 16V15H6V16H8ZM8 17V18H9V19H10V20H11V21H10V20H9V19H8V18H6V17H8ZM6 20H7V21H8V22H7V21H6V20ZM15 19H14V20H15V19ZM16 18H15V19H16V18ZM16 18V17H18V18H16ZM14 20H13V21H14V20ZM16 21H17V20H18V21H17V22H16V21ZM16 15H18V16H16V15ZM9 22H10V23H9V22ZM14 22H15V23H14V22ZM17 13H16V12H15V13V14H17V13ZM14 12H15V11H14V12ZM16 11V12H17V11H16ZM8 9H9V10H8V9ZM10 9H11V10H12H13V9H14V10H13V11H12H11V10H10V9Z" fill="#FFE76B"/>
</g>
</svg>
