<svg width="24" height="24" viewBox="0 0 24 24" fill="none" xmlns="http://www.w3.org/2000/svg">
<g id="mieggle">
<rect width="24" height="24" fill="#FF7701"/>
<g id="inside-rare">
<path id="fill-meat" fill-rule="evenodd" clip-rule="evenodd" d="M13 13H11V14H10V15H11V16H13V15H14V14H13V13Z" fill="#DB00FF"/>
<path id="static-shine" fill-rule="evenodd" clip-rule="evenodd" d="M13 13H12H11V14H12H13V13ZM13 14V15H14V14H13Z" fill="white" fill-opacity="0.59"/>
<path id="static-shadow" fill-rule="evenodd" clip-rule="evenodd" d="M11 14H10V15H11V16H13V15H11V14Z" fill="black" fill-opacity="0.17"/>
</g>
<g id="body-a1">
<path id="Union" fill-rule="evenodd" clip-rule="evenodd" d="M10 10H14V11H15V12H16V14H17V19H16V20H15V21H9V20H8V19H7V14H8V12H9V11H10V10ZM10 11V12H9V14H8V19H9V20H15V19H16V14H15V12H14V11H10Z" fill="black"/>
<path id="fill-color" fill-rule="evenodd" clip-rule="evenodd" d="M14 11H10V12H9V14H8V19H9V20H10H14H15V19H16V14H15V12H14V11Z" fill="white"/>
<path id="static-shadow_2" fill-rule="evenodd" clip-rule="evenodd" d="M11 11H10V12H11V11ZM10 12H9V13H10V12ZM8 14H9V15H8V14ZM9 18H8V19H9V18ZM9 19V20H10V19H9ZM15 19H14V20H15V19ZM15 19H16V18H15V19Z" fill="black" fill-opacity="0.5"/>
<path id="static-shadow-big" fill-rule="evenodd" clip-rule="evenodd" d="M11 11H13V12H12V13H11V15H10V17H11V18H12V19H14V20H12H9V19H8V15V14H9V13H10V12H11V11Z" fill="black" fill-opacity="0.29"/>
</g>
<g id="mouth-a5">
<path id="static-mouth" fill-rule="evenodd" clip-rule="evenodd" d="M9 17H10V18H12H13H14V19H13H12H10V18H9V17Z" fill="black"/>
</g>
<g id="eyes-hole">
<g id="eyes-a9">
<path id="static-pupils" fill-rule="evenodd" clip-rule="evenodd" d="M13 15H15V17H13V15ZM10 15H12V17H10V15Z" fill="black"/>
</g>
<path id="Union_2" fill-rule="evenodd" clip-rule="evenodd" d="M11 15H10V16H11V15ZM14 15H13V16H14V15Z" fill="#4D4D4D"/>
</g>
<g id="hair-slick">
<path id="Union_3" fill-rule="evenodd" clip-rule="evenodd" d="M10 8H14V9H16V10H17V11V12H18V16H17V19H16V16V14H15V13V12H14V11H10V12H9V13V14H8V18H7V17H6V13H5V12H6V11H7V10H8V9H10V8Z" fill="#622010"/>
<path id="Union_4" fill-rule="evenodd" clip-rule="evenodd" d="M14 9H11V10H10V11H11V10H14V9ZM9 11H8V12H7V13H8V12H9V11ZM6 14H7V15H6V14ZM17 12H16V13H17V12Z" fill="#803826"/>
<path id="Union_5" fill-rule="evenodd" clip-rule="evenodd" d="M11 10H15V11H16V12V14H15V12H14V11H11V10ZM16 14V15H17V14H16ZM9 11H10V12H9V11ZM9 12V13V14H8V13V12H9ZM7 15H8V16H7V15ZM8 17H7V18H8V17Z" fill="#401A0F"/>
<path id="Union_6" fill-rule="evenodd" clip-rule="evenodd" d="M17 14H18V15H17V14ZM16 17H17V19H16V17ZM8 18H7V19H8V18Z" fill="black"/>
</g>
<g id="clothes-robe">
<path id="Union_7" fill-rule="evenodd" clip-rule="evenodd" d="M7 17H8V18H9V19H10V20H14V19H15V20H16V21H8V20H7V17Z" fill="#3E5189"/>
<path id="Union_8" fill-rule="evenodd" clip-rule="evenodd" d="M10 19H9V20H10V21H11V20H10V19ZM14 20H15V21H14V20Z" fill="#2C0101"/>
<path id="Union_9" fill-rule="evenodd" clip-rule="evenodd" d="M7 18H8V19H7V18ZM9 19H8V20H9H10V19H9Z" fill="white" fill-opacity="0.1"/>
<path id="shadows" fill-rule="evenodd" clip-rule="evenodd" d="M7 17H8V18V19H9V20H10V21H9H8V20H7V19V18V17ZM15 19H14V20H15V21H16V20H15V19Z" fill="black" fill-opacity="0.6"/>
<rect id="Rectangle 4722" x="12" y="20" width="1" height="1" fill="black"/>
</g>
<g id="accessory-knife">
<g id="Group 212">
<rect id="static-handle" width="3" height="1" transform="matrix(-1 0 0 1 17 19)" fill="#FFE794"/>
<path id="static-blade" fill-rule="evenodd" clip-rule="evenodd" d="M17 19H21V20H20V21H17V20V19Z" fill="#EDEDED"/>
<rect id="static-shadow_3" width="3" height="1" transform="matrix(-1 0 0 1 20 20)" fill="black" fill-opacity="0.13"/>
<rect id="static-shine_2" width="1" height="1" transform="matrix(-1 0 0 1 20 20)" fill="white" fill-opacity="0.38"/>
</g>
<rect id="Rectangle 4714" x="19" y="21" width="1" height="1" fill="#810303"/>
<rect id="Rectangle 4710" x="20" y="19" width="1" height="1" fill="#4A0202"/>
<rect id="Rectangle 4715" x="19" y="20" width="1" height="1" fill="#4A0202"/>
<rect id="Rectangle 4713" x="16" y="19" width="1" height="1" fill="#4A0202"/>
<rect id="Rectangle 4630" x="18" y="20" width="1" height="1" fill="#2C0101"/>
<rect id="Rectangle 4711" x="20" y="19" width="1" height="1" fill="#4A0202"/>
</g>
</g>
</svg>
