<svg width="24" height="24" viewBox="0 0 24 24" fill="none" xmlns="http://www.w3.org/2000/svg">
<g id="kendregg">
<g id="border">
<path id="Union" fill-rule="evenodd" clip-rule="evenodd" d="M14 10H10V11H9V12H8V14H7V19H8V20H9V21H15V20H16V19H17V14H16V12H15V11H14V10ZM14 11V12H15V14H16V19H15V20H9V19H8V14H9V12H10V11H14Z" fill="black"/>
</g>
<g id="inside-rare">
<path id="fill-meat" fill-rule="evenodd" clip-rule="evenodd" d="M11 13H13V14H14V15H13V16H11V15H10V14H11V13Z" fill="#DB00FF"/>
<path id="static-shine" fill-rule="evenodd" clip-rule="evenodd" d="M11 13H12H13V14H12H11V13ZM11 14V15H9.99999V14H11Z" fill="white" fill-opacity="0.59"/>
<path id="static-shadow" fill-rule="evenodd" clip-rule="evenodd" d="M13 14H14V15H13V16H11V15H13V14Z" fill="black" fill-opacity="0.17"/>
</g>
<g id="body-a1">
<path id="fill-color" fill-rule="evenodd" clip-rule="evenodd" d="M10 11H14V12H15V14H16V19H15V20H14H10H9V19H8V14H9V12H10V11Z" fill="#976643"/>
<path id="static-shadow_2" fill-rule="evenodd" clip-rule="evenodd" d="M13 11H14V12H13V11ZM14 12H15V13H14V12ZM16 14H15V15H16V14ZM15 18H16V19H15V18ZM15 19V20H14V19H15ZM9 19H10V20H9V19ZM9 19H8V18H9V19Z" fill="black" fill-opacity="0.5"/>
<path id="static-shadow-big" fill-rule="evenodd" clip-rule="evenodd" d="M13 11H11V12H12V13H13V15H14V17H13V18H12V19H10V20H12H15V19H16V15V14H15V13H14V12H13V11Z" fill="black" fill-opacity="0.29"/>
</g>
<g id="mouth-flat">
<path id="static-mouth" fill-rule="evenodd" clip-rule="evenodd" d="M11 18H10V19H11H12H13V18H12H11Z" fill="black"/>
</g>
<g id="eyes-a9">
<path id="static-sclera" fill-rule="evenodd" clip-rule="evenodd" d="M11 15H10V17H11V15ZM14 15H13V17H14V15Z" fill="white"/>
<path id="static-pupils" fill-rule="evenodd" clip-rule="evenodd" d="M10 15H9V17H10V15ZM13 15H12V17H13V15Z" fill="black"/>
<path id="static-lids" fill-rule="evenodd" clip-rule="evenodd" d="M11 15H9V16H11V15ZM14 15H12V16H14V15Z" fill="black" fill-opacity="0.15"/>
</g>
<g id="clothes-t_shirt">
<path id="Union_2" fill-rule="evenodd" clip-rule="evenodd" d="M15 20H14V21H15V20ZM10 20H9V21H10V20Z" fill="#E6DCCF"/>
</g>
<g id="hair-short">
<path id="Union_3" fill-rule="evenodd" clip-rule="evenodd" d="M14 11H13V13H14V11ZM11 11H10V13H11V11Z" fill="black"/>
<path id="Union_4" fill-rule="evenodd" clip-rule="evenodd" d="M12 11H13V13H12H11V11H12ZM15 12H14V14H15V12ZM15 14V16H16V14H15ZM9 12H10V14H9V15H8V14H9V12Z" fill="black" fill-opacity="0.75"/>
</g>
<g id="accessory-crown_of_thorns">
<path id="Union_5" fill-rule="evenodd" clip-rule="evenodd" d="M16 11H17V12H16V13H15V14H14V13H12V14H11V13H12V12H10V13H9V14H8V13H9V12H8V11H9V12H10V11H12V12H14V11H15V12H16V11ZM15 12H14V13H15V12Z" fill="#E6DCCF"/>
</g>
</g>
</svg>
