<svg width="24" height="24" viewBox="0 0 24 24" fill="none" xmlns="http://www.w3.org/2000/svg">
<g id="Group 129">
<rect width="24" height="24" fill="#FFED07"/>
<g id="inside-rare">
<path id="border" fill-rule="evenodd" clip-rule="evenodd" d="M12 14H13V15H12H11V14H12ZM10 16V15H11V16H10ZM10 18H9V16H10V18ZM14 18V19H13H11H10V18H11H13H14ZM14 16H15V18H14V16ZM14 16V15H13V16H14Z" fill="black"/>
<path id="fill" fill-rule="evenodd" clip-rule="evenodd" d="M11 15H12H13V16H14V18H13H10V17V16H11V15Z" fill="#FF00FF"/>
<path id="shadow" fill-rule="evenodd" clip-rule="evenodd" d="M13 16H14V17V18H13H12V17H13V16Z" fill="black" fill-opacity="0.25"/>
<path id="shine" fill-rule="evenodd" clip-rule="evenodd" d="M12 15H11V16H10V17H11V16H12V15Z" fill="white" fill-opacity="0.6"/>
</g>
<g id="body-berry">
<g id="border_2">
<path id="static-border" fill-rule="evenodd" clip-rule="evenodd" d="M15 12H9V13H8V14H7V20H8V21H16V20H17V14H16V13H15V12ZM15 13V14H16V20H8V14H9V13H15Z" fill="black"/>
</g>
<g id="body">
<path id="fill-body" fill-rule="evenodd" clip-rule="evenodd" d="M9 13H15V14H16V20H15H9H8V14H9V13Z" fill="#E34D52"/>
<path id="Union" fill-rule="evenodd" clip-rule="evenodd" d="M9 13H10H12V14H10V15H9V18H10V19H11V20H10H9H8V14H9V13Z" fill="black" fill-opacity="0.3"/>
</g>
<g id="static-feet">
<path id="feet" fill-rule="evenodd" clip-rule="evenodd" d="M11 21H9V22H11V21ZM15 21H13V22H15V21Z" fill="#2D944C"/>
<path id="shadows" fill-rule="evenodd" clip-rule="evenodd" d="M11 21H10V22H11V21ZM15 21H14V22H15V21Z" fill="black" fill-opacity="0.15"/>
</g>
<path id="spots" fill-rule="evenodd" clip-rule="evenodd" d="M8 13H9V14H8V13ZM12 14H11V15H12V14ZM15 15H16V16H15V15ZM15 18H16V19H15V18ZM10 18H9V19H10V20H11V19H10V18ZM8 16H9V17H8V16ZM14 13H13V14H14V13ZM12 16H13V17H12V16Z" fill="#EC5C67"/>
<g id="beak">
<path id="static-beak" fill-rule="evenodd" clip-rule="evenodd" d="M15 18H12V19V20H14V19H15V18Z" fill="#F2BC2F"/>
<rect id="static-shadow" x="12" y="19" width="2" height="1" fill="black" fill-opacity="0.15"/>
<g id="static-shine" style="mix-blend-mode:overlay">
<rect x="12" y="18" width="3" height="1" fill="white" fill-opacity="0.2"/>
</g>
<g id="Rectangle 1239" style="mix-blend-mode:overlay">
<rect x="12" y="18" width="3" height="1" fill="white" fill-opacity="0.2"/>
</g>
</g>
</g>
<g id="hat-leaf">
<path id="comb" fill-rule="evenodd" clip-rule="evenodd" d="M11 9H12V10V11H13H14V10H15H16V11H15V12H16V13H17V14H15V13H14H13V14V15H12V14H11V13H10V14H9V15H8V14H7V13H8V12H9V11H8V10H9H10V11H11V10V9ZM12 20H13V21H12V20Z" fill="#2D944C"/>
<path id="Union_2" fill-rule="evenodd" clip-rule="evenodd" d="M11 9H12V10H11V9ZM9 10H8V11H9V10ZM15 11H14V12H15V11ZM15 11H16V10H15V11ZM16 13V12H15V13H16ZM16 13V14H17V13H16ZM12 13H13V14V15H12V14V13ZM9 13H10V12H11V13H10V14H9V15H8V14V13H9ZM12 11H13V12H12V11Z" fill="black" fill-opacity="0.21"/>
</g>
<g id="eyes-regular">
<path id="static-sclera" fill-rule="evenodd" clip-rule="evenodd" d="M13 16H14V18H13V16ZM10 16H11V18H10V16Z" fill="white"/>
<path id="static-pupils" fill-rule="evenodd" clip-rule="evenodd" d="M14 16H15V18H14V16ZM11 16H12V18H11V16Z" fill="black"/>
<path id="static-lids" fill-rule="evenodd" clip-rule="evenodd" d="M13 16H15V17H13V16ZM10 16H12V17H10V16Z" fill="black" fill-opacity="0.15"/>
</g>
<g id="mouth-a7">
<rect id="Rectangle 1770" x="12" y="19" width="1" height="1" fill="black"/>
</g>
</g>
</svg>
