<svg width="100%" height="100%" viewBox="0 0 24 24" fill="none" xmlns="http://www.w3.org/2000/svg" id="egg" shape-rendering="crispEdges">
  <g class="border">
    <path fill-rule="evenodd" clip-rule="evenodd" d="M14 10H10V11H9V12H10V11H14V12H15V11H14V10ZM16 13H15V14H16V19H15V20H9V19H8V14H9V13H8V14H7V19H8V20H9V21H15V20H16V19H17V14H16V13Z" fill="black"/>
  </g>
  <g class="inside rare">
    <path fill-rule="evenodd" clip-rule="evenodd" d="M11 13H13V14H14V15H13V16H11V15H10V14H11V13Z" fill="#DB00FF"/>
    <path fill-rule="evenodd" clip-rule="evenodd" d="M11 13H12H13V14H12H11V13ZM11 14V15H10V14H11Z" fill="white" fill-opacity="0.59"/>
    <path fill-rule="evenodd" clip-rule="evenodd" d="M13 14H14V15H13V16H11V15H13V14Z" fill="black" fill-opacity="0.17"/>
  </g>
  <g class="body totoro">
    <path fill-rule="evenodd" clip-rule="evenodd" d="M10 11H14V12H15V14H16V19H15V20H14H10H9V19H8V14H9V12H10V11Z" fill="#757575"/>
    <g>
      <path fill-rule="evenodd" clip-rule="evenodd" d="M16 10H15V13H16V10ZM8 10H9V13H8V10Z" fill="#757575"/>
      <path fill-rule="evenodd" clip-rule="evenodd" d="M15 9H16V10H17V11V13H16V11V10H15V11H14V10H15V9ZM9 9H8V10H9V9ZM9 10H10V11H9V10ZM8 10H7V11V13H8V11V10Z" fill="black"/>
      <path fill-rule="evenodd" clip-rule="evenodd" d="M16 11H15V13H16V11ZM9 11H8V13H9V11Z" fill="black" fill-opacity="0.25"/>
    </g>
    <g>
      <rect x="10" y="20" width="4" height="1" fill="#F0ECBD"/>
      <path d="M10 20H12V21H10V20Z" fill="black" fill-opacity="0.25"/>
    </g>
    <path fill-rule="evenodd" clip-rule="evenodd" d="M13 11H14V12H13V11ZM14 12H15V13H14V12ZM16 14H15V15H16V14ZM15 18H16V19H15V18ZM15 19V20H14V19H15ZM9 19H10V20H9V19ZM9 19H8V18H9V19Z" fill="black" fill-opacity="0.5"/>
    <path fill-rule="evenodd" clip-rule="evenodd" d="M13 11H11V12H12V13H13V15H14V17H13V18H12V19H10V20H12H15V19H16V15V14H15V13H14V12H13V11Z" fill="black" fill-opacity="0.29"/>
  </g>
  <g class="mouth totoro">
    <path fill-rule="evenodd" clip-rule="evenodd" d="M15 17H14V18H10V19H14V18H15V17Z" fill="white"/>
    <path fill-rule="evenodd" clip-rule="evenodd" d="M14 18H13V19H14V18ZM12 18H11V19H12V18Z" fill="black" fill-opacity="0.17"/>
  </g>
  <g class="eyes a9">
    <path fill-rule="evenodd" clip-rule="evenodd" d="M10 15H9V16H10V17H11V15H10ZM13 15H14V17H13V16H12V15H13Z" fill="white"/>
    <path fill-rule="evenodd" clip-rule="evenodd" d="M10 16H9V17H10V16ZM13 16H12V17H13V16Z" fill="black"/>
    <path fill-rule="evenodd" clip-rule="evenodd" d="M11 15H9V16H11V15ZM14 15H12V16H14V15Z" fill="black" fill-opacity="0.15"/>
    <path fill-rule="evenodd" clip-rule="evenodd" d="M13 15H12V16H13V15ZM10 15H9V16H10V15Z" fill="black" fill-opacity="0.8"/>
  </g>
  <g class="hair leaf">
    <path fill-rule="evenodd" clip-rule="evenodd" d="M15 9H14V10H15V9ZM14 10V11V12H13V13H12H11H10V12V11H11V10H14Z" fill="#43A047"/>
    <path fill-rule="evenodd" clip-rule="evenodd" d="M13 10H14V11H13V12H12V13H11V12H12V11H13V10Z" fill="black" fill-opacity="0.2"/>
    <path fill-rule="evenodd" clip-rule="evenodd" d="M15 11H14V12H15V11ZM13 13H14V12H13V13ZM13 13H11V14H13V13Z" fill="black" fill-opacity="0.5"/>
    <g style="mix-blend-mode:overlay">
      <rect x="10" y="12" width="2" height="1" fill="white" fill-opacity="0.45"/>
    </g>
    <g style="mix-blend-mode:overlay">
      <rect x="10" y="11" width="1" height="1" fill="white" fill-opacity="0.45"/>
    </g>
  </g>
  <g class="nose totoro">
    <rect x="10" y="17" width="2" height="1" fill="black" fill-opacity="0.75"/>
  </g>
  <g class="face whiskers">
    <path fill-rule="evenodd" clip-rule="evenodd" d="M18 15H16V16H18V15ZM16 17V16H15V17H16ZM16 17V18H18V17H16ZM8 16H6V17H8V16ZM8 18V17H9V18H8ZM8 18V19H6V18H8Z" fill="#202020"/>
    <path fill-rule="evenodd" clip-rule="evenodd" d="M17 15H18V16H17V15ZM7 16H6V17H7V16ZM8 18H7V19H8V18ZM17 17H16V18H17V17Z" fill="white" fill-opacity="0.3"/>
  </g>
  <style>
    <![CDATA[
      #egg:active{transform:scaleX(-1);}
    ]]>
  </style>
</svg>
