<svg width="100%" height="100%" viewBox="0 0 24 24" fill="none" xmlns="http://www.w3.org/2000/svg" id="egg" shape-rendering="cripsEdges">
  <g class="border">
    <path fill-rule="evenodd" clip-rule="evenodd" d="M14 10H10V11H9V12H8V14H7V19H8V20H9V21H15V20H16V19H17V14H16V12H15V11H14V10ZM14 11V12H15V14H16V19H15V20H9V19H8V14H9V12H10V11H14Z" fill="black"/>
  </g>
  <g id="rare" class="inside">
    <path fill-rule="evenodd" clip-rule="evenodd" d="M11 13H13V14H14V15H13V16H11V15H10V14H11V13Z" fill="#DB00FF"/>
    <path fill-rule="evenodd" clip-rule="evenodd" d="M11 13H12H13V14H12H11V13ZM11 14V15H9.99999V14H11Z" fill="white" fill-opacity="0.59"/>
    <path fill-rule="evenodd" clip-rule="evenodd" d="M13 14H14V15H13V16H11V15H13V14Z" fill="black" fill-opacity="0.17"/>
  </g>
  <g id="paint-stains" class="body">
    <path fill-rule="evenodd" clip-rule="evenodd" d="M10 11H14V12H15V14H16V19H15V20H14H10H9V19H8V14H9V12H10V11Z" fill="#BFAF98"/>
    <g>
      <path fill-rule="evenodd" clip-rule="evenodd" d="M10 12H9V13H10V12ZM10 13V14H11V13H10ZM14 19H15V20H14V19Z" fill="#FFD135"/>
      <path fill-rule="evenodd" clip-rule="evenodd" d="M13 14H12V15H13V14ZM12 19H11H10V20H11H12V19Z" fill="#D53F2B"/>
      <path fill-rule="evenodd" clip-rule="evenodd" d="M11 11H10V12H11V11ZM11 12V13H12V12H11ZM14 14H15V15H16V16H15V17H14V16H15V15H14V14ZM8 14H9V15H8V14Z" fill="#38322A"/>
      <path fill-rule="evenodd" clip-rule="evenodd" d="M12 17H14V18H12V17ZM9 17H8V18H9V17ZM9 18V19H10V18H9Z" fill="#DDD2B2"/>
      <path fill-rule="evenodd" clip-rule="evenodd" d="M13 11H14V12V13H13V14H12V13H13V12V11ZM15 17H16V18H15V17Z" fill="#556A5E"/>
    </g>
    <path fill-rule="evenodd" clip-rule="evenodd" d="M13 11H14V12H13V11ZM14 12H15V13H14V12ZM16 14H15V15H16V14ZM15 18H16V19H15V18ZM15 19V20H14V19H15ZM9 19H10V20H9V19ZM9 19H8V18H9V19Z" fill="black" fill-opacity="0.5"/>
    <path fill-rule="evenodd" clip-rule="evenodd" d="M13 11H11V12H12V13H13V15H14V17H13V18H12V19H10V20H12H15V19H16V15V14H15V13H14V12H13V11Z" fill="black" fill-opacity="0.29"/>
  </g>
  <g id="a5" class="mouth">
    <path fill-rule="evenodd" clip-rule="evenodd" d="M15 17H14V18H12H11H10V19H11H12H14V18H15V17Z" fill="black"/>
  </g>
  <g id="a9" class="eyes">
    <path fill-rule="evenodd" clip-rule="evenodd" d="M11 15H10V17H11V15ZM14 15H13V17H14V15Z" fill="white"/>
    <path fill-rule="evenodd" clip-rule="evenodd" d="M10 15H9V17H10V15ZM13 15H12V17H13V15Z" fill="black"/>
    <path fill-rule="evenodd" clip-rule="evenodd" d="M11 15H9V16H11V15ZM14 15H12V16H14V15Z" fill="black" fill-opacity="0.15"/>
  </g>
  <style>
    <![CDATA[
      #egg:active{transform:scaleX(-1);}
    ]]>
  </style>
</svg>
