<svg width="24" height="24" viewBox="0 0 24 24" fill="none" xmlns="http://www.w3.org/2000/svg">
<g id="Frame 56">
<rect width="24" height="24" fill="#232276"/>
<g id="inside-rare">
<path id="border" fill-rule="evenodd" clip-rule="evenodd" d="M12 11H14V12H12V11ZM11 13H12V12H11V13ZM10 14V13H11V14H10ZM10 16H9V15V14H10V15V16ZM13 16V17H10V16H13ZM14 15V16H13V15H14ZM14 15H15V13V12H14V13V15Z" fill="black"/>
<path id="fill" fill-rule="evenodd" clip-rule="evenodd" d="M13 12H12V13H11V14H10V16H11H12H13V15H14V12H13Z" fill="#FF00FF"/>
<path id="shadow" fill-rule="evenodd" clip-rule="evenodd" d="M13 13H12V14H11V15H12V14H13V13Z" fill="black" fill-opacity="0.25"/>
<rect id="dark-shadow" x="11" y="13" width="1" height="1" fill="black" fill-opacity="0.4"/>
<rect id="shine" x="12" y="12" width="2" height="1" fill="white" fill-opacity="0.5"/>
</g>
<g id="body-joker">
<path id="fill-root" fill-rule="evenodd" clip-rule="evenodd" d="M10 10H8V11H7V12H9V13H7V15H9V16V19H10V20H15V19H16V16V15H18V13H16V12H18V11H17V10H15V11H14V10H11V11H10V10Z" fill="#DEDFE6"/>
<path id="hair" fill-rule="evenodd" clip-rule="evenodd" d="M10 10H8V11H7V12H9V13H7V15V16H6V17H7V18H8V15H9V16H10V15H11V14H14V15H15V16H16V15H17V18H18V17H19V16H18V15V13H16V12H18V11H17V10H15V11H14V10H11V11H10V10Z" fill="#209E20"/>
<path id="static-shadow" fill-rule="evenodd" clip-rule="evenodd" d="M8 10H9H10V11H11V12H10V13V15H11V18V20H10V19H9V16V15H8V18H7V17H6V16H7V15V13H8H9V12H8H7V11H8V10ZM11 11V10H12H13H14V11H13H12H11ZM15 18H16V19H15V18ZM15 19V20H14V19H15Z" fill="black" fill-opacity="0.3"/>
<path id="Union" fill-rule="evenodd" clip-rule="evenodd" d="M9 9H8V10H7V11H6V12H7V13H6V15V16H5V17H6V18H7V19H8H9V20H10V21H15V20H16V19H17H18V18H19V17H20V16H19V15V13H18V12H19V11H18V10H17V9H16H15V10H14V9H13H12H11V10H10V9H9ZM10 10V11H11V10H12H13H14V11H15V10H16H17V11H18V12H16V13H18V15V16H19V17H18V18H17V16V15H16V16V19H15V20H10V19H9V16V15H8V16V18H7V17H6V16H7V15V13H9V12H7V11H8V10H9H10ZM11 13V14H10V15H11V14H13H14V15H15V14H14V13H13H11Z" fill="black"/>
<path id="static-shadow_2" fill-rule="evenodd" clip-rule="evenodd" d="M8 10H9V11H8V10ZM8 11V12H7V11H8ZM11 11H10V12H9V13H7V14H9V13H10V14H11V13H10V12H11V11ZM15 11H14V12H15V13H14V14H15V13H16V14H18V13H16V12H15V11ZM7 17V16V15H8V16V17H7ZM17 15H18V16V17H17V16V15ZM17 11H18V12H17V11ZM17 11H16V10H17V11ZM12 10H13V11H12V10ZM13 12H12V13H13V12Z" fill="black" fill-opacity="0.3"/>
</g>
<g id="mouth-clown">
<path id="Union_2" fill-rule="evenodd" clip-rule="evenodd" d="M10 18H11V19H10V18ZM14 19H11V20H14V19ZM14 19V18H15V19H14Z" fill="#89061F"/>
</g>
<g id="eyes-evil">
<path id="Union_3" fill-rule="evenodd" clip-rule="evenodd" d="M11 16H10V17H11V18H12V17H11V16ZM13 17H14V18H13V17ZM14 17V16H15V17H14Z" fill="black"/>
<path id="Union_4" fill-rule="evenodd" clip-rule="evenodd" d="M11 17H10V18H11V17ZM15 17H14V18H15V17Z" fill="#98B8D9"/>
</g>
</g>
</svg>
