<svg width="100%" height="100%" viewBox="0 0 24 24" fill="none" xmlns="http://www.w3.org/2000/svg" id="egg" shape-rendering="crispEdges">
  <g class="border">
    <path fill-rule="evenodd" clip-rule="evenodd" d="M14 10H10V11H9V12H8V14H7V19H8V20H9V21H15V20H16V19H17V14H16V12H15V11H14V10ZM14 11V12H15V14H16V19H15V20H9V19H8V14H9V12H10V11H14Z" fill="black"/>
  </g>
  <g id="rare" class="inside">
    <path fill-rule="evenodd" clip-rule="evenodd" d="M11 13H13V14H14V15H13V16H11V15H10V14H11V13Z" fill="#DB00FF"/>
    <path fill-rule="evenodd" clip-rule="evenodd" d="M11 13H12H13V14H12H11V13ZM11 14V15H10V14H11Z" fill="white" fill-opacity="0.59"/>
    <path fill-rule="evenodd" clip-rule="evenodd" d="M13 14H14V15H13V16H11V15H13V14Z" fill="black" fill-opacity="0.17"/>
  </g>
  <g id="color-splash" class="body">
    <path fill-rule="evenodd" clip-rule="evenodd" d="M10 11H14V12H15V14H16V19H15V20H14H10H9V19H8V14H9V12H10V11Z" fill="#F9E8CF"/>
    <g>
      <path fill-rule="evenodd" clip-rule="evenodd" d="M10 13H9V14H8V15V16V17H9V16V15H10V14V13ZM15 18V19H16V18V17H15V18ZM15 19V20H14V19H15Z" fill="#00D1FF"/>
      <path fill-rule="evenodd" clip-rule="evenodd" d="M9 17H10V18V19V20H9V19H8V18V17H9Z" fill="#FFE76B"/>
      <path fill-rule="evenodd" clip-rule="evenodd" d="M11 17H10V18V19H11V18V17Z" fill="#FFE76B" fill-opacity="0.25"/>
      <path fill-rule="evenodd" clip-rule="evenodd" d="M11 13H10V14V15H11V14V13ZM10 15H9V16H10V15ZM15 17H14V18H15V17ZM13 19H14V20H13V19ZM10 17H9V18H10V17Z" fill="#00D1FF" fill-opacity="0.25"/>
      <path fill-rule="evenodd" clip-rule="evenodd" d="M13 11H12H11H10V12H11H12H13V11ZM10 12V13H9V12H10Z" fill="#AD00FF"/>
      <path fill-rule="evenodd" clip-rule="evenodd" d="M14 12H13H12H11H10V13V14H11V13H12H13H14V12Z" fill="#AD00FF" fill-opacity="0.25"/>
      <path fill-rule="evenodd" clip-rule="evenodd" d="M13 17H12V18H13V17ZM12 18V19H13V20H12H11H10V19H11V18H12Z" fill="#FF7A5C"/>
      <path fill-rule="evenodd" clip-rule="evenodd" d="M12 17H11V18H12V17ZM12 18V19H13V18H12ZM10 19H11V18H10V19ZM10 19H9V20H10V19Z" fill="#FF7A5C" fill-opacity="0.25"/>
      <path fill-rule="evenodd" clip-rule="evenodd" d="M13 14H12V15H13V14ZM12 15H11V16V17H12V16V15ZM14 17H13V18H14V17Z" fill="#FF71FF"/>
      <path fill-rule="evenodd" clip-rule="evenodd" d="M14 11H13V12H14V11ZM14 12V13V14H15V13V12H14ZM12 13H13V14H12V13Z" fill="#6AD281"/>
      <path fill-rule="evenodd" clip-rule="evenodd" d="M15 14H16V15V16V17H15V16H14V15H15V14ZM15 18H14V19H15V18Z" fill="#5867E7"/>
      <path opacity="0.25" fill-rule="evenodd" clip-rule="evenodd" d="M15 14H14V15H15V14ZM15 16H14V17H15V16ZM15 17V18H16V17H15ZM14 18H13V19H14V18Z" fill="#5867E7"/>
      <path opacity="0.25" fill-rule="evenodd" clip-rule="evenodd" d="M14 12H13H12V13H13V14H12V13H11V14V15H12H13H14H15V14H14V13V12Z" fill="#6AD281"/>
      <path fill-rule="evenodd" clip-rule="evenodd" d="M14 14H13V15H14V14ZM14 15V16H15V15H14ZM12 14H11V15H12V14ZM12 17H11V18H12V17Z" fill="#FF71FF" fill-opacity="0.25"/>
    </g>
    <path fill-rule="evenodd" clip-rule="evenodd" d="M13 11H14V12H13V11ZM14 12H15V13H14V12ZM16 14H15V15H16V14ZM15 18H16V19H15V18ZM15 19V20H14V19H15ZM9 19H10V20H9V19ZM9 19H8V18H9V19Z" fill="black" fill-opacity="0.5"/>
  </g>
  <g id="a9" class="eyes">
    <path fill-rule="evenodd" clip-rule="evenodd" d="M11 15H10V17H11V15ZM14 15H13V17H14V15Z" fill="white"/>
    <path fill-rule="evenodd" clip-rule="evenodd" d="M10 15H9V17H10V15ZM13 15H12V17H13V15Z" fill="black"/>
    <path fill-rule="evenodd" clip-rule="evenodd" d="M11 15H9V16H11V15ZM14 15H12V16H14V15Z" fill="black" fill-opacity="0.15"/>
  </g>
  <g id="rose" class="hair">
    <path fill-rule="evenodd" clip-rule="evenodd" d="M15 10H16V11H17V12H16V13H15V12H14V11V10H15Z" fill="#CD0000"/>
    <path fill-rule="evenodd" clip-rule="evenodd" d="M14 10H15V11H16V12V13H15V12V11H14V10Z" fill="black" fill-opacity="0.23"/>
    <rect x="14" y="12" width="1" height="1" fill="#216831"/>
    <rect x="13" y="11" width="1" height="1" fill="#216831"/>
  </g>
  <g id="peace" class="accessory">
    <g>
      <path d="M9 9H8V10H9V9Z" fill="#FFDF7C"/>
      <rect width="1" height="1" transform="matrix(-1 0 0 1 10 8)" fill="white"/>
      <path fill-rule="evenodd" clip-rule="evenodd" d="M11 9H12V10H13V11H12V12H9V11V10V9H10V10H11V9Z" fill="white"/>
      <path fill-rule="evenodd" clip-rule="evenodd" d="M11 9H12V10H13V11H12V10H11V11H10V10H11V9Z" fill="black" fill-opacity="0.06"/>
    </g>
    <g>
      <rect x="7" y="9" width="1" height="1" fill="#6AD281"/>
      <rect x="8" y="10" width="1" height="1" fill="#6AD281"/>
      <rect x="9" y="10" width="1" height="1" fill="#6AD281"/>
      <rect x="7" y="9" width="1" height="1" fill="black" fill-opacity="0.25"/>
      <rect x="9" y="10" width="1" height="1" fill="black" fill-opacity="0.25"/>
    </g>
    <path fill-rule="evenodd" clip-rule="evenodd" d="M12 11H13V12H12H11V11H12Z" fill="black" fill-opacity="0.25"/>
  </g>
  <style>
    <![CDATA[
      #egg:active{transform:scaleX(-1);}
    ]]>
  </style>
</svg>
