<svg width="100%" height="100%" viewBox="0 0 24 24" fill="none" xmlns="http://www.w3.org/2000/svg">
<g id="body-dead">
<g id="ear_left-damaged">
<path id="Ellipse 26" d="M15.2139 16.3786C15.3269 17.0437 15.926 17.4966 16.552 17.3903C16.7884 17.3501 16.9948 17.2359 17.1541 17.0734C16.9674 16.7394 17.0831 16.5805 17.444 16.5827C17.5002 16.3993 17.5156 16.1982 17.4807 15.9933C17.3677 15.3282 16.7686 14.8753 16.1426 14.9817C15.5166 15.0881 15.1008 15.7135 15.2139 16.3786Z" fill="#389254"/>
<path id="Ellipse 27" d="M15.2139 16.3786C15.3269 17.0437 15.926 17.4966 16.552 17.3903C16.7297 17.36 16.9646 17.2474 17.141 16.9991C17.1412 16.9988 17.1413 16.9983 17.1411 16.9978L16.999 16.5874C16.9986 16.5865 16.9993 16.5855 17.0003 16.5855L17.4429 16.5827C17.4436 16.5827 17.4441 16.5823 17.4443 16.5817C17.5003 16.3986 17.5155 16.1978 17.4807 15.9933C17.3677 15.3282 16.7686 14.8753 16.1426 14.9817C16.065 14.9949 15.9906 15.0161 15.92 15.0443" stroke="black" stroke-width="0.287425" stroke-linecap="round"/>
</g>
<path id="base" d="M16.3473 16.4672C16.3473 17.9992 15.8222 19.0899 14.9878 19.8C14.1497 20.5132 12.9828 20.8566 11.6766 20.8566C10.3705 20.8566 9.20356 20.5132 8.36551 19.8C7.53106 19.0899 7.00599 17.9992 7.00599 16.4672C7.00599 14.9294 7.53567 13.2518 8.39212 11.9609C9.25099 10.6664 10.4164 9.79078 11.6766 9.79078C12.9369 9.79078 14.1023 10.6664 14.9612 11.9609C15.8176 13.2518 16.3473 14.9294 16.3473 16.4672Z" fill="#389254" stroke="black" stroke-width="0.287425"/>
<path id="shine" d="M15.7724 15.9046C15.7724 18.7905 14.6477 19.8506 12.3233 19.8506C9.774 19.8506 8.87424 18.5784 8.87424 15.9046C8.87424 13.7253 10.7425 11.2279 12.3233 11.2279C13.7605 11.2279 15.7724 13.7253 15.7724 15.9046Z" fill="#46B274"/>
<g id="ear_right-damaged">
<g id="ear">
<ellipse id="Ellipse 26_2" cx="7.07784" cy="16.186" rx="1.07784" ry="1.22156" fill="#389254"/>
<path id="Ellipse 27_2" d="M8.15569 16.186C8.15569 16.8606 7.67312 17.4075 7.07784 17.4075C6.48257 17.4075 6 16.8606 6 16.186C6 15.5113 6.48257 14.9644 7.07784 14.9644C7.15167 14.9644 7.22376 14.9728 7.29341 14.9889" stroke="black" stroke-width="0.287425" stroke-linecap="round"/>
</g>
<g id="damage">
<path id="Ellipse 28" d="M6.70105 16.3245C7.16444 16.4385 7.61405 16.1025 7.73226 15.622C7.76375 15.4941 7.7519 15.3555 7.6664 15.2354C7.58317 15.1185 7.44474 15.0396 7.26485 14.9953C6.80146 14.8813 6.35184 15.2173 6.23363 15.6978C6.1883 15.8821 6.27093 16.0343 6.37004 16.1343C6.46739 16.2325 6.59641 16.2988 6.70105 16.3245Z" fill="#D33D22" stroke="black" stroke-width="0.287425"/>
<path id="Rectangle 4885" d="M6.50299 15.1465L6.76003 15.0178L7.33887 16.1745L7.08183 16.3031L6.50299 15.1465Z" fill="black"/>
<path id="Rectangle 4886" d="M7.09227 15.455C7.15853 15.4224 7.23869 15.4497 7.2713 15.516V15.516C7.30391 15.5822 7.27663 15.6624 7.21036 15.695L6.81294 15.8906C6.74667 15.9232 6.66652 15.8959 6.63391 15.8297V15.8297C6.6013 15.7634 6.62858 15.6832 6.69484 15.6506L7.09227 15.455Z" fill="black"/>
</g>
</g>
<g id="face-stitches">
<g id="Group 230">
<path id="Vector 1" d="M7.94012 12.811C8.11853 13.1451 8.92253 13.8722 9.96188 13.8117" stroke="black" stroke-width="0.287425" stroke-linecap="round"/>
<path id="Rectangle 4886_2" d="M8.60336 13.1794C8.64632 13.1193 8.72985 13.1054 8.78992 13.1484V13.1484C8.84999 13.1914 8.86386 13.2749 8.8209 13.335L8.56322 13.6953C8.52026 13.7553 8.43673 13.7692 8.37666 13.7262V13.7262C8.31659 13.6833 8.30272 13.5997 8.34568 13.5397L8.60336 13.1794Z" fill="black"/>
<path id="Rectangle 4887" d="M9.22782 13.5079C9.2455 13.4362 9.31796 13.3924 9.38966 13.41V13.41C9.46137 13.4277 9.50517 13.5002 9.4875 13.5719L9.38149 14.0019C9.36381 14.0737 9.29135 14.1175 9.21965 14.0998V14.0998C9.14794 14.0821 9.10414 14.0096 9.12181 13.9379L9.22782 13.5079Z" fill="black"/>
<path id="Rectangle 4888" d="M10.5359 13.4686C10.6055 13.444 10.6819 13.4804 10.7065 13.55V13.55C10.7312 13.6197 10.6947 13.6961 10.6251 13.7207L10.4412 13.7858C10.3716 13.8105 10.2951 13.774 10.2705 13.7044V13.7044C10.2459 13.6348 10.2823 13.5584 10.3519 13.5337L10.5359 13.4686Z" fill="black"/>
</g>
<g id="Group 231">
<path id="Vector 1_2" d="M9.5928 10.7869C10.088 10.9904 10.2385 11.7692 12.6108 11.8027" stroke="black" stroke-width="0.287425" stroke-linecap="round"/>
<path id="Rectangle 4888_2" d="M11.895 11.5851C11.8935 11.5112 11.9521 11.4501 12.0259 11.4486V11.4486C12.0997 11.447 12.1609 11.5056 12.1624 11.5794L12.1718 12.0223C12.1733 12.0961 12.1147 12.1573 12.0409 12.1588V12.1588C11.967 12.1604 11.9059 12.1018 11.9044 12.0279L11.895 11.5851Z" fill="black"/>
<path id="Rectangle 4887_2" d="M11.2135 11.4431C11.2312 11.3714 11.3036 11.3276 11.3754 11.3453V11.3453C11.4471 11.3629 11.4909 11.4354 11.4732 11.5071L11.3672 11.9372C11.3495 12.0089 11.277 12.0527 11.2053 12.035V12.035C11.1336 12.0173 11.0898 11.9449 11.1075 11.8732L11.2135 11.4431Z" fill="black"/>
</g>
</g>
<g id="face-spots">
<path id="Vector 18" d="M10.0888 20.0208C9.71571 19.8538 9.59875 20.0021 9.51175 20.2258C9.49986 20.2564 9.49878 20.2908 9.51455 20.3196C9.64178 20.5516 10.0645 20.6066 10.327 20.6048C10.376 20.6045 10.4218 20.5772 10.4396 20.5315C10.511 20.3487 10.4423 20.179 10.0888 20.0208Z" fill="#3151A9" stroke="black" stroke-width="0.287425" stroke-linecap="round"/>
<path id="Vector 19" d="M8.93131 19.0233C8.67256 18.7045 8.25621 18.9314 8.04716 19.1108C8.02228 19.1321 8.00584 19.1624 8.00694 19.1952C8.01576 19.4597 8.36818 19.6994 8.60328 19.8163C8.64717 19.8382 8.69952 19.8338 8.73778 19.8031C8.93513 19.6451 9.17916 19.3287 8.93131 19.0233Z" fill="#3151A9" stroke="black" stroke-width="0.287425" stroke-linecap="round"/>
</g>
<g id="face-damaged">
<path id="Vector 5" d="M9.51803 11.8086C9.74829 12.0077 10.1752 12.2165 10.5381 12.385C10.5796 12.4043 10.6205 12.4231 10.6599 12.4413C10.787 12.5 10.9 12.552 10.978 12.5926C11.0236 12.6162 11.0779 12.646 11.1112 12.6783C11.1205 12.6872 11.137 12.7046 11.1492 12.73C11.1624 12.7578 11.1756 12.8086 11.149 12.863C11.1254 12.9114 11.0846 12.9316 11.0659 12.9391C11.0451 12.9475 11.0255 12.9506 11.0126 12.952C10.6827 12.9888 10.2843 12.8537 9.96095 12.6709C9.7965 12.5779 9.64422 12.4686 9.52235 12.3539C9.40285 12.2414 9.30213 12.114 9.2567 11.9828C9.23005 11.9058 9.26361 11.8265 9.32872 11.7894C9.3889 11.7551 9.46459 11.7624 9.51803 11.8086Z" fill="#D1402D" stroke="black" stroke-width="0.287425" stroke-linecap="round"/>
<path id="Vector 7" d="M14.5441 12.0445C14.5513 12.3212 13.9567 12.1054 13.5966 11.9093C13.515 11.8648 13.5127 11.7605 13.6017 11.7337C13.9313 11.6341 14.5352 11.7018 14.5441 12.0445Z" fill="#D1402D" stroke="black" stroke-width="0.287425" stroke-linecap="round"/>
</g>
</g>
<g id="mouth-smile">
<path id="Line 1" d="M13.7605 18.4135H11.1736C10.8383 18.4135 10.1677 18.4135 10.1677 17.8387" stroke="black" stroke-width="0.287425" stroke-linecap="round"/>
</g>
<g class="eyes scared">
<g id="Group 243">
<path id="Ellipse 21" d="M14.9102 14.9644C14.9102 15.0369 14.9118 15.1141 14.9135 15.1944C14.9196 15.4857 14.9265 15.817 14.86 16.1042C14.8184 16.2837 14.7512 16.4283 14.6501 16.5275C14.5527 16.623 14.411 16.689 14.1916 16.689C13.9722 16.689 13.8305 16.623 13.7331 16.5275C13.632 16.4283 13.5648 16.2837 13.5232 16.1042C13.4567 15.817 13.4636 15.4857 13.4697 15.1944C13.4714 15.1141 13.473 15.0369 13.473 14.9644C13.473 14.675 13.5612 14.4186 13.6969 14.2377C13.8325 14.0569 14.0089 13.9584 14.1916 13.9584C14.3743 13.9584 14.5507 14.0569 14.6864 14.2377C14.822 14.4186 14.9102 14.675 14.9102 14.9644Z" fill="#3151A9" stroke="black" stroke-width="0.287425"/>
<ellipse id="Ellipse 16" cx="14.1916" cy="14.9644" rx="0.862275" ry="1.1497" fill="#010005"/>
<ellipse id="Ellipse 18" cx="14.3353" cy="14.7489" rx="0.287425" ry="0.359281" fill="#FFFF3F"/>
</g>
<g id="Group 244">
<path id="Ellipse 20" d="M11.7485 14.9644C11.7485 15.0369 11.7501 15.1141 11.7518 15.1944C11.7579 15.4857 11.7649 15.817 11.6983 16.1042C11.6568 16.2837 11.5895 16.4283 11.4885 16.5275C11.391 16.623 11.2494 16.689 11.03 16.689C10.8106 16.689 10.6689 16.623 10.5715 16.5275C10.4704 16.4283 10.4032 16.2837 10.3616 16.1042C10.295 15.817 10.302 15.4857 10.3081 15.1944C10.3098 15.1141 10.3114 15.0369 10.3114 14.9644C10.3114 14.675 10.3995 14.4186 10.5352 14.2377C10.6708 14.0569 10.8472 13.9584 11.03 13.9584C11.2127 13.9584 11.3891 14.0569 11.5247 14.2377C11.6604 14.4186 11.7485 14.675 11.7485 14.9644Z" fill="#3151A9" stroke="black" stroke-width="0.287425"/>
<ellipse id="Ellipse 17" cx="11.0299" cy="14.9644" rx="0.862275" ry="1.1497" fill="#010005"/>
<ellipse id="Ellipse 19" cx="11.1737" cy="14.7489" rx="0.287425" ry="0.359281" fill="#FFFF3F"/>
</g>
<g id="eyebrows">
<path id="Vector 3" d="M13.1856 12.9921C13.6997 12.6874 14.9579 12.4913 15.7006 13.3836" stroke="black" stroke-width="0.287425" stroke-linecap="round"/>
<path id="Vector 4" d="M10.1677 12.9921C10.5649 12.8308 11.4946 12.6258 12.0359 13.0961" stroke="black" stroke-width="0.287425" stroke-linecap="round"/>
</g>
</g>
<g class="nose nosebleed">
<path id="Rectangle 4877" d="M12.6108 17.0506H12.7545V17.1943V17.338C12.7545 17.4967 12.6258 17.6254 12.4671 17.6254C12.3083 17.6254 12.1796 17.4967 12.1796 17.338V17.1943V17.0506H12.3234H12.6108Z" fill="#D9433B" stroke="black" stroke-width="0.287425"/>
<path id="Rectangle 4889" d="M12.0359 16.835H13.1856C13.265 16.835 13.3293 16.8993 13.3293 16.9787V16.9787C13.3293 17.0581 13.265 17.1224 13.1856 17.1224H12.0359V16.835Z" fill="black"/>
</g>
<g class="hair side-cut">
<path id="Vector 9" d="M14.8383 11.2279C14.931 11.2094 15.023 11.1977 15.1143 11.1923C16.4386 11.1141 17.5967 12.3567 18 13.0961C17.4986 13.1873 15.8772 12.6635 15.0539 12.2339C15.0539 12.5213 14.7833 12.7464 14.7665 12.162C14.8743 12.0083 14.6115 11.6208 13.976 11.3716L14.8383 11.2279Z" fill="#389254"/>
<path id="Vector 8" d="M14.8383 11.2279C14.931 11.2094 15.023 11.1977 15.1143 11.1923C15.6642 11.0559 16.196 10.5605 16.4192 10.2938C15.8443 9.86262 14.9102 9.43148 13.6886 9.86262C13.8323 9.6231 14.1054 9.0722 14.0479 8.78477C13.0419 8.78477 10.9581 8.49735 9.80838 9.57519C8.65868 10.653 10.024 11.2279 11.0299 11.0842C12.0359 10.9405 12.0359 10.7249 12.4671 10.7967C13.0419 10.8926 13.5449 11.3716 14.8383 11.2279Z" fill="#389254"/>
<path id="Vector 14" d="M9.59283 10.0063C10.1496 10.0063 11.6503 9.66924 12.1357 8.92977C12.1646 8.8858 12.2124 8.85663 12.265 8.85663H13.4731C13.6168 9.28777 11.9641 9.86661 12.8982 10.4375C13.6886 10.9205 15.2695 10.9405 16.0599 10.0782L16.4192 10.2938L15.988 10.7249L15.485 11.0842L14.7665 11.2279H13.8323L12.9701 10.9405L12.3234 10.7249L11.1018 11.0842C11.2743 10.9692 11.1737 10.7488 11.1018 10.653C10.8144 10.2938 10.1677 10.653 9.73654 10.7967L9.44911 10.653L9.37726 10.2219L9.59283 10.0063Z" fill="#D1402D"/>
<path id="Vector 17" d="M15.1143 12.2339C15.761 12.7369 17.3677 13.2111 18 13.0961C17.5967 12.3567 16.4386 11.1141 15.1143 11.1923M15.1143 11.1923C15.6642 11.0559 16.196 10.5605 16.4192 10.2938C15.8443 9.86262 14.9102 9.43148 13.6886 9.86262C13.8323 9.6231 14.1054 9.0722 14.0479 8.78477C13.0419 8.78477 10.9581 8.49735 9.80838 9.57519C8.65868 10.653 10.024 11.2279 11.0299 11.0842C12.0359 10.9405 12.0359 10.7249 12.4671 10.7967C13.0419 10.8926 13.5449 11.3716 14.8383 11.2279C14.9299 11.2279 15.0223 11.2151 15.1143 11.1923Z" stroke="black" stroke-width="0.287425" stroke-linecap="round"/>
<path id="Vector 12" d="M15.9147 12.2781C16.041 12.3401 16.1885 12.4041 16.3041 12.4377C16.3567 12.453 16.4243 12.4689 16.4837 12.462C16.5134 12.4586 16.5709 12.4461 16.6115 12.393C16.6557 12.3351 16.6489 12.2709 16.6383 12.2338C16.6185 12.164 16.5729 12.1114 16.5282 12.0739C16.4826 12.0357 16.4284 12.0049 16.3739 11.9802C16.265 11.9309 16.1364 11.8977 16.0237 11.8819C15.9781 11.8755 15.9263 11.878 15.8783 11.901C15.8272 11.9255 15.7847 11.9723 15.7725 12.0362C15.7493 12.1583 15.8428 12.2428 15.9147 12.2781Z" fill="#D1402D" stroke="black" stroke-width="0.287425" stroke-linecap="round"/>
<path id="Vector 11" d="M13.7296 10.329C13.8743 10.3344 14.0502 10.3279 14.1849 10.2973C14.2483 10.2829 14.3251 10.2584 14.3809 10.2099C14.4115 10.1834 14.4424 10.1438 14.4536 10.0895C14.4649 10.0343 14.4518 9.98351 14.4303 9.94291C14.3392 9.77091 14.1472 9.75214 14.0128 9.76751C13.8685 9.78401 13.7157 9.84436 13.6026 9.91709C13.5155 9.97306 13.4671 10.0775 13.5084 10.1822C13.5455 10.2764 13.638 10.3255 13.7296 10.329Z" fill="#D1402D" stroke="black" stroke-width="0.287425" stroke-linecap="round"/>
<path id="Vector 15" d="M9.5928 10.0063C10.1677 10.0063 11.7485 9.64705 12.1796 8.85663M9.73652 10.7967C10.1677 10.653 10.7425 10.2219 11.0299 10.5812C11.1018 10.677 11.1018 11.0123 11.0299 11.0842M16.0599 10.0782C15.2695 10.9405 13.6886 10.9205 12.8982 10.4375C11.9641 9.86661 13.6168 9.28777 13.473 8.85663" stroke="black" stroke-width="0.287425" stroke-linecap="round"/>
<path id="Vector 13" d="M11.6185 10.0376C11.6759 9.8651 11.9303 9.72642 12.1215 9.82199C12.2652 9.89385 12.1905 10.1762 11.9777 10.2531C11.7716 10.3276 11.5466 10.2531 11.6185 10.0376Z" fill="#389254" stroke="black" stroke-width="0.287425" stroke-linecap="round"/>
<path id="Union" fill-rule="evenodd" clip-rule="evenodd" d="M8.01197 14.2459C8.09134 14.2459 8.15568 14.1815 8.15568 14.1021C8.15568 14.0228 8.09134 13.9584 8.01197 13.9584C7.9326 13.9584 7.86826 14.0228 7.86826 14.1021C7.86826 14.1815 7.9326 14.2459 8.01197 14.2459ZM8.01198 14.9644C8.09135 14.9644 8.15569 14.9001 8.15569 14.8207C8.15569 14.7413 8.09135 14.677 8.01198 14.677C7.93261 14.677 7.86826 14.7413 7.86826 14.8207C7.86826 14.9001 7.93261 14.9644 8.01198 14.9644ZM8.73054 14.5333C8.73054 14.6126 8.6662 14.677 8.58683 14.677C8.50746 14.677 8.44311 14.6126 8.44311 14.5333C8.44311 14.4539 8.50746 14.3896 8.58683 14.3896C8.6662 14.3896 8.73054 14.4539 8.73054 14.5333ZM8.44311 15.683C8.52248 15.683 8.58683 15.6186 8.58683 15.5393C8.58683 15.4599 8.52248 15.3955 8.44311 15.3955C8.36374 15.3955 8.2994 15.4599 8.2994 15.5393C8.2994 15.6186 8.36374 15.683 8.44311 15.683Z" fill="black"/>
</g>
<style class="static">
.hair > *:not(path:last-child) {
  animation: waving 0.25s linear alternate infinite;
  transform-origin: center center;
}
.nosebleed > path:first-child {
  animation: sniffle 5s linear infinite;
  transform-origin: center 70.1%;
}
.eyes ellipse[fill="#FFFF3F"] {
  animation: vibin 5s infinite;
}
@keyframes sniffle {
  0% { transform: scaleY(1); }
  50% { transform: scaleY(1.25); }
  55% { transform: scaleY(1); }
}
@keyframes waving {
  from { transform: scaleX(1); }
  to { transform: scaleX(0.98); }
}
@keyframes vibin {
  0% { transform: translateX(0%) translateY(0%); }
  25% { transform: translateX(1%) translateY(0.5%); }
  50% { transform: translateX(-1%) translateY(1%); }
}
</style>
</svg>
