<svg width="24" height="24" viewBox="0 0 24 24" fill="none" xmlns="http://www.w3.org/2000/svg">
<g id="Group 132">
<rect width="24" height="24" fill="#EAB5D9"/>
<g id="inside-rare">
<path id="border" fill-rule="evenodd" clip-rule="evenodd" d="M12 14H13V15H12H11V14H12ZM10 16V15H11V16H10ZM10 18H9V16H10V18ZM14 18V19H13H11H10V18H11H13H14ZM14 16H15V18H14V16ZM14 16V15H13V16H14Z" fill="black"/>
<path id="fill" fill-rule="evenodd" clip-rule="evenodd" d="M11 15H12H13V16H14V18H13H10V17V16H11V15Z" fill="#FF00FF"/>
<path id="shadow" fill-rule="evenodd" clip-rule="evenodd" d="M13 16H14V17V18H13H12V17H13V16Z" fill="black" fill-opacity="0.25"/>
<path id="shine" fill-rule="evenodd" clip-rule="evenodd" d="M12 15H11V16H10V17H11V16H12V15Z" fill="white" fill-opacity="0.6"/>
</g>
<g id="body-bot">
<g id="border_2">
<path id="static-border" fill-rule="evenodd" clip-rule="evenodd" d="M15 12H9V13H8V14H7V20H8V21H16V20H17V14H16V13H15V12ZM15 13V14H16V20H8V14H9V13H15Z" fill="black"/>
</g>
<g id="body">
<path id="fill-body" fill-rule="evenodd" clip-rule="evenodd" d="M9 13H15V14H16V20H15H9H8V14H9V13Z" fill="#E5E8F6"/>
</g>
<g id="comb">
<path id="comb_2" fill-rule="evenodd" clip-rule="evenodd" d="M15 10H14V11H13V13H14H15V14H17V13H16V12H15V11H16V10H15Z" fill="#8BF396"/>
</g>
<g id="static-feet">
<path id="feet" fill-rule="evenodd" clip-rule="evenodd" d="M11 21H9V22H11V21ZM15 21H13V22H15V21Z" fill="#E5E8F6"/>
</g>
</g>
<g id="mouth-smile">
<rect id="Rectangle 1244" x="11" y="19" width="3" height="1" fill="#8BF396"/>
<rect id="Rectangle 1245" x="10" y="18" width="1" height="1" fill="#8BF396"/>
</g>
<g id="eyes-flat">
<rect id="Rectangle 2804" x="10" y="17" width="2" height="1" fill="black"/>
<rect id="Rectangle 2805" x="13" y="17" width="2" height="1" fill="black"/>
</g>
</g>
</svg>
