<svg width="100%" height="100%" viewBox="0 0 24 24" fill="none" xmlns="http://www.w3.org/2000/svg" id="egg" shape-rendering="crispEdges">
<g class="border">
<path fill-rule="evenodd" clip-rule="evenodd" d="M14 10H10V11H9V12H8V14H7V19H8V20H9V21H15V20H16V19H17V14H16V12H15V11H14V10ZM14 11V12H15V14H16V19H15V20H9V19H8V14H9V12H10V11H14Z" fill="black"></path>
</g><g class="inside rare">
<path fill-rule="evenodd" clip-rule="evenodd" d="M11 13H13V14H14V15H13V16H11V15H10V14H11V13Z" fill="#DB00FF"></path>
<path fill-rule="evenodd" clip-rule="evenodd" d="M11 13H12H13V14H12H11V13ZM11 14V15H9.99999V14H11Z" fill="white" fill-opacity="0.59"></path>
<path fill-rule="evenodd" clip-rule="evenodd" d="M13 14H14V15H13V16H11V15H13V14Z" fill="black" fill-opacity="0.17"></path>
</g><g class="body smolses">
<path fill-rule="evenodd" clip-rule="evenodd" d="M10 11H14V12H15V14H16V19H15V20H14H10H9V19H8V14H9V12H10V11Z" fill="#F6C695"></path>
<path fill-rule="evenodd" clip-rule="evenodd" d="M13 11H14V12H13V11ZM14 12H15V13H14V12ZM16 14H15V15H16V14ZM15 18H16V19H15V18ZM15 19V20H14V19H15ZM9 19H10V20H9V19ZM9 19H8V18H9V19Z" fill="black" fill-opacity="0.5"></path>
<path fill-rule="evenodd" clip-rule="evenodd" d="M13 11H11V12H12V13H13V15H14V17H13V18H12V19H10V20H12H15V19H16V15V14H15V13H14V12H13V11Z" fill="#C78D5F"></path>
</g><g class="accessory smolses">
<path fill-rule="evenodd" clip-rule="evenodd" d="M6 10H7V11H8V12H7V11H6V15H7V17H8V19H9V20H10V21H9V20H8V19H7V17H6V15H5V11H6V10Z" fill="#6A4729"></path>
</g><g class="mouth flat">
<path d="M10 18H13V19H10V18Z" fill="black"></path>
</g><g class="eyes a10">
<path fill-rule="evenodd" clip-rule="evenodd" d="M11 16H10V17H11V16ZM14 16H13V17H14V16Z" fill="#FF0000"></path>
<path fill-rule="evenodd" clip-rule="evenodd" d="M10 16H9V17H10V16ZM13 16H12V17H13V16Z" fill="black"></path>
</g><g class="glasses smolses">
<path fill-rule="evenodd" clip-rule="evenodd" d="M16 15H14H12H11H9H8V16H9V17H11V16H12V17H14V16H16V15Z" fill="black"></path>
</g><g class="clothes robe">
<path fill-rule="evenodd" clip-rule="evenodd" d="M18 17H17V18H16V19H15V20H11V19H10V20H9V21H17V20H18V17Z" fill="#644432"></path>
<path fill-rule="evenodd" clip-rule="evenodd" d="M18 18H17V19H18V18ZM16 19H17V20H16H15V19H16Z" fill="white" fill-opacity="0.1"></path>
<path fill-rule="evenodd" clip-rule="evenodd" d="M18 17H17V18H18V17ZM16 19V18H17V19H18V20H17V21H16V20H15V21H13V20H15V19H16ZM16 19H17V20H16V19ZM10 19H11V20H10V21H9V20H10V19Z" fill="black" fill-opacity="0.6"></path>
</g><g class="beard smolses">
<path fill-rule="evenodd" clip-rule="evenodd" d="M13 17H15V18H16V19V20H15V21V22H14H13V21H11V20H9V19H8V18H9V17H11V18H10V19H13V18V17Z" fill="#EEEFF1"></path>
<path fill-rule="evenodd" clip-rule="evenodd" d="M13 17H14V18H13V17ZM10 18H9V19H10V18ZM10 18V17H11V18H10ZM12 19H11V20H12V19ZM14 20H15V19H16V20H15V21H14V20Z" fill="#D3D3D3"></path>
</g><g class="hair smolses">
<path fill-rule="evenodd" clip-rule="evenodd" d="M15 9H14V10H15V9ZM7 14H8V13V12H9V11H10V10H14V11H15V12H16V13V14H17V13H18V14H17V15V16V17H18V19H19V20H18V19H17V18H16V17H15V16H14V15H13V14H12H11V15H10H9H8V16H7V15V14ZM7 14V13H6V14H7ZM15 16V15H16V16H15Z" fill="#EEEFF1"></path>
<path fill-rule="evenodd" clip-rule="evenodd" d="M13 11H11V12H13V11ZM13 13V12H14H15V13H16V14H17V15H16V14H15V13H14H13ZM13 14V13H12V14H13ZM13 14V15H14V14H13ZM11 12V13H10V12H11ZM9 13H8V14H9V13ZM9 14V15H10V14H9ZM7 15H8V16H7V15ZM17 17H18V18H17V17Z" fill="#D3D3D3"></path>
<g>
<path fill-rule="evenodd" clip-rule="evenodd" d="M12 8H13V9H12V8ZM11 8H10V9H11V8Z" fill="#F6D449"></path>
<rect x="11" y="8" width="1" height="1" fill="#F9E180"></rect>
<rect x="10" y="8" width="1" height="1" fill="#F9E180"></rect>
</g>
</g>
<style><![CDATA[
      #egg:active{transform:scaleX(-1);}
    ]]></style></svg>