<svg width="24" height="24" viewBox="0 0 24 24" fill="none" xmlns="http://www.w3.org/2000/svg">
<g id="one-pan-brocc">
<rect width="24" height="24" fill="#7F1416"/>
<g id="inside-rare">
<path id="border" fill-rule="evenodd" clip-rule="evenodd" d="M12 11H14V12H12V11ZM11 13H12V12H11V13ZM10 14V13H11V14H10ZM10 16H9V15V14H10V15V16ZM13 16V17H10V16H13ZM14 15V16H13V15H14ZM14 15H15V13V12H14V13V15Z" fill="black"/>
<path id="fill" fill-rule="evenodd" clip-rule="evenodd" d="M13 12H12V13H11V14H10V16H11H12H13V15H14V12H13Z" fill="#FF00FF"/>
<path id="shadow" fill-rule="evenodd" clip-rule="evenodd" d="M13 13H12V14H11V15H12V14H13V13Z" fill="black" fill-opacity="0.25"/>
<rect id="dark-shadow" x="11" y="13" width="1" height="1" fill="black" fill-opacity="0.4"/>
<rect id="shine" x="12" y="12" width="2" height="1" fill="white" fill-opacity="0.5"/>
</g>
<g id="body-power_plins">
<path id="fill-root" fill-rule="evenodd" clip-rule="evenodd" d="M10 10H8V11H7V12H9V13H7V15H9V16V19H10V20H15V19H16V16V15H18V13H16V12H18V11H17V10H15V11H14V10H11V11H10V10Z" fill="white"/>
<path id="hair" fill-rule="evenodd" clip-rule="evenodd" d="M10 10H8V11H7V12H9V13H7V15H9V16H10V15H11H14H15V16H16V15H18V13H16V12H18V11H17V10H15V11H14V10H11V11H10V10Z" fill="#F7F0F0"/>
<path id="border_2" fill-rule="evenodd" clip-rule="evenodd" d="M8 9H9H10V10H9H8V9ZM7 11V10H8V11H7ZM7 12H6V11H7V12ZM7 13V12H9V13H7ZM7 15H6V13H7V15ZM9 19H8V16H7V15H9V16V19ZM10 20H9V19H10V20ZM15 20V21H10V20H15ZM16 19V20H15V19H16ZM18 15V16H17V19H16V16V15H18ZM18 13H19V15H18V13ZM18 12V13H16V12H18ZM18 11H19V12H18V11ZM17 10H18V11H17V10ZM15 10V9H16H17V10H16H15ZM14 10V11H15V10H14ZM13 10H14V9H13H12H11V10H10V11H11V10H12H13Z" fill="black"/>
<path id="static-shadow" fill-rule="evenodd" clip-rule="evenodd" d="M8 10H9H10V11H11V12H10V13V15H11V18V20H10V19H9V16V15H8H7V13H8H9V12H8H7V11H8V10ZM11 11V10H12H13H14V11H13H12H11ZM15 18H16V19H15V18ZM15 19V20H14V19H15Z" fill="black" fill-opacity="0.3"/>
<path id="static-shadow_2" fill-rule="evenodd" clip-rule="evenodd" d="M8 10H9V11H8V10ZM8 11V12H7V11H8ZM11 11H10V12H9V13H7V14H9V13H10V14H11V13H10V12H11V11ZM15 11H14V12H15V13H14V14H15V13H16V14H18V13H16V12H15V11ZM17 11H18V12H17V11ZM17 11H16V10H17V11ZM12 10H13V11H12V10ZM13 12H12V13H13V12Z" fill="black" fill-opacity="0.3"/>
</g>
<g id="eyes-angry">
<path id="static-sclera" fill-rule="evenodd" clip-rule="evenodd" d="M13 16H15V18H13V16ZM10 16H12V18H10V16Z" fill="#FF9906"/>
<path id="static-pupils" fill-rule="evenodd" clip-rule="evenodd" d="M14 16H15V18H14V16ZM11 16H12V18H11V16Z" fill="black"/>
<path id="static-lids" fill-rule="evenodd" clip-rule="evenodd" d="M13 16H15V17H13V16ZM10 16H12V17H10V16Z" fill="black" fill-opacity="0.15"/>
<path id="Union" fill-rule="evenodd" clip-rule="evenodd" d="M10 14H11V15H10V14ZM11 15H12V16H11V15ZM13 15H14V16H13V15ZM14 15H15V14H14V15Z" fill="black"/>
</g>
<g id="mouth-woah">
<rect id="Rectangle 188" x="11" y="19" width="3" height="1" fill="black"/>
</g>
<g id="accessory-pan">
<path id="Union_2" fill-rule="evenodd" clip-rule="evenodd" d="M7 18H8V19H9V20H10V21H15V20H16V19H17V18H18V19V20H17V21H16V22H10H9V21H8V20H7V19V18Z" fill="#552626"/>
<path id="Union_3" fill-rule="evenodd" clip-rule="evenodd" d="M7 18H8V19V20H7V19V18ZM9 21V20H8V21H9ZM9 21V22H10V21H9ZM17 18H18V19V20H17V19V18ZM16 21V20H17V21H16ZM16 21V22H15V21H16Z" fill="black" fill-opacity="0.5"/>
<rect id="Rectangle 2951" x="18" y="18" width="1" height="1" fill="#C39293"/>
<path id="Union_4" fill-rule="evenodd" clip-rule="evenodd" d="M20 18H19V19H20H21V18H20Z" fill="#5C2A2B"/>
</g>
<g id="hat-yolk">
<path id="Union_5" fill-rule="evenodd" clip-rule="evenodd" d="M10 9H15V10H17V11H15V12H9V11H8V10H10V9Z" fill="#FFEC16"/>
<path id="Union_6" fill-rule="evenodd" clip-rule="evenodd" d="M8 10H9V11H8V10ZM16 11H9V12H16V11ZM16 11V10H17V11H16Z" fill="#F1BF16"/>
<path id="Union_7" fill-rule="evenodd" clip-rule="evenodd" d="M12 9H10V10H9V11H10V10H12V9Z" fill="white" fill-opacity="0.7"/>
<rect id="Rectangle 2931" x="10" y="8" width="5" height="1" fill="black"/>
</g>
<g id="decoration">
<path id="Union_8" fill-rule="evenodd" clip-rule="evenodd" d="M4 1H1V2V4H2V2H4V1Z" fill="#F7CD37"/>
<path id="Union_9" fill-rule="evenodd" clip-rule="evenodd" d="M20 1H23V2V4H22V2H20V1Z" fill="#F7CD37"/>
<path id="Union_10" fill-rule="evenodd" clip-rule="evenodd" d="M20 23H23V22V20H22V22H20V23Z" fill="#F7CD37"/>
<path id="Union_11" fill-rule="evenodd" clip-rule="evenodd" d="M4 23H1V22V20H2V22H4V23Z" fill="#F7CD37"/>
<path id="ONE PAN BROCC" d="M6.94805 3.70779V2.83117H6.65584V3.70779H6.94805ZM6.07143 4V2.53896H7.53247V4H6.07143ZM7.82468 4V2.53896H8.7013V3.41558H8.99351V2.53896H9.28571V4H8.40909V3.12338H8.11688V4H7.82468ZM9.57792 4V2.53896H11.039V2.83117H10.1623V3.12338H10.7468V3.41558H10.1623V3.70779H11.039V4H9.57792ZM13.3766 3.41558V2.83117H13.0844V3.41558H13.3766ZM12.5 4V2.53896H13.961V3.70779H13.0844V4H12.5ZM15.1299 3.41558V2.83117H14.8377V3.41558H15.1299ZM14.2532 4V2.53896H15.7143V4H15.1299V3.70779H14.8377V4H14.2532ZM16.0065 4V2.53896H16.8831V3.41558H17.1753V2.53896H17.4675V4H16.5909V3.12338H16.2987V4H16.0065ZM8.99351 6.70779V6.41558H8.7013V6.70779H8.99351ZM8.99351 6.12338V5.83117H8.7013V6.12338H8.99351ZM8.11688 7V5.53896H9.28571V5.83117H9.57792V6.70779H9.28571V7H8.11688ZM10.7468 6.41558V5.83117H10.4545V6.41558H10.7468ZM9.87013 7V5.53896H11.3312V6.41558H11.039V6.70779H11.3312V7H10.7468V6.70779H10.4545V7H9.87013ZM12.5 6.70779V5.83117H12.2078V6.70779H12.5ZM11.6234 7V5.53896H13.0844V7H11.6234ZM13.3766 7V5.53896H14.8377V5.83117H13.961V6.70779H14.8377V7H13.3766ZM15.1299 7V5.53896H16.5909V5.83117H15.7143V6.70779H16.5909V7H15.1299Z" fill="#F7CD37"/>
</g>
</g>
</svg>
