<svg width="100%" height="100%" viewBox="0 0 24 24" fill="none" xmlns="http://www.w3.org/2000/svg" id="egg" shape-rendering="cripsEdges">
  <g class="border">
    <path fill-rule="evenodd" clip-rule="evenodd" d="M14 10H10V11H9V12H8V14H7V19H8V20H9V21H15V20H16V19H17V14H16V12H15V11H14V10ZM14 11V12H15V14H16V19H15V20H9V19H8V14H9V12H10V11H14Z" fill="black"/>
  </g>
  <g id="rare" class="inside">
    <path fill-rule="evenodd" clip-rule="evenodd" d="M11 13H13V14H14V15H13V16H11V15H10V14H11V13Z" fill="#DB00FF"/>
    <path fill-rule="evenodd" clip-rule="evenodd" d="M11 13H12H13V14H12H11V13ZM11 14V15H9.99999V14H11Z" fill="white" fill-opacity="0.59"/>
    <path fill-rule="evenodd" clip-rule="evenodd" d="M13 14H14V15H13V16H11V15H13V14Z" fill="black" fill-opacity="0.17"/>
  </g>
  <g id="a1" class="body">
    <g>
      <path fill-rule="evenodd" clip-rule="evenodd" d="M14 13H9V14H8V19H9V20H14V19V13Z" fill="#FF0000"/>
      <path fill-rule="evenodd" clip-rule="evenodd" d="M10 11H14V12H15V14H16V19H15V20H14V18H13V17H14V15V13H10H9V12H10V11Z" fill="#B90000"/>
      <path d="M13 13H10V14H13V13Z" fill="black"/>
    </g>
  </g>
  <g id="buck-teeth" class="mouth">
    <path fill-rule="evenodd" clip-rule="evenodd" d="M11.3333 18H11V19H11.3333H11.6667H12V18H11.6667H11.3333Z" fill="black"/>
    <path fill-rule="evenodd" clip-rule="evenodd" d="M12 18H13V19H12V18ZM10 18H11V19H10V18Z" fill="white"/>
  </g>
  <g id="a9" class="eyes">
    <path fill-rule="evenodd" clip-rule="evenodd" d="M11 15H10V17H11V15ZM14 15H13V17H14V15Z" fill="white"/>
    <path fill-rule="evenodd" clip-rule="evenodd" d="M10 15H9V17H10V15ZM13 15H12V17H13V15Z" fill="black"/>
    <path fill-rule="evenodd" clip-rule="evenodd" d="M11 15H9V16H11V15ZM14 15H12V16H14V15Z" fill="black" fill-opacity="0.15"/>
  </g>
  <g id="spots" class="face">
    <path fill-rule="evenodd" clip-rule="evenodd" d="M11 12H10V13H11V12ZM13 14H14V15H13V14ZM9 17H8V18H9V17ZM11 19H10V20H11V19ZM16 16V17H15V16V15H16V16ZM13 12H14V13H13V12Z" fill="black" fill-opacity="0.35"/>
  </g>
  <g id="nerd-glasses" class="glasses">
    <path fill-rule="evenodd" clip-rule="evenodd" d="M12 15H14V16H12V15ZM9 15H11V16H9V15Z" fill="#F0F0F0"/>
    <path fill-rule="evenodd" clip-rule="evenodd" d="M12 14H14V15H15H16V16H15H14V17H12V16H11V17H9V16H8V15H9V14H11V15H12V14ZM11 15H9V16H11V15ZM12 15V16H14V15H12Z" fill="#0040FF"/>
  </g>
  <style>
    <![CDATA[
      #egg:active{transform:scaleX(-1);}
    ]]>
  </style>
</svg>
