<svg width="24" height="24" viewBox="0 0 24 24" fill="none" xmlns="http://www.w3.org/2000/svg">
<g id="border">
<path id="Union" fill-rule="evenodd" clip-rule="evenodd" d="M14 10H10V11H9V12H8V14H7V19H8V20H9V21H15V20H16V19H17V14H16V12H15V11H14V10ZM14 11V12H15V14H16V19H15V20H9V19H8V14H9V12H10V11H14Z" fill="black"/>
</g>
<g id="inside-rare">
<path id="fill-meat" fill-rule="evenodd" clip-rule="evenodd" d="M11 13H13V14H14V15H13V16H11V15H10V14H11V13Z" fill="#DB00FF"/>
<path id="static-shine" fill-rule="evenodd" clip-rule="evenodd" d="M11 13H12H13V14H12H11V13ZM11 14V15H9.99999V14H11Z" fill="white" fill-opacity="0.59"/>
<path id="static-shadow" fill-rule="evenodd" clip-rule="evenodd" d="M13 14H14V15H13V16H11V15H13V14Z" fill="black" fill-opacity="0.17"/>
</g>
<g id="body-toad">
<path id="fill-color" fill-rule="evenodd" clip-rule="evenodd" d="M10 11H14V12H15V14H16V19H15V20H14H10H9V19H8V14H9V12H10V11Z" fill="#57A201"/>
<path id="static-shadow_2" fill-rule="evenodd" clip-rule="evenodd" d="M13 11H14V12H13V11ZM14 12H15V13H14V12ZM16 14H15V15H16V14Z" fill="black" fill-opacity="0.5"/>
<path id="static-shadow-big" fill-rule="evenodd" clip-rule="evenodd" d="M13 11H10V12H9V13H11V14H13V13H14V12H13V11ZM14 19V18H12V19H14ZM15 19V20H14V19H15ZM15 19H16V15H15V19Z" fill="black" fill-opacity="0.29"/>
<rect id="Rectangle 2650" x="11" y="20" width="2" height="1" fill="#8FCD2C"/>
</g>
<g id="mouth-a5">
<path id="static-mouth" fill-rule="evenodd" clip-rule="evenodd" d="M15 17H14V18H12H11H10V19H11H12H14V18H15V17Z" fill="black"/>
</g>
<g id="eyes-a9">
<path id="static-sclera" fill-rule="evenodd" clip-rule="evenodd" d="M11 15H10V17H11V15ZM14 15H13V17H14V15Z" fill="white"/>
<path id="static-pupils" fill-rule="evenodd" clip-rule="evenodd" d="M10 15H9V17H10V15ZM13 15H12V17H13V15Z" fill="black"/>
<path id="static-lids" fill-rule="evenodd" clip-rule="evenodd" d="M11 15H9V16H11V15ZM14 15H12V16H14V15Z" fill="black" fill-opacity="0.15"/>
</g>
<g id="accessory-shroom">
<path id="Union_2" fill-rule="evenodd" clip-rule="evenodd" d="M16 19H17V20H18V21H17V22H15V23H9V22H7V21H6V20H7V19H8V20H9V21H15V20H16V19Z" fill="#FF2929"/>
<path id="Union_3" fill-rule="evenodd" clip-rule="evenodd" d="M8 20H9V21H8V20ZM10 22H11V23H10V22ZM16 21H15V22H16V21Z" fill="white"/>
<path id="Union_4" fill-rule="evenodd" clip-rule="evenodd" d="M17 19H16V20H15V21H12V22H13V23H15V22H16H17V21H18V20H17V19Z" fill="black" fill-opacity="0.2"/>
<path id="Union_5" fill-rule="evenodd" clip-rule="evenodd" d="M18 20H16V21H15V22H17V21H18V20ZM15 22H14V23H15V22Z" fill="black" fill-opacity="0.35"/>
</g>
</svg>
