<svg width="24" height="24" viewBox="0 0 24 24" fill="none" xmlns="http://www.w3.org/2000/svg">
<g id="hackerman">
<g id="inside-rare">
<path id="fill-meat" fill-rule="evenodd" clip-rule="evenodd" d="M13 13H11V14H10V15H11V16H13V15H14V14H13V13Z" fill="#DB00FF"/>
<path id="static-shine" fill-rule="evenodd" clip-rule="evenodd" d="M13 13H12H11V14H12H13V13ZM13 14V15H14V14H13Z" fill="white" fill-opacity="0.59"/>
<path id="static-shadow" fill-rule="evenodd" clip-rule="evenodd" d="M11 14H10V15H11V16H13V15H11V14Z" fill="black" fill-opacity="0.17"/>
</g>
<g id="accessory-terminal">
<rect id="Rectangle 5211" x="15" y="15" width="6" height="5" fill="#FFF4DE"/>
<rect id="Rectangle 5212" x="16" y="16" width="4" height="3" fill="#343434"/>
<path id="Union" fill-rule="evenodd" clip-rule="evenodd" d="M20 18H21V19V20H15V19V18H16V19H20V18Z" fill="black" fill-opacity="0.2"/>
<g class="animation blink">
<path id="Union_2" fill-rule="evenodd" clip-rule="evenodd" d="M17 17H16V18H17V17ZM19 17H18V18H19V17Z" fill="#FFA500"/>
<rect id="Rectangle 5214" opacity="0.5" x="17" y="17" width="1" height="1" fill="#FFA500"/>
<rect id="Rectangle 5215" opacity="0.5" x="15" y="17" width="1" height="1" fill="#FFA500"/>
<path id="Union_3" opacity="0.1" fill-rule="evenodd" clip-rule="evenodd" d="M16 16H17V17H16V16ZM18 16H19V17H18V16ZM19 18H20V17H19V18ZM19 18V19H18V18H19ZM17 18H16V19H17V18Z" fill="#FFA500"/>
</g>
<path id="Union_4" fill-rule="evenodd" clip-rule="evenodd" d="M15 15H16V16H15V15ZM21 15H20V16H19V17H20V16H21V15ZM16 19H15V20H16V19ZM20 19H21V20H20V19ZM20 19H19V18H20V19Z" fill="black" fill-opacity="0.25"/>
<rect id="Rectangle 5224" x="19" y="19" width="1" height="1" fill="#A6FFB8"/>
</g>
<g id="body-a1">
<path id="Union_5" fill-rule="evenodd" clip-rule="evenodd" d="M10 10H14V11H15V12H16V14H17V19H16V20H15V21H9V20H8V19H7V14H8V12H9V11H10V10ZM10 11V12H9V14H8V19H9V20H15V19H16V14H15V12H14V11H10Z" fill="black"/>
<path id="fill-color" fill-rule="evenodd" clip-rule="evenodd" d="M14 11H10V12H9V14H8V19H9V20H10H14H15V19H16V14H15V12H14V11Z" fill="#F9E8CF"/>
<path id="static-shadow_2" fill-rule="evenodd" clip-rule="evenodd" d="M11 11H10V12H11V11ZM10 12H9V13H10V12ZM8 14H9V15H8V14ZM9 18H8V19H9V18ZM9 19V20H10V19H9ZM15 19H14V20H15V19ZM15 19H16V18H15V19Z" fill="black" fill-opacity="0.5"/>
<path id="static-shadow-big" fill-rule="evenodd" clip-rule="evenodd" d="M11 11H13V12H12V13H11V15H10V17H11V18H12V19H14V20H12H9V19H8V15V14H9V13H10V12H11V11Z" fill="black" fill-opacity="0.29"/>
</g>
<g id="mouth-a5">
<path id="static-mouth" fill-rule="evenodd" clip-rule="evenodd" d="M9 17H10V18H12H13H14V19H13H12H10V18H9V17Z" fill="black"/>
</g>
<g id="eyes-a9">
<path id="static-sclera" fill-rule="evenodd" clip-rule="evenodd" d="M13 15H14V17H13V15ZM10 15H11V17H10V15Z" fill="white"/>
<path id="static-pupils" fill-rule="evenodd" clip-rule="evenodd" d="M14 15H15V17H14V15ZM11 15H12V17H11V15Z" fill="black"/>
<path id="static-lids" fill-rule="evenodd" clip-rule="evenodd" d="M13 15H15V16H13V15ZM10 15H12V16H10V15Z" fill="black" fill-opacity="0.15"/>
</g>
<g id="hair-mullet">
<path id="Union_6" fill-rule="evenodd" clip-rule="evenodd" d="M10 10H14V11H15V12H16V13V14H15V13H14V14H13H12V13H11H10V14H9V16H8V19H7V14H8V13V12H9V11H10V10ZM8 19H9V20V21H8H7V20H8V19ZM16 19H17V14H16V19ZM16 19V20V21H15V20V19H16Z" fill="#2D1500"/>
<path id="Union_7" fill-rule="evenodd" clip-rule="evenodd" d="M14 11H13H12V12H11H10V13H9V14V15H10V14H11V13H12V14H14V13H15V14H16V12H15V11H14Z" fill="#572A00"/>
</g>
<g id="glasses-big">
<path id="Union_8" fill-rule="evenodd" clip-rule="evenodd" d="M14 14H13V15H12V14H9V15H8V16H9V17H10V18H11H12V17H13V18H14H15V17H16V16V15V14H15H14ZM15 17H14H13V16V15H14H15V16V17ZM12 17V16V15H10V16V17H11H12Z" fill="#FFE766"/>
<path id="Union_9" fill-rule="evenodd" clip-rule="evenodd" d="M9 16H10V17H9V16ZM12 17V18H10V17H12ZM13 17H12V16H13V17ZM15 17V18H14H13V17H14H15ZM15 17H16V16H15V17Z" fill="#DAB700"/>
</g>
<g id="clothes-brown_jacket">
<path id="Union_10" fill-rule="evenodd" clip-rule="evenodd" d="M11 20H9V21H11V20ZM15 20H13V21H15V20Z" fill="#6D451F"/>
<rect id="Rectangle 5186" x="11" y="20" width="2" height="1" fill="white"/>
<rect id="Rectangle 5187" opacity="0.4" x="11" y="20" width="1" height="1" fill="#0000FF"/>
</g>
<g id="accessory-hacker_glove">
<path id="Union_11" fill-rule="evenodd" clip-rule="evenodd" d="M6 12H5V13H4V14L4 15H5L5 20H8L8 14V12H7H6Z" fill="#D9D9D9"/>
<rect id="Rectangle 5193" x="6" y="20" width="3" height="1" fill="black"/>
<path id="Union_12" fill-rule="evenodd" clip-rule="evenodd" d="M8 13H6V14H5V15H7V16H5V20H7L7 16H8V15V14V13Z" fill="#393939"/>
<rect id="Rectangle 5197" x="6" y="13" width="1" height="1" fill="#0098C8"/>
<path id="Union_13" fill-rule="evenodd" clip-rule="evenodd" d="M5 12H6V13H5V12ZM6 15H7V16H6L6 15ZM8 12H7V13H8V12Z" fill="black" fill-opacity="0.15"/>
<path id="Union_14" opacity="0.4" fill-rule="evenodd" clip-rule="evenodd" d="M4 14H5V15H4V14ZM7 19H8V20H7H6H5V19H6H7ZM8 14H7V15H8V14ZM5 16H6H7V17H6H5V16Z" fill="black"/>
<rect id="Rectangle 5208" x="7" y="16" width="1" height="3" fill="black" fill-opacity="0.15"/>
<path id="Union_15" opacity="0.25" fill-rule="evenodd" clip-rule="evenodd" d="M7 17H6V18H5V19H6V18H7V17Z" fill="#D9D9D9"/>
</g>
<style class="static">
@keyframes blink {
  0%, 49.999% { opacity: 1; }
  50%, 100% { opacity: 0; }
}
.animation.blink { animation: blink 0.5s alternate infinite; }
</style>
</g>
</svg>
