<svg width="100%" height="100%" viewBox="0 0 24 24" fill="none" xmlns="http://www.w3.org/2000/svg" xmlns:xlink="http://www.w3.org/1999/xlink" id="egg" shape-rendering="crispEdges">
  <g class="border">
    <path fill-rule="evenodd" clip-rule="evenodd" d="M14 10H10V11H9V12H8V14H7V19H8V20H9V21H15V20H16V19H17V14H16V12H15V11H14V10ZM14 11V12H15V14H16V19H15V20H9V19H8V14H9V12H10V11H14Z" fill="black"/>
  </g>
  <g id="rare" class="inside">
    <path fill-rule="evenodd" clip-rule="evenodd" d="M11 13H13V14H14V15H13V16H11V15H10V14H11V13Z" fill="#DB00FF"/>
    <path fill-rule="evenodd" clip-rule="evenodd" d="M11 13H12H13V14H12H11V13ZM11 14V15H10V14H11Z" fill="white" fill-opacity="0.59"/>
    <path fill-rule="evenodd" clip-rule="evenodd" d="M13 14H14V15H13V16H11V15H13V14Z" fill="black" fill-opacity="0.17"/>
  </g>
  <g id="a1" class="body">
    <path fill-rule="evenodd" clip-rule="evenodd" d="M10 11H14V12H15V14H16V19H15V20H14H10H9V19H8V14H9V12H10V11Z" fill="#6CD18A"/>
    <path fill-rule="evenodd" clip-rule="evenodd" d="M13 11H14V12H13V11ZM14 12H15V13H14V12ZM16 14H15V15H16V14ZM15 18H16V19H15V18ZM15 19V20H14V19H15ZM9 19H10V20H9V19ZM9 19H8V18H9V19Z" fill="black" fill-opacity="0.5"/>
    <path fill-rule="evenodd" clip-rule="evenodd" d="M13 11H11V12H12V13H13V15H14V17H13V18H12V19H10V20H12H15V19H16V15V14H15V13H14V12H13V11Z" fill="black" fill-opacity="0.29"/>
  </g>
  <g id="kevin-teeth" class="mouth">
    <path fill-rule="evenodd" clip-rule="evenodd" d="M11 18H10V19H11H12H14V18H12H11Z" fill="black"/>
    <path fill-rule="evenodd" clip-rule="evenodd" d="M12 18H13V19H14V20H13V19H12V18ZM10 18H11V19H10V18Z" fill="#DCD46E"/>
  </g>
  <g id="kevin-eyes" class="eyes">
    <path fill-rule="evenodd" clip-rule="evenodd" d="M11 15H9V17H11V15ZM14 15H12V17H14V15Z" fill="white"/>
    <path fill-rule="evenodd" clip-rule="evenodd" d="M14 15H13V16H14V15ZM10 16H9V17H10V16Z" fill="black"/>
    <path fill-rule="evenodd" clip-rule="evenodd" d="M11 15H9V16H11V15ZM14 15H12V16H14V15Z" fill="black" fill-opacity="0.15"/>
  </g>
  <g id="kevin-brain" class="head">
    <path fill-rule="evenodd" clip-rule="evenodd" d="M12 10H11H10V11H9V12H8V13H7V15H8H9V14H10V12H11V11H12V10Z" fill="#E270F9"/>
    <path fill-rule="evenodd" clip-rule="evenodd" d="M12 10H11V11H12V10ZM9 11H10V12H9V13H8V15H7V13H8V12H9V11Z" fill="black" fill-opacity="0.2"/>
  </g>
  <g id="kevin-shirt" class="clothes">
    <path fill-rule="evenodd" clip-rule="evenodd" d="M15 20H16V21H15V22H9V21H8V20H9V21H15V20Z" fill="#7E3C32"/>
    <path fill-rule="evenodd" clip-rule="evenodd" d="M15 19H16V20H15V21H9V20H8V19H9V20H15V19Z" fill="#7E3C32"/>
    <path fill-rule="evenodd" clip-rule="evenodd" d="M12 20H10V21V22H11V21H12V20Z" fill="#E53329"/>
    <path fill-rule="evenodd" clip-rule="evenodd" d="M11 20H12V21V22H11V21V20ZM10 21H9V22H10V21Z" fill="black" fill-opacity="0.25"/>
    <path fill-rule="evenodd" clip-rule="evenodd" d="M16 19H15V20H16V19ZM15 20H14H13H12V21H13H14H15V20ZM9 19H8V20H9V19ZM9 20V21H10V20H9Z" fill="black"/>
  </g>
  <style>
    <![CDATA[
      #egg:active{transform:scaleX(-1);}
    ]]>
  </style>
</svg>