<svg width="24" height="24" viewBox="0 0 24 24" fill="none" xmlns="http://www.w3.org/2000/svg">
<g id="Property 1=Variant4">
<rect width="24" height="24" fill="#FE9F5F"/>
<g id="inside-rare">
<path id="fill-meat" fill-rule="evenodd" clip-rule="evenodd" d="M13 13H11V14H10V15H11V16H13V15H14V14H13V13Z" fill="#DB00FF"/>
<path id="static-shine" fill-rule="evenodd" clip-rule="evenodd" d="M13 13H12H11V14H12H13V13ZM13 14V15H14V14H13Z" fill="white" fill-opacity="0.59"/>
<path id="static-shadow" fill-rule="evenodd" clip-rule="evenodd" d="M11 14H10V15H11V16H13V15H11V14Z" fill="black" fill-opacity="0.17"/>
</g>
<g id="body-a1">
<path id="Union" fill-rule="evenodd" clip-rule="evenodd" d="M10 10H14V11H15V12H16V14H17V19H16V20H15V21H9V20H8V19H7V14H8V12H9V11H10V10ZM10 11V12H9V14H8V19H9V20H15V19H16V14H15V12H14V11H10Z" fill="black"/>
<path id="fill-color" fill-rule="evenodd" clip-rule="evenodd" d="M14 11H10V12H9V14H8V19H9V20H10H14H15V19H16V14H15V12H14V11Z" fill="#F9E8CF"/>
<path id="static-shadow_2" fill-rule="evenodd" clip-rule="evenodd" d="M10 11H11V12H10V13H9V12H10V11ZM9 14H8V15H9V14ZM8 18H9V19H10V20H9V19H8V18ZM15 18H16V19H15V18Z" fill="black" fill-opacity="0.5"/>
<path id="static-shadow-big" fill-rule="evenodd" clip-rule="evenodd" d="M11 11H13V12H12V13H11V15H10V17H11V18H12V19H14V20H12H9V19H8V15V14H9V13H10V12H11V11Z" fill="black" fill-opacity="0.29"/>
</g>
<g id="eyes-up">
<path id="static-sclera" fill-rule="evenodd" clip-rule="evenodd" d="M13 15H15V17H13V15ZM10 15H12V17H10V15Z" fill="white"/>
<path id="static-pupils" fill-rule="evenodd" clip-rule="evenodd" d="M13 15H14V16H13V15ZM11 15H12V16H11V15Z" fill="black"/>
<path id="static-lids" fill-rule="evenodd" clip-rule="evenodd" d="M13 15H15V16H13V15ZM10 15H12V16H10V15Z" fill="black" fill-opacity="0.15"/>
</g>
<g id="glasses-vibe">
<path id="Union_2" fill-rule="evenodd" clip-rule="evenodd" d="M10 15H12V16H10V15ZM10 17H8V16H10V17ZM12 17V18H10V17H12ZM13 17H12V16H13V17ZM15 17H13V18H15V17ZM15 16H13V15H15V16ZM15 16V17H16V16H15Z" fill="white"/>
<path id="Union_3" fill-rule="evenodd" clip-rule="evenodd" d="M12 16H10V17H12V16ZM15 16H13V17H15V16Z" fill="black"/>
<path id="Union_4" fill-rule="evenodd" clip-rule="evenodd" d="M8 16H10V17H8V16ZM10 17H11H12V18H11H10V17ZM13 17H14H15V18H14H13V17Z" fill="black" fill-opacity="0.2"/>
</g>
<g id="mouth-ooo">
<rect id="mouth" x="12" y="18" width="1" height="1" fill="black"/>
</g>
<g id="clothes-t_shirt">
<path id="Union_5" fill-rule="evenodd" clip-rule="evenodd" d="M11 20H10V21H11H12H13H14V20H13H12H11Z" fill="#D1D1D1"/>
<rect id="Rectangle 4876" x="10" y="20" width="2" height="1" fill="black" fill-opacity="0.18"/>
</g>
<g class="animation shred-shirt">
<g id="Group 210">
<g id="Group 173">
<rect id="Rectangle 3622" x="10" y="20" width="5" height="1" fill="#F9E8CF"/>
<rect id="Rectangle 3627" x="11" y="20" width="1" height="1" fill="#B1A593"/>
<rect id="Rectangle 3629" x="12" y="20" width="1" height="1" fill="#B1A593"/>
</g>
<g id="Group 172">
<path id="Union_6" fill-rule="evenodd" clip-rule="evenodd" d="M5 15H6V16H7V17H8V19H9H10V20H11V21H10H9V20H8V21H7V20V19H6V17H5V15ZM20 19H19V20H20V19Z" fill="#D1D1D1"/>
</g>
<g id="Group 171">
<path id="Union_7" fill-rule="evenodd" clip-rule="evenodd" d="M20 15H19V16H18V17H17V18H16V19H15V20H14V21H15H16V20H17H18V19H19V17H20V15Z" fill="#D1D1D1"/>
</g>
<path id="Union_8" fill-rule="evenodd" clip-rule="evenodd" d="M5 16H6V17H5V16ZM7 18V17H6V18V19H7V20H8H9V21H10V20H9V19H8H7V18ZM9 17H8V18H9V17Z" fill="black" fill-opacity="0.3"/>
<path id="Union_9" fill-rule="evenodd" clip-rule="evenodd" d="M16 17H17V18H16V17ZM16 19H17H18V18V17H19V18V19H18V20H17H16V21H15V20H16V19Z" fill="black" fill-opacity="0.3"/>
</g>
<g id="hands">
<rect id="Rectangle 4636" x="20" y="15" width="1" height="2" fill="#F9E8CF"/>
<rect id="Rectangle 4637" x="4" y="15" width="1" height="2" fill="#B1A593"/>
</g>
<g id="mouth_wah">
<path id="Union_10" fill-rule="evenodd" clip-rule="evenodd" d="M11 18H13H14V19V20H13H12H11V19V18Z" fill="black"/>
<rect id="Rectangle 3583" x="12" y="19" width="1" height="1" fill="#530000"/>
</g>
</g>
<style class="static"><![CDATA[
.shred-shirt { animation: 2s faded-in-out steps(4, end) alternate infinite; }
@keyframes faded-in-out {
  0% { opacity: 0; }
  25% { opacity: 0; }
  40% { opacity: 1; }
  100% { opacity: 1; }
}
]]></style>
</g>
</svg>
